{
.appVersion = "895";
classes = (
{
automatic = 1;
code = "A Aacute Abreve Abreveacute Abrevedotbelow Abrevegrave Abrevehookabove Abrevetilde Acircumflex Acircumflexacute Acircumflexdotbelow Acircumflexgrave Acircumflexhookabove Acircumflextilde Adblgrave Adieresis Adotbelow Agrave Ahookabove Ainvertedbreve Amacron Aogonek Aring Aringacute Atilde AE AEacute AEmacron B C Cacute Ccaron Ccedilla Ccircumflex Cdotaccent D DZ DZcaron Eth Dcaron Dcroat Dz Dzcaron E Eacute Ebreve Ecaron Ecircumflex Ecircumflexacute Ecircumflexdotbelow Ecircumflexgrave Ecircumflexhookabove Ecircumflextilde Edblgrave Edieresis Edotaccent Edotbelow Egrave Ehookabove Einvertedbreve Emacron Eogonek Etilde F G Gbreve Gcaron Gcircumflex Gcommaaccent Gdotaccent H Hbar Hcircumflex I IJ Iacute Ibreve Icircumflex Idblgrave Idieresis Idotaccent Idotbelow Igrave Ihookabove Iinvertedbreve Imacron Iogonek Itilde J Jcircumflex K Kcommaaccent L LJ Lacute Lcaron Lcommaaccent Ldot Lj Lslash M N NJ Nacute Ncaron Ncommaaccent Ndotbelow Eng Nj Ntilde O Oacute Obreve Ocircumflex Ocircumflexacute Ocircumflexdotbelow Ocircumflexgrave Ocircumflexhookabove Ocircumflextilde Odblgrave Odieresis Odieresismacron Odotaccentmacron Odotbelow Ograve Ohookabove Ohorn Ohornacute Ohorndotbelow Ohorngrave Ohornhookabove Ohorntilde Ohungarumlaut Oinvertedbreve Omacron Oogonek Oslash Oslashacute Otilde Otildemacron OE P Thorn Q R Racute Rcaron Rcommaaccent Rdblgrave Rinvertedbreve S Sacute Scaron Scedilla Scircumflex Scommaaccent Sdotbelow Germandbls Schwa T Tbar Tcaron Tcedilla Tcommaaccent Tcommaaccent U Uacute Ubreve Ucaron Ucircumflex Udblgrave Udieresis Udotbelow Ugrave Uhorn Uhornacute Uhorndotbelow Uhorngrave Uhornhookabove Uhorntilde Uhungarumlaut Uinvertedbreve Umacron Uogonek Uring Utilde V W Wacute Wcircumflex Wdieresis Wgrave X Y Yacute Ycircumflex Ydieresis Ydotbelow Ygrave Yhookabove Ymacron Ytilde Z Zacute Zcaron Zdotaccent";
name = Uppercase;
}
);

glyphs = (
{
glyphname = A;
lastChange = "2016-07-08 21:51:00 +0000";
layers = (
{
anchors = (
{
name = bottom;
position = "{566, 0}";
},
{
name = ogonek;
position = "{1161, 10}";
},
{
name = top;
position = "{566, 1536}";
}
);
layerId = "849A9C4C-BF7C-40C5-8614-1FD725A2A379";
paths = (
{
closed = 1;
nodes = (
"292 0 LINE",
"359 329 LINE",
"724 329 LINE",
"781 0 LINE",
"1108 12 LINE",
"776 1536 LINE",
"349 1518 LINE",
"25 0 LINE"
);
},
{
closed = 1;
nodes = (
"529 1310 LINE",
"670 575 LINE",
"413 575 LINE"
);
}
);
width = 1131;
}
);
unicode = 0041;
},
{
glyphname = AE;
lastChange = "2016-07-01 10:56:26 +0000";
layers = (
{
layerId = "849A9C4C-BF7C-40C5-8614-1FD725A2A379";
paths = (
{
closed = 1;
nodes = (
"320 0 LINE",
"450 329 LINE",
"785 329 LINE",
"769 0 LINE",
"1506 0 LINE",
"1530 240 LINE",
"1104 240 LINE",
"1104 672 LINE",
"1356 672 LINE",
"1357 930 LINE",
"1104 930 LINE",
"1104 1296 LINE",
"1490 1296 LINE",
"1514 1536 LINE",
"858 1536 LINE",
"654 1518 LINE",
"-7 0 LINE"
);
},
{
closed = 1;
nodes = (
"808 1310 LINE",
"786 575 LINE",
"549 575 LINE"
);
}
);
width = 1580;
}
);
unicode = 00C6;
},
{
glyphname = B;
lastChange = "2016-07-01 10:56:26 +0000";
layers = (
{
anchors = (
{
name = bottom;
position = "{565, 0}";
},
{
name = top;
position = "{565, 1536}";
}
);
layerId = "849A9C4C-BF7C-40C5-8614-1FD725A2A379";
paths = (
{
closed = 1;
nodes = (
"390 0 LINE SMOOTH",
"713 0 OFFCURVE",
"1067 71 OFFCURVE",
"1067 431 CURVE SMOOTH",
"1067 674 OFFCURVE",
"962 762 OFFCURVE",
"853 818 CURVE",
"957 869 OFFCURVE",
"1020 992 OFFCURVE",
"1020 1140 CURVE SMOOTH",
"1020 1359 OFFCURVE",
"883 1536 OFFCURVE",
"488 1536 CURVE SMOOTH",
"144 1536 LINE",
"144 0 LINE"
);
},
{
closed = 1;
nodes = (
"444 693 LINE",
"510 693 LINE SMOOTH",
"652 693 OFFCURVE",
"779 668 OFFCURVE",
"779 471 CURVE SMOOTH",
"779 381 OFFCURVE",
"718 240 OFFCURVE",
"499 240 CURVE SMOOTH",
"444 240 LINE"
);
},
{
closed = 1;
nodes = (
"434 1296 LINE",
"493 1296 LINE SMOOTH",
"626 1296 OFFCURVE",
"741 1264 OFFCURVE",
"741 1111 CURVE SMOOTH",
"741 935 OFFCURVE",
"646 911 OFFCURVE",
"506 911 CURVE SMOOTH",
"434 911 LINE"
);
}
);
width = 1129;
}
);
unicode = 0042;
},
{
glyphname = C;
lastChange = "2016-07-01 10:56:26 +0000";
layers = (
{
anchors = (
{
name = bottom;
position = "{535, 0}";
},
{
name = top;
position = "{535, 1536}";
}
);
layerId = "849A9C4C-BF7C-40C5-8614-1FD725A2A379";
paths = (
{
closed = 1;
nodes = (
"857 -28 OFFCURVE",
"997 237 OFFCURVE",
"997 523 CURVE",
"742 547 LINE",
"731 414 OFFCURVE",
"705 212 OFFCURVE",
"580 212 CURVE SMOOTH",
"407 212 OFFCURVE",
"381 510 OFFCURVE",
"381 800 CURVE SMOOTH",
"381 1027 OFFCURVE",
"407 1324 OFFCURVE",
"551 1324 CURVE SMOOTH",
"699 1324 OFFCURVE",
"705 1027 OFFCURVE",
"705 995 CURVE",
"995 1010 LINE",
"995 1281 OFFCURVE",
"837 1564 OFFCURVE",
"568 1564 CURVE SMOOTH",
"208 1564 OFFCURVE",
"81 1145 OFFCURVE",
"81 800 CURVE SMOOTH",
"81 412 OFFCURVE",
"175 -28 OFFCURVE",
"561 -28 CURVE SMOOTH"
);
}
);
width = 1069;
}
);
unicode = 0043;
},
{
glyphname = D;
lastChange = "2016-07-01 10:56:26 +0000";
layers = (
{
anchors = (
{
name = bottom;
position = "{567, 0}";
},
{
name = center;
position = "{567, 768}";
},
{
name = top;
position = "{567, 1536}";
}
);
layerId = "849A9C4C-BF7C-40C5-8614-1FD725A2A379";
paths = (
{
closed = 1;
nodes = (
"511 0 LINE SMOOTH",
"914 0 OFFCURVE",
"1061 373 OFFCURVE",
"1061 762 CURVE SMOOTH",
"1061 1283 OFFCURVE",
"862 1536 OFFCURVE",
"458 1536 CURVE SMOOTH",
"144 1536 LINE",
"144 0 LINE"
);
},
{
closed = 1;
nodes = (
"443 1296 LINE",
"478 1296 LINE SMOOTH",
"781 1296 OFFCURVE",
"761 901 OFFCURVE",
"761 705 CURVE SMOOTH",
"761 491 OFFCURVE",
"715 240 OFFCURVE",
"486 240 CURVE SMOOTH",
"443 240 LINE"
);
}
);
width = 1134;
}
);
unicode = 0044;
},
{
glyphname = Eth;
lastChange = "2016-07-01 10:56:26 +0000";
layers = (
{
layerId = "849A9C4C-BF7C-40C5-8614-1FD725A2A379";
paths = (
{
closed = 1;
nodes = (
"515 0 LINE SMOOTH",
"918 0 OFFCURVE",
"1065 373 OFFCURVE",
"1065 762 CURVE SMOOTH",
"1065 1283 OFFCURVE",
"866 1536 OFFCURVE",
"462 1536 CURVE SMOOTH",
"148 1536 LINE",
"148 0 LINE"
);
},
{
closed = 1;
nodes = (
"581 672 LINE",
"581 864 LINE",
"5 864 LINE",
"5 672 LINE"
);
},
{
closed = 1;
nodes = (
"447 1296 LINE",
"482 1296 LINE SMOOTH",
"785 1296 OFFCURVE",
"765 901 OFFCURVE",
"765 705 CURVE SMOOTH",
"765 491 OFFCURVE",
"719 240 OFFCURVE",
"490 240 CURVE SMOOTH",
"447 240 LINE"
);
}
);
width = 1138;
}
);
unicode = 00D0;
},
{
glyphname = Dcroat;
lastChange = "2016-07-01 10:56:26 +0000";
layers = (
{
layerId = "849A9C4C-BF7C-40C5-8614-1FD725A2A379";
paths = (
{
closed = 1;
nodes = (
"512 0 LINE SMOOTH",
"915 0 OFFCURVE",
"1062 373 OFFCURVE",
"1062 762 CURVE SMOOTH",
"1062 1283 OFFCURVE",
"863 1536 OFFCURVE",
"459 1536 CURVE SMOOTH",
"145 1536 LINE",
"145 908 LINE",
"54 908 LINE",
"35 716 LINE",
"145 716 LINE",
"145 0 LINE"
);
},
{
closed = 1;
nodes = (
"444 716 LINE",
"611 716 LINE",
"630 908 LINE",
"444 908 LINE",
"444 1296 LINE",
"479 1296 LINE SMOOTH",
"782 1296 OFFCURVE",
"762 901 OFFCURVE",
"762 705 CURVE SMOOTH",
"762 491 OFFCURVE",
"716 240 OFFCURVE",
"487 240 CURVE SMOOTH",
"444 240 LINE"
);
}
);
width = 1135;
}
);
unicode = 0110;
},
{
glyphname = E;
lastChange = "2016-07-08 21:55:15 +0000";
layers = (
{
anchors = (
{
name = bottom;
position = "{495, 0}";
},
{
name = ogonek;
position = "{826, 0}";
},
{
name = top;
position = "{495, 1536}";
},
{
name = topleft;
position = "{20, 1536}";
}
);
layerId = "849A9C4C-BF7C-40C5-8614-1FD725A2A379";
paths = (
{
closed = 1;
nodes = (
"916 0 LINE",
"940 240 LINE",
"444 240 LINE",
"444 672 LINE",
"766 672 LINE",
"767 930 LINE",
"444 930 LINE",
"444 1296 LINE",
"900 1296 LINE",
"924 1536 LINE",
"144 1536 LINE",
"144 0 LINE"
);
}
);
width = 990;
}
);
unicode = 0045;
},
{
glyphname = F;
lastChange = "2016-07-01 10:56:26 +0000";
layers = (
{
anchors = (
{
name = bottom;
position = "{472, 0}";
},
{
name = top;
position = "{472, 1536}";
}
);
layerId = "849A9C4C-BF7C-40C5-8614-1FD725A2A379";
paths = (
{
closed = 1;
nodes = (
"444 12 LINE",
"444 638 LINE",
"766 638 LINE",
"766 893 LINE",
"444 893 LINE",
"444 1295 LINE",
"900 1295 LINE",
"924 1536 LINE",
"144 1536 LINE",
"144 -12 LINE"
);
}
);
width = 943;
}
);
unicode = 0046;
},
{
glyphname = G;
lastChange = "2016-07-01 10:56:26 +0000";
layers = (
{
anchors = (
{
name = bottom;
position = "{566, 0}";
},
{
name = top;
position = "{566, 1536}";
}
);
layerId = "849A9C4C-BF7C-40C5-8614-1FD725A2A379";
paths = (
{
closed = 1;
nodes = (
"776 -28 OFFCURVE",
"823 187 OFFCURVE",
"846 285 CURVE",
"895.937 82.224 OFFCURVE",
"913 12 OFFCURVE",
"916 0 CURVE",
"1031 12 LINE",
"1031 768 LINE",
"614 768 LINE",
"590 538 LINE",
"742 538 LINE",
"742 366 OFFCURVE",
"685 212 OFFCURVE",
"578 212 CURVE SMOOTH",
"381 212 OFFCURVE",
"381 538 OFFCURVE",
"381 758 CURVE SMOOTH",
"381 991 OFFCURVE",
"415 1324 OFFCURVE",
"576 1324 CURVE SMOOTH",
"718 1324 OFFCURVE",
"723 1131 OFFCURVE",
"739 1015 CURVE",
"1025 1034 LINE",
"1025 1311 OFFCURVE",
"891 1564 OFFCURVE",
"580 1564 CURVE SMOOTH",
"211 1564 OFFCURVE",
"81 1129 OFFCURVE",
"81 774 CURVE SMOOTH",
"81 354 OFFCURVE",
"196 -28 OFFCURVE",
"521 -28 CURVE SMOOTH"
);
}
);
width = 1132;
}
);
unicode = 0047;
},
{
glyphname = H;
lastChange = "2016-07-01 10:56:26 +0000";
layers = (
{
anchors = (
{
name = bottom;
position = "{588, 0}";
},
{
name = center;
position = "{588, 768}";
},
{
name = top;
position = "{588, 1536}";
},
{
name = topleft;
position = "{20, 1536}";
}
);
guideLines = (
{
position = "{-518, 1629}";
}
);
layerId = "849A9C4C-BF7C-40C5-8614-1FD725A2A379";
paths = (
{
closed = 1;
nodes = (
"444 12 LINE",
"444 639 LINE",
"732 639 LINE",
"732 -12 LINE",
"1032 12 LINE",
"1032 1536 LINE",
"732 1512 LINE",
"732 913 LINE",
"444 913 LINE",
"444 1536 LINE",
"144 1512 LINE",
"144 -12 LINE"
);
}
);
width = 1176;
}
);
unicode = 0048;
},
{
glyphname = Hbar;
lastChange = "2016-07-01 10:56:26 +0000";
layers = (
{
layerId = "849A9C4C-BF7C-40C5-8614-1FD725A2A379";
paths = (
{
closed = 1;
nodes = (
"445 12 LINE",
"445 639 LINE",
"733 639 LINE",
"733 -12 LINE",
"1033 12 LINE",
"1033 1162 LINE",
"1139 1162 LINE",
"1139 1344 LINE",
"1033 1344 LINE",
"1033 1536 LINE",
"733 1512 LINE",
"733 1344 LINE",
"445 1344 LINE",
"445 1536 LINE",
"145 1512 LINE",
"145 1344 LINE",
"26 1344 LINE",
"26 1162 LINE",
"145 1162 LINE",
"145 -12 LINE"
);
},
{
closed = 1;
nodes = (
"445 1162 LINE",
"733 1162 LINE",
"733 913 LINE",
"445 913 LINE"
);
}
);
width = 1179;
}
);
unicode = 0126;
},
{
glyphname = I;
lastChange = "2016-07-08 21:55:33 +0000";
layers = (
{
anchors = (
{
name = bottom;
position = "{294, 0}";
},
{
name = ogonek;
position = "{599, 10}";
},
{
name = top;
position = "{294, 1536}";
},
{
name = topleft;
position = "{20, 1536}";
}
);
layerId = "849A9C4C-BF7C-40C5-8614-1FD725A2A379";
paths = (
{
closed = 1;
nodes = (
"444 12 LINE",
"444 1536 LINE",
"144 1512 LINE",
"144 -12 LINE"
);
}
);
width = 588;
}
);
unicode = 0049;
},
{
glyphname = J;
lastChange = "2016-07-01 10:56:26 +0000";
layers = (
{
anchors = (
{
name = bottom;
position = "{341, 0}";
},
{
name = top;
position = "{341, 1536}";
}
);
layerId = "849A9C4C-BF7C-40C5-8614-1FD725A2A379";
paths = (
{
closed = 1;
nodes = (
"476 -28 OFFCURVE",
"547 140 OFFCURVE",
"547 384 CURVE SMOOTH",
"547 1536 LINE",
"247 1512 LINE",
"247 409 LINE SMOOTH",
"247 301 OFFCURVE",
"246 191 OFFCURVE",
"135 191 CURVE SMOOTH",
"112 191 OFFCURVE",
"87 194 OFFCURVE",
"55 205 CURVE",
"55 2 LINE",
"129 -18 OFFCURVE",
"193 -28 OFFCURVE",
"247 -28 CURVE SMOOTH"
);
}
);
width = 681;
}
);
unicode = 004A;
},
{
glyphname = K;
lastChange = "2016-07-01 10:56:26 +0000";
layers = (
{
anchors = (
{
name = bottom;
position = "{576, 0}";
},
{
name = top;
position = "{576, 1536}";
}
);
layerId = "849A9C4C-BF7C-40C5-8614-1FD725A2A379";
paths = (
{
closed = 1;
nodes = (
"1133 43 LINE",
"799 902 LINE",
"1128 1536 LINE",
"808 1536 LINE",
"444 864 LINE",
"444 1536 LINE",
"144 1512 LINE",
"144 0 LINE",
"444 0 LINE",
"444 486 LINE",
"562 689 LINE",
"828 -27 LINE"
);
}
);
width = 1152;
}
);
unicode = 004B;
},
{
glyphname = L;
lastChange = "2016-07-01 10:56:26 +0000";
layers = (
{
anchors = (
{
name = bottom;
position = "{480, 0}";
},
{
name = center;
position = "{748, 768}";
},
{
name = top;
position = "{480, 1536}";
},
{
name = topright;
position = "{940, 1536}";
}
);
layerId = "849A9C4C-BF7C-40C5-8614-1FD725A2A379";
paths = (
{
closed = 1;
nodes = (
"915 0 LINE",
"946 240 LINE",
"443 240 LINE",
"443 1536 LINE",
"144 1512 LINE",
"144 0 LINE"
);
}
);
width = 960;
}
);
unicode = 004C;
},
{
glyphname = Lslash;
lastChange = "2016-07-01 10:56:26 +0000";
layers = (
{
layerId = "849A9C4C-BF7C-40C5-8614-1FD725A2A379";
paths = (
{
closed = 1;
nodes = (
"927 0 LINE",
"975 240 LINE",
"455 240 LINE",
"455 737 LINE",
"670 768 LINE",
"670 1006 LINE",
"455 975 LINE",
"455 1536 LINE",
"156 1512 LINE",
"156 932 LINE",
"-2 910 LINE",
"-2 672 LINE",
"156 694 LINE",
"156 0 LINE"
);
}
);
width = 985;
}
);
unicode = 0141;
},
{
glyphname = M;
lastChange = "2016-07-01 10:56:26 +0000";
layers = (
{
anchors = (
{
name = bottom;
position = "{813, 0}";
},
{
name = top;
position = "{813, 1536}";
}
);
layerId = "849A9C4C-BF7C-40C5-8614-1FD725A2A379";
paths = (
{
closed = 1;
nodes = (
"1482 12 LINE",
"1482 1524 LINE",
"1081 1500 LINE",
"837 584 LINE",
"583 1534 LINE",
"144 1522 LINE",
"144 0 LINE",
"392 12 LINE",
"392 1144 LINE",
"700 0 LINE",
"885 0 LINE",
"1172 1140 LINE",
"1172 -12 LINE"
);
}
);
width = 1626;
}
);
unicode = 004D;
},
{
glyphname = N;
lastChange = "2016-07-01 10:56:26 +0000";
layers = (
{
anchors = (
{
name = bottom;
position = "{626, 0}";
},
{
name = top;
position = "{626, 1536}";
}
);
layerId = "849A9C4C-BF7C-40C5-8614-1FD725A2A379";
paths = (
{
closed = 1;
nodes = (
"1107 12 LINE",
"1107 1536 LINE",
"853 1512 LINE",
"853 622 LINE",
"457 1536 LINE",
"144 1524 LINE",
"144 0 LINE",
"412 12 LINE",
"412 948 LINE",
"861 -12 LINE"
);
}
);
width = 1251;
}
);
unicode = 004E;
},
{
glyphname = Eng;
lastChange = "2016-07-01 10:56:26 +0000";
layers = (
{
layerId = "849A9C4C-BF7C-40C5-8614-1FD725A2A379";
paths = (
{
closed = 1;
nodes = (
"1033 -317 OFFCURVE",
"1104 -149 OFFCURVE",
"1104 95 CURVE SMOOTH",
"1104 1536 LINE",
"850 1512 LINE",
"850 722 LINE",
"454 1536 LINE",
"141 1524 LINE",
"141 0 LINE",
"409 12 LINE",
"409 998 LINE",
"850 143 LINE",
"850 120 LINE SMOOTH",
"850 12 OFFCURVE",
"850 -98 OFFCURVE",
"708 -98 CURVE SMOOTH",
"685 -98 OFFCURVE",
"660 -95 OFFCURVE",
"628 -84 CURVE",
"628 -287 LINE",
"702 -307 OFFCURVE",
"766 -317 OFFCURVE",
"820 -317 CURVE SMOOTH"
);
}
);
width = 1245;
}
);
unicode = 014A;
},
{
glyphname = O;
lastChange = "2016-07-08 21:55:55 +0000";
layers = (
{
anchors = (
{
name = bottom;
position = "{563, 0}";
},
{
name = center;
position = "{563, 768}";
},
{
name = ogonek;
position = "{912, 10}";
},
{
name = top;
position = "{563, 1536}";
},
{
name = topleft;
position = "{20, 1536}";
},
{
name = topright;
position = "{1105, 1536}";
}
);
layerId = "849A9C4C-BF7C-40C5-8614-1FD725A2A379";
paths = (
{
closed = 1;
nodes = (
"949 -28 OFFCURVE",
"1039 394 OFFCURVE",
"1039 784 CURVE SMOOTH",
"1039 1275 OFFCURVE",
"896 1564 OFFCURVE",
"561 1564 CURVE SMOOTH",
"214 1564 OFFCURVE",
"86 1255 OFFCURVE",
"86 777 CURVE SMOOTH",
"86 369 OFFCURVE",
"179 -28 OFFCURVE",
"558 -28 CURVE SMOOTH"
);
},
{
closed = 1;
nodes = (
"404 212 OFFCURVE",
"385 457 OFFCURVE",
"385 788 CURVE SMOOTH",
"385 1003 OFFCURVE",
"393 1324 OFFCURVE",
"562 1324 CURVE SMOOTH",
"730 1324 OFFCURVE",
"739 1004 OFFCURVE",
"739 787 CURVE SMOOTH",
"739 455 OFFCURVE",
"718 212 OFFCURVE",
"561 212 CURVE SMOOTH"
);
}
);
width = 1125;
}
);
unicode = 004F;
},
{
glyphname = Oslash;
lastChange = "2016-07-01 10:56:26 +0000";
layers = (
{
layerId = "849A9C4C-BF7C-40C5-8614-1FD725A2A379";
paths = (
{
closed = 1;
nodes = (
"956 -32 OFFCURVE",
"1040 389 OFFCURVE",
"1040 820 CURVE SMOOTH",
"1040 951 OFFCURVE",
"1027 1068 OFFCURVE",
"1002 1171 CURVE",
"1130 1327 LINE",
"1035 1419 LINE",
"951 1317 LINE",
"875 1476 OFFCURVE",
"747 1568 OFFCURVE",
"562 1568 CURVE SMOOTH",
"230 1568 OFFCURVE",
"87 1271 OFFCURVE",
"87 820 CURVE SMOOTH",
"87 645 OFFCURVE",
"100 478 OFFCURVE",
"141 334 CURVE",
"29 198 LINE",
"124 106 LINE",
"196 193 LINE",
"269 56 OFFCURVE",
"380 -32 OFFCURVE",
"562 -32 CURVE SMOOTH"
);
},
{
closed = 1;
nodes = (
"467 223 OFFCURVE",
"423 303 OFFCURVE",
"403 444 CURVE",
"740 853 LINE",
"740 820 LINE SMOOTH",
"740 452 OFFCURVE",
"723 223 OFFCURVE",
"562 223 CURVE SMOOTH"
);
},
{
closed = 1;
nodes = (
"385 691 OFFCURVE",
"386 752 OFFCURVE",
"386 820 CURVE SMOOTH",
"386 1011 OFFCURVE",
"398 1329 OFFCURVE",
"562 1329 CURVE SMOOTH",
"669 1329 OFFCURVE",
"713 1194 OFFCURVE",
"729 1048 CURVE",
"388 634 LINE"
);
}
);
width = 1129;
}
);
unicode = 00D8;
},
{
glyphname = OE;
lastChange = "2016-07-01 10:56:26 +0000";
layers = (
{
layerId = "849A9C4C-BF7C-40C5-8614-1FD725A2A379";
paths = (
{
closed = 1;
nodes = (
"653 -27 OFFCURVE",
"719 19 OFFCURVE",
"768 96 CURVE",
"768 0 LINE",
"1558 0 LINE",
"1558 240 LINE",
"1068 240 LINE",
"1068 672 LINE",
"1367 672 LINE",
"1367 930 LINE",
"1068 930 LINE",
"1068 1296 LINE",
"1542 1296 LINE",
"1542 1536 LINE",
"768 1536 LINE",
"768 1424 LINE",
"716 1503 OFFCURVE",
"649 1546 OFFCURVE",
"561 1546 CURVE SMOOTH",
"229 1546 OFFCURVE",
"86 1247 OFFCURVE",
"86 810 CURVE SMOOTH",
"86 384 OFFCURVE",
"168 -27 OFFCURVE",
"561 -27 CURVE SMOOTH"
);
},
{
closed = 1;
nodes = (
"401 228 OFFCURVE",
"385 449 OFFCURVE",
"385 810 CURVE SMOOTH",
"385 993 OFFCURVE",
"397 1307 OFFCURVE",
"561 1307 CURVE SMOOTH",
"730 1307 OFFCURVE",
"768 1067 OFFCURVE",
"768 884 CURVE SMOOTH",
"768 681 LINE SMOOTH",
"768 397 OFFCURVE",
"725 228 OFFCURVE",
"561 228 CURVE SMOOTH"
);
}
);
width = 1617;
}
);
unicode = 0152;
},
{
glyphname = P;
lastChange = "2016-07-01 10:56:26 +0000";
layers = (
{
anchors = (
{
name = bottom;
position = "{546, 0}";
},
{
name = top;
position = "{546, 1536}";
}
);
layerId = "849A9C4C-BF7C-40C5-8614-1FD725A2A379";
paths = (
{
closed = 1;
nodes = (
"444 12 LINE",
"444 604 LINE",
"717 604 OFFCURVE",
"1052 644 OFFCURVE",
"1052 1075 CURVE SMOOTH",
"1052 1552 OFFCURVE",
"647 1536 OFFCURVE",
"336 1536 CURVE SMOOTH",
"144 1536 LINE",
"144 -12 LINE"
);
},
{
closed = 1;
nodes = (
"446 1296 LINE",
"489 1296 LINE SMOOTH",
"657 1296 OFFCURVE",
"753 1261 OFFCURVE",
"753 1077 CURVE SMOOTH",
"753 889 OFFCURVE",
"636 847 OFFCURVE",
"497 847 CURVE SMOOTH",
"446 847 LINE"
);
}
);
width = 1092;
}
);
unicode = 0050;
},
{
glyphname = Thorn;
lastChange = "2016-07-01 10:56:26 +0000";
layers = (
{
layerId = "849A9C4C-BF7C-40C5-8614-1FD725A2A379";
paths = (
{
closed = 1;
nodes = (
"440 -68 LINE",
"440 265 LINE",
"713 265 OFFCURVE",
"1048 304 OFFCURVE",
"1048 716 CURVE SMOOTH",
"1048 1129 OFFCURVE",
"729 1163 OFFCURVE",
"442 1167 CURVE",
"442 1536 LINE",
"140 1536 LINE",
"140 -92 LINE"
);
},
{
closed = 1;
nodes = (
"442 937 LINE",
"485 937 LINE SMOOTH",
"653 937 OFFCURVE",
"749 902 OFFCURVE",
"749 718 CURVE SMOOTH",
"749 530 OFFCURVE",
"632 488 OFFCURVE",
"493 488 CURVE SMOOTH",
"442 488 LINE"
);
}
);
width = 1082;
}
);
unicode = 00DE;
},
{
glyphname = Q;
lastChange = "2016-07-01 10:56:26 +0000";
layers = (
{
anchors = (
{
name = bottom;
position = "{563, 0}";
},
{
name = top;
position = "{563, 1536}";
}
);
components = (
{
name = O;
}
);
layerId = "849A9C4C-BF7C-40C5-8614-1FD725A2A379";
paths = (
{
closed = 1;
nodes = (
"970 -241 LINE",
"717 136 LINE",
"539 -14 LINE",
"657 -182 OFFCURVE",
"786 -363 OFFCURVE",
"786 -363 CURVE"
);
}
);
width = 1125;
}
);
unicode = 0051;
},
{
glyphname = R;
lastChange = "2016-07-01 10:56:26 +0000";
layers = (
{
anchors = (
{
name = bottom;
position = "{579, 0}";
},
{
name = top;
position = "{579, 1536}";
}
);
layerId = "849A9C4C-BF7C-40C5-8614-1FD725A2A379";
paths = (
{
closed = 1;
nodes = (
"1129 53 LINE",
"990 384 LINE SMOOTH",
"921 549 OFFCURVE",
"852 717 OFFCURVE",
"852 719 CURVE",
"983 794 OFFCURVE",
"1072 907 OFFCURVE",
"1072 1108 CURVE SMOOTH",
"1072 1408 OFFCURVE",
"845 1536 OFFCURVE",
"508 1536 CURVE",
"144 1524 LINE",
"144 -12 LINE",
"443 12 LINE",
"443 673 LINE",
"560 673 LINE",
"834 -27 LINE"
);
},
{
closed = 1;
nodes = (
"443 1296 LINE",
"583 1296 LINE SMOOTH",
"690 1296 OFFCURVE",
"772 1249 OFFCURVE",
"772 1105 CURVE SMOOTH",
"772 925 OFFCURVE",
"665 895 OFFCURVE",
"545 895 CURVE SMOOTH",
"443 895 LINE"
);
}
);
width = 1158;
}
);
unicode = 0052;
},
{
glyphname = S;
lastChange = "2016-07-01 10:56:26 +0000";
layers = (
{
anchors = (
{
name = bottom;
position = "{546, 0}";
},
{
name = top;
position = "{546, 1536}";
}
);
layerId = "849A9C4C-BF7C-40C5-8614-1FD725A2A379";
paths = (
{
closed = 1;
nodes = (
"825 -28 OFFCURVE",
"1038 166 OFFCURVE",
"1038 463 CURVE",
"1033 573 OFFCURVE",
"986 739 OFFCURVE",
"749 873 CURVE",
"501 1018 LINE SMOOTH",
"455 1045 OFFCURVE",
"407 1100 OFFCURVE",
"407 1169 CURVE SMOOTH",
"407 1254 OFFCURVE",
"452 1324 OFFCURVE",
"546 1324 CURVE SMOOTH",
"666 1324 OFFCURVE",
"691 1242 OFFCURVE",
"739 1141 CURVE",
"993 1256 LINE",
"922 1460 OFFCURVE",
"770 1564 OFFCURVE",
"562 1564 CURVE SMOOTH",
"290 1564 OFFCURVE",
"85 1380 OFFCURVE",
"85 1108 CURVE SMOOTH",
"85 936 OFFCURVE",
"193 801 OFFCURVE",
"341 716 CURVE",
"610 557 LINE",
"667 520 OFFCURVE",
"712 457 OFFCURVE",
"712 376 CURVE SMOOTH",
"712 296 OFFCURVE",
"647 212 OFFCURVE",
"576 212 CURVE SMOOTH",
"433 212 OFFCURVE",
"361 374 OFFCURVE",
"302 471 CURVE",
"48 352 LINE",
"123 132 OFFCURVE",
"291 -28 OFFCURVE",
"548 -28 CURVE SMOOTH"
);
}
);
width = 1091;
}
);
unicode = 0053;
},
{
glyphname = Germandbls;
lastChange = "2016-07-29 09:16:56 +0000";
layers = (
{
background = {
components = (
{
name = germandbls;
transform = "{1, 0, 0, 1, 20, 0}";
}
);
};
layerId = "849A9C4C-BF7C-40C5-8614-1FD725A2A379";
paths = (
{
closed = 1;
nodes = (
"414 0 LINE",
"414 1111 LINE SMOOTH",
"414 1295 OFFCURVE",
"503 1354 OFFCURVE",
"603 1354 CURVE SMOOTH",
"861 1354 LINE",
"833 1387 LINE",
"611 910 LINE",
"817 750 LINE",
"1121 1375 LINE",
"1121 1568 LINE",
"591 1568 LINE SMOOTH",
"430 1568 OFFCURVE",
"124 1516 OFFCURVE",
"124 1056 CURVE SMOOTH",
"124 -25 LINE"
);
},
{
closed = 1;
nodes = (
"884 14 OFFCURVE",
"1207 113 OFFCURVE",
"1207 469 CURVE SMOOTH",
"1207 716 OFFCURVE",
"1052 814 OFFCURVE",
"873 870 CURVE",
"611 910 LINE",
"637 742 LINE",
"815 729 OFFCURVE",
"916 582 OFFCURVE",
"916 465 CURVE SMOOTH",
"916 342 OFFCURVE",
"804 211 OFFCURVE",
"540 211 CURVE",
"540 2 LINE"
);
}
);
width = 1250;
}
);
unicode = 1E9E;
},
{
glyphname = Schwa;
lastChange = "2016-07-01 10:56:26 +0000";
layers = (
{
layerId = "849A9C4C-BF7C-40C5-8614-1FD725A2A379";
paths = (
{
closed = 1;
nodes = (
"933 -32 OFFCURVE",
"1023 389 OFFCURVE",
"1023 785 CURVE SMOOTH",
"1023 1286 OFFCURVE",
"879 1568 OFFCURVE",
"548 1568 CURVE SMOOTH",
"292 1568 OFFCURVE",
"151 1400 OFFCURVE",
"88 1141 CURVE",
"365 1044 LINE",
"386 1196 OFFCURVE",
"437 1329 OFFCURVE",
"545 1329 CURVE SMOOTH",
"711 1329 OFFCURVE",
"723 1012 OFFCURVE",
"723 816 CURVE",
"70 816 LINE",
"70 391 OFFCURVE",
"152 -32 OFFCURVE",
"543 -32 CURVE SMOOTH"
);
},
{
closed = 1;
nodes = (
"419 223 OFFCURVE",
"384 363 OFFCURVE",
"373 595 CURVE",
"719 595 LINE",
"708 360 OFFCURVE",
"670 223 OFFCURVE",
"545 223 CURVE SMOOTH"
);
}
);
width = 1109;
}
);
unicode = 018F;
},
{
glyphname = T;
lastChange = "2016-07-01 10:56:26 +0000";
layers = (
{
anchors = (
{
name = bottom;
position = "{489, 0}";
},
{
name = center;
position = "{489, 768}";
},
{
name = top;
position = "{489, 1536}";
}
);
layerId = "849A9C4C-BF7C-40C5-8614-1FD725A2A379";
paths = (
{
closed = 1;
nodes = (
"641 12 LINE",
"641 1296 LINE",
"928 1296 LINE",
"952 1536 LINE",
"52 1536 LINE",
"28 1296 LINE",
"341 1296 LINE",
"341 -12 LINE"
);
}
);
width = 977;
}
);
unicode = 0054;
},
{
glyphname = Tbar;
lastChange = "2016-07-01 10:56:26 +0000";
layers = (
{
layerId = "849A9C4C-BF7C-40C5-8614-1FD725A2A379";
paths = (
{
closed = 1;
nodes = (
"641 12 LINE",
"641 1296 LINE",
"928 1296 LINE",
"952 1536 LINE",
"52 1536 LINE",
"28 1296 LINE",
"341 1296 LINE",
"341 -12 LINE"
);
},
{
closed = 1;
nodes = (
"770 612 LINE",
"770 804 LINE",
"194 804 LINE",
"194 612 LINE"
);
}
);
width = 977;
}
);
unicode = 0166;
},
{
glyphname = U;
lastChange = "2016-07-08 21:56:24 +0000";
layers = (
{
anchors = (
{
name = bottom;
position = "{582, 0}";
},
{
name = ogonek;
position = "{927, 10}";
},
{
name = top;
position = "{582, 1536}";
},
{
name = topright;
position = "{1143, 1536}";
}
);
layerId = "849A9C4C-BF7C-40C5-8614-1FD725A2A379";
paths = (
{
closed = 1;
nodes = (
"1006 -28 OFFCURVE",
"1031 365 OFFCURVE",
"1031 541 CURVE SMOOTH",
"1031 1536 LINE",
"756 1512 LINE",
"756 485 LINE SMOOTH",
"756 365 OFFCURVE",
"755 212 OFFCURVE",
"600 212 CURVE SMOOTH",
"436 212 OFFCURVE",
"432 360 OFFCURVE",
"432 482 CURVE SMOOTH",
"432 1536 LINE",
"132 1524 LINE",
"132 506 LINE SMOOTH",
"132 204 OFFCURVE",
"268 -28 OFFCURVE",
"589 -28 CURVE SMOOTH"
);
}
);
width = 1163;
}
);
unicode = 0055;
},
{
glyphname = V;
lastChange = "2016-07-01 10:56:26 +0000";
layers = (
{
anchors = (
{
name = bottom;
position = "{546, 0}";
},
{
name = top;
position = "{546, 1536}";
}
);
layerId = "849A9C4C-BF7C-40C5-8614-1FD725A2A379";
paths = (
{
closed = 1;
nodes = (
"708 0 LINE",
"1078 1536 LINE",
"789 1524 LINE",
"576 476 LINE",
"372 1536 LINE",
"17 1524 LINE",
"379 0 LINE"
);
}
);
width = 1092;
}
);
unicode = 0056;
},
{
glyphname = W;
lastChange = "2016-07-01 10:56:26 +0000";
layers = (
{
anchors = (
{
name = bottom;
position = "{793, 0}";
},
{
name = top;
position = "{793, 1536}";
}
);
layerId = "849A9C4C-BF7C-40C5-8614-1FD725A2A379";
paths = (
{
closed = 1;
nodes = (
"614 0 LINE",
"780 938 LINE",
"943 0 LINE",
"1240 0 LINE",
"1568 1536 LINE",
"1293 1524 LINE",
"1097 606 LINE",
"935 1536 LINE",
"690 1524 LINE",
"517 616 LINE",
"355 1536 LINE",
"27 1524 LINE",
"339 0 LINE"
);
}
);
width = 1586;
}
);
unicode = 0057;
},
{
glyphname = X;
lastChange = "2016-07-01 10:56:26 +0000";
layers = (
{
anchors = (
{
name = bottom;
position = "{532, 0}";
},
{
name = top;
position = "{532, 1536}";
}
);
layerId = "849A9C4C-BF7C-40C5-8614-1FD725A2A379";
paths = (
{
closed = 1;
nodes = (
"285 0 LINE",
"502 481 LINE",
"719 0 LINE",
"1076 0 LINE",
"677 838 LINE",
"1023 1536 LINE",
"737 1536 LINE",
"553 1137 LINE",
"375 1536 LINE",
"16 1536 LINE",
"382 780 LINE",
"1 0 LINE"
);
}
);
width = 1064;
}
);
unicode = 0058;
},
{
glyphname = Y;
lastChange = "2016-07-01 10:56:26 +0000";
layers = (
{
anchors = (
{
name = bottom;
position = "{514, 0}";
},
{
name = top;
position = "{514, 1536}";
},
{
name = topleft;
position = "{20, 1536}";
}
);
layerId = "849A9C4C-BF7C-40C5-8614-1FD725A2A379";
paths = (
{
closed = 1;
nodes = (
"670 12 LINE",
"670 643 LINE",
"1025 1536 LINE",
"766 1536 LINE",
"538 896 LINE",
"327 1536 LINE",
"-3 1536 LINE",
"367 608 LINE",
"367 -12 LINE"
);
}
);
width = 1027;
}
);
unicode = 0059;
},
{
glyphname = Z;
lastChange = "2016-07-01 10:56:26 +0000";
layers = (
{
anchors = (
{
name = bottom;
position = "{483, 0}";
},
{
name = top;
position = "{483, 1536}";
}
);
layerId = "849A9C4C-BF7C-40C5-8614-1FD725A2A379";
paths = (
{
closed = 1;
nodes = (
"870 0 LINE",
"918 240 LINE",
"422 240 LINE",
"904 1337 LINE",
"904 1536 LINE",
"133 1536 LINE",
"109 1296 LINE",
"554 1296 LINE",
"62 190 LINE",
"62 0 LINE"
);
}
);
width = 966;
}
);
unicode = 005A;
},
{
glyphname = a;
lastChange = "2016-07-08 21:51:12 +0000";
layers = (
{
anchors = (
{
name = bottom;
position = "{482, 0}";
},
{
name = ogonek;
position = "{988, 10}";
},
{
name = top;
position = "{482, 1152}";
}
);
layerId = "849A9C4C-BF7C-40C5-8614-1FD725A2A379";
paths = (
{
closed = 1;
nodes = (
"417 -27 OFFCURVE",
"523 45 OFFCURVE",
"570 129 CURVE",
"602 -12 LINE",
"882 12 LINE",
"863 84 OFFCURVE",
"851 142 OFFCURVE",
"851 217 CURVE SMOOTH",
"851 813 LINE SMOOTH",
"851 1010 OFFCURVE",
"740 1167 OFFCURVE",
"479 1167 CURVE SMOOTH",
"313 1167 OFFCURVE",
"125 1104 OFFCURVE",
"96 875 CURVE",
"376 826 LINE",
"384 890 OFFCURVE",
"412 956 OFFCURVE",
"479 956 CURVE SMOOTH",
"563 956 OFFCURVE",
"563 852 OFFCURVE",
"563 740 CURVE",
"362 727 OFFCURVE",
"56 657 OFFCURVE",
"56 322 CURVE SMOOTH",
"56 125 OFFCURVE",
"162 -27 OFFCURVE",
"313 -27 CURVE SMOOTH"
);
},
{
closed = 1;
nodes = (
"373 179 OFFCURVE",
"338 240 OFFCURVE",
"338 339 CURVE SMOOTH",
"338 504 OFFCURVE",
"435 568 OFFCURVE",
"563 568 CURVE",
"563 247 LINE",
"526 208 OFFCURVE",
"497 179 OFFCURVE",
"446 179 CURVE SMOOTH"
);
}
);
width = 964;
}
);
unicode = 0061;
},
{
glyphname = ae;
lastChange = "2016-07-01 10:56:26 +0000";
layers = (
{
layerId = "849A9C4C-BF7C-40C5-8614-1FD725A2A379";
paths = (
{
closed = 1;
nodes = (
"490 -27 OFFCURVE",
"648 14 OFFCURVE",
"713 144 CURVE",
"782 36 OFFCURVE",
"860 -27 OFFCURVE",
"994 -27 CURVE SMOOTH",
"1185 -27 OFFCURVE",
"1315 102 OFFCURVE",
"1367 290 CURVE",
"1149 373 LINE",
"1137 349 OFFCURVE",
"1079 185 OFFCURVE",
"988 185 CURVE SMOOTH",
"885 185 OFFCURVE",
"849 391 OFFCURVE",
"849 536 CURVE",
"1399 536 LINE",
"1399 554 OFFCURVE",
"1399 571 OFFCURVE",
"1399 588 CURVE SMOOTH",
"1399 954 OFFCURVE",
"1260 1167 OFFCURVE",
"1002 1167 CURVE SMOOTH",
"880 1167 OFFCURVE",
"799 1119 OFFCURVE",
"723 1032 CURVE",
"661 1122 OFFCURVE",
"591 1167 OFFCURVE",
"466 1167 CURVE SMOOTH",
"316 1167 OFFCURVE",
"121 1102 OFFCURVE",
"94 875 CURVE",
"374 826 LINE",
"382 888 OFFCURVE",
"408 956 OFFCURVE",
"478 956 CURVE SMOOTH",
"554 956 OFFCURVE",
"561 874 OFFCURVE",
"561 740 CURVE",
"362 728 OFFCURVE",
"54 655 OFFCURVE",
"54 326 CURVE SMOOTH",
"54 123 OFFCURVE",
"171 -27 OFFCURVE",
"380 -27 CURVE SMOOTH"
);
},
{
closed = 1;
nodes = (
"374 179 OFFCURVE",
"336 240 OFFCURVE",
"336 341 CURVE SMOOTH",
"336 503 OFFCURVE",
"433 568 OFFCURVE",
"561 568 CURVE",
"561 382 LINE SMOOTH",
"561 321 OFFCURVE",
"537 179 OFFCURVE",
"439 179 CURVE SMOOTH"
);
},
{
closed = 1;
nodes = (
"853 860 OFFCURVE",
"913 969 OFFCURVE",
"997 969 CURVE SMOOTH",
"1083 969 OFFCURVE",
"1124 854 OFFCURVE",
"1124 702 CURVE",
"849 702 LINE"
);
}
);
width = 1457;
}
);
unicode = 00E6;
},
{
glyphname = b;
lastChange = "2016-07-01 10:56:26 +0000";
layers = (
{
anchors = (
{
name = bottom;
position = "{530, 0}";
},
{
name = top;
position = "{530, 1152}";
}
);
layerId = "849A9C4C-BF7C-40C5-8614-1FD725A2A379";
paths = (
{
closed = 1;
nodes = (
"870 -27 OFFCURVE",
"990 160 OFFCURVE",
"990 576 CURVE SMOOTH",
"990 1013 OFFCURVE",
"869 1167 OFFCURVE",
"704 1167 CURVE SMOOTH",
"585 1167 OFFCURVE",
"480 1101 OFFCURVE",
"412 1005 CURVE",
"412 1536 LINE",
"124 1500 LINE",
"124 12 LINE",
"342 -12 LINE",
"412 144 LINE",
"436.283 57.66 OFFCURVE",
"490.579 -27 OFFCURVE",
"659 -27 CURVE SMOOTH"
);
},
{
closed = 1;
nodes = (
"483 179 OFFCURVE",
"412 240 OFFCURVE",
"412 480 CURVE SMOOTH",
"412 843 LINE",
"438 870 OFFCURVE",
"516 922 OFFCURVE",
"572 922 CURVE SMOOTH",
"677 922 OFFCURVE",
"702 837 OFFCURVE",
"702 576 CURVE SMOOTH",
"702 363 OFFCURVE",
"693 179 OFFCURVE",
"552 179 CURVE SMOOTH"
);
}
);
width = 1060;
}
);
unicode = 0062;
},
{
glyphname = c;
lastChange = "2016-07-01 10:56:26 +0000";
layers = (
{
anchors = (
{
name = bottom;
position = "{456, 0}";
},
{
name = top;
position = "{456, 1152}";
}
);
layerId = "849A9C4C-BF7C-40C5-8614-1FD725A2A379";
paths = (
{
closed = 1;
nodes = (
"741 -27 OFFCURVE",
"817 152 OFFCURVE",
"849 405 CURVE",
"609 432 LINE",
"606.335 325.382 OFFCURVE",
"583.624 216 OFFCURVE",
"494 216 CURVE SMOOTH",
"359 216 OFFCURVE",
"359 480 OFFCURVE",
"359 576 CURVE SMOOTH",
"359 672 OFFCURVE",
"358 939 OFFCURVE",
"485 939 CURVE SMOOTH",
"567 939 OFFCURVE",
"575 808 OFFCURVE",
"583 742 CURVE",
"856 754 LINE",
"848 997 OFFCURVE",
"700 1167 OFFCURVE",
"488 1167 CURVE SMOOTH",
"197 1167 OFFCURVE",
"70 861 OFFCURVE",
"70 566 CURVE SMOOTH",
"70 261 OFFCURVE",
"207 -27 OFFCURVE",
"482 -27 CURVE SMOOTH"
);
}
);
width = 912;
}
);
unicode = 0063;
},
{
glyphname = d;
lastChange = "2016-07-01 10:56:26 +0000";
layers = (
{
anchors = (
{
name = bottom;
position = "{531, 0}";
},
{
name = center;
position = "{531, 576}";
},
{
name = top;
position = "{531, 1152}";
},
{
name = topright;
position = "{1041, 1152}";
}
);
layerId = "849A9C4C-BF7C-40C5-8614-1FD725A2A379";
paths = (
{
closed = 1;
nodes = (
"573.421 -27 OFFCURVE",
"627.717 57.66 OFFCURVE",
"652 144 CURVE",
"722 -12 LINE",
"940 12 LINE",
"940 1536 LINE",
"652 1500 LINE",
"652 1000 LINE",
"610 1094 OFFCURVE",
"513 1167 OFFCURVE",
"411 1167 CURVE SMOOTH",
"184 1167 OFFCURVE",
"74 1001 OFFCURVE",
"74 576 CURVE SMOOTH",
"74 160 OFFCURVE",
"194 -27 OFFCURVE",
"405 -27 CURVE SMOOTH"
);
},
{
closed = 1;
nodes = (
"371 179 OFFCURVE",
"362 363 OFFCURVE",
"362 576 CURVE SMOOTH",
"362 788 OFFCURVE",
"371 956 OFFCURVE",
"512 956 CURVE SMOOTH",
"566.587 956 OFFCURVE",
"615 921 OFFCURVE",
"652 864 CURVE",
"652 480 LINE SMOOTH",
"652 240 OFFCURVE",
"581 179 OFFCURVE",
"512 179 CURVE SMOOTH"
);
}
);
width = 1061;
}
);
unicode = 0064;
},
{
glyphname = eth;
lastChange = "2016-07-01 10:56:26 +0000";
layers = (
{
background = {
paths = (
{
closed = 1;
nodes = (
"846 -32 OFFCURVE",
"916 397 OFFCURVE",
"916 774 CURVE SMOOTH",
"916 1108 OFFCURVE",
"787 1568 OFFCURVE",
"448 1568 CURVE SMOOTH",
"268 1568 OFFCURVE",
"169 1541 OFFCURVE",
"-8 1393 CURVE",
"100 1207 LINE",
"156 1258 OFFCURVE",
"290 1346 OFFCURVE",
"397 1346 CURVE SMOOTH",
"607 1346 OFFCURVE",
"619 1024 OFFCURVE",
"623 856 CURVE",
"560 903 OFFCURVE",
"470 936 OFFCURVE",
"387 936 CURVE SMOOTH",
"175 936 OFFCURVE",
"43 702 OFFCURVE",
"43 452 CURVE SMOOTH",
"43 206 OFFCURVE",
"217 -32 OFFCURVE",
"471 -32 CURVE SMOOTH"
);
},
{
closed = 1;
nodes = (
"361 230 OFFCURVE",
"332 359 OFFCURVE",
"332 447 CURVE SMOOTH",
"332 565 OFFCURVE",
"371 692 OFFCURVE",
"488 692 CURVE SMOOTH",
"524 692 OFFCURVE",
"557 681 OFFCURVE",
"581 670 CURVE",
"621 649 LINE",
"621 644 OFFCURVE",
"621 638 OFFCURVE",
"622 633 CURVE",
"622 624 OFFCURVE",
"623 615 OFFCURVE",
"623 608 CURVE SMOOTH",
"623 482 OFFCURVE",
"633 230 OFFCURVE",
"484 230 CURVE SMOOTH"
);
},
{
closed = 1;
nodes = (
"1007 1210 LINE",
"943 1391 LINE",
"329 1202 LINE",
"393 1021 LINE"
);
}
);
};
layerId = "849A9C4C-BF7C-40C5-8614-1FD725A2A379";
paths = (
{
closed = 1;
nodes = (
"846 -32 OFFCURVE",
"916 397 OFFCURVE",
"916 774 CURVE SMOOTH",
"916 1108 OFFCURVE",
"787 1568 OFFCURVE",
"448 1568 CURVE SMOOTH",
"268 1568 OFFCURVE",
"169 1541 OFFCURVE",
"-8 1393 CURVE",
"100 1207 LINE",
"156 1258 OFFCURVE",
"290 1346 OFFCURVE",
"397 1346 CURVE SMOOTH",
"607 1346 OFFCURVE",
"619 1024 OFFCURVE",
"623 856 CURVE",
"560 903 OFFCURVE",
"470 936 OFFCURVE",
"387 936 CURVE SMOOTH",
"175 936 OFFCURVE",
"43 702 OFFCURVE",
"43 452 CURVE SMOOTH",
"43 206 OFFCURVE",
"217 -32 OFFCURVE",
"471 -32 CURVE SMOOTH"
);
},
{
closed = 1;
nodes = (
"361 230 OFFCURVE",
"332 359 OFFCURVE",
"332 447 CURVE SMOOTH",
"332 565 OFFCURVE",
"371 692 OFFCURVE",
"488 692 CURVE SMOOTH",
"524 692 OFFCURVE",
"557 681 OFFCURVE",
"581 670 CURVE",
"621 649 LINE",
"621 644 OFFCURVE",
"621 638 OFFCURVE",
"622 633 CURVE",
"622 624 OFFCURVE",
"623 615 OFFCURVE",
"623 608 CURVE SMOOTH",
"623 482 OFFCURVE",
"633 230 OFFCURVE",
"484 230 CURVE SMOOTH"
);
},
{
closed = 1;
nodes = (
"1007 1210 LINE",
"943 1391 LINE",
"329 1202 LINE",
"393 1021 LINE"
);
}
);
width = 1006;
}
);
unicode = 00F0;
},
{
glyphname = dcaron;
lastChange = "2016-07-01 10:56:26 +0000";
layers = (
{
layerId = "849A9C4C-BF7C-40C5-8614-1FD725A2A379";
paths = (
{
closed = 1;
nodes = (
"515 -27 OFFCURVE",
"577 15 OFFCURVE",
"612 58 CURVE SMOOTH",
"633 83 OFFCURVE",
"647 112 OFFCURVE",
"656 144 CURVE",
"726 -12 LINE",
"944 12 LINE",
"944 1536 LINE",
"656 1500 LINE",
"656 1000 LINE",
"631 1031 OFFCURVE",
"604 1058 OFFCURVE",
"575 1083 CURVE SMOOTH",
"527 1126 OFFCURVE",
"459 1167 OFFCURVE",
"395 1167 CURVE SMOOTH",
"168 1167 OFFCURVE",
"78 1001 OFFCURVE",
"78 576 CURVE SMOOTH",
"78 160 OFFCURVE",
"198 -27 OFFCURVE",
"409 -27 CURVE SMOOTH"
);
},
{
closed = 1;
nodes = (
"375 179 OFFCURVE",
"366 363 OFFCURVE",
"366 576 CURVE SMOOTH",
"366 788 OFFCURVE",
"375 956 OFFCURVE",
"516 956 CURVE SMOOTH",
"551 956 OFFCURVE",
"585 933 OFFCURVE",
"612 910 CURVE SMOOTH",
"627 897 OFFCURVE",
"642 881 OFFCURVE",
"656 864 CURVE",
"656 480 LINE SMOOTH",
"656 240 OFFCURVE",
"585 179 OFFCURVE",
"516 179 CURVE SMOOTH"
);
},
{
closed = 1;
nodes = (
"1177 963 OFFCURVE",
"1217 975 OFFCURVE",
"1252 996 CURVE SMOOTH",
"1312 1031 OFFCURVE",
"1372 1104 OFFCURVE",
"1372 1248 CURVE SMOOTH",
"1372 1536 LINE",
"1084 1536 LINE",
"1084 1236 LINE",
"1228 1248 LINE",
"1227 1230 OFFCURVE",
"1223 1214 OFFCURVE",
"1216 1200 CURVE SMOOTH",
"1204 1176 OFFCURVE",
"1180 1152 OFFCURVE",
"1132 1152 CURVE",
"1132 960 LINE"
);
}
);
width = 1315;
}
);
unicode = 010F;
},
{
glyphname = dcroat;
lastChange = "2016-07-01 10:56:26 +0000";
layers = (
{
layerId = "849A9C4C-BF7C-40C5-8614-1FD725A2A379";
paths = (
{
closed = 1;
nodes = (
"515 -27 OFFCURVE",
"577 15 OFFCURVE",
"612 58 CURVE SMOOTH",
"633 83 OFFCURVE",
"647 112 OFFCURVE",
"656 144 CURVE",
"726 -12 LINE",
"944 12 LINE",
"944 1536 LINE",
"656 1500 LINE",
"656 1000 LINE",
"631 1031 OFFCURVE",
"604 1058 OFFCURVE",
"575 1083 CURVE SMOOTH",
"527 1126 OFFCURVE",
"459 1167 OFFCURVE",
"395 1167 CURVE SMOOTH",
"168 1167 OFFCURVE",
"78 1001 OFFCURVE",
"78 576 CURVE SMOOTH",
"78 160 OFFCURVE",
"198 -27 OFFCURVE",
"409 -27 CURVE SMOOTH"
);
},
{
closed = 1;
nodes = (
"375 179 OFFCURVE",
"366 363 OFFCURVE",
"366 576 CURVE SMOOTH",
"366 788 OFFCURVE",
"375 956 OFFCURVE",
"516 956 CURVE SMOOTH",
"551 956 OFFCURVE",
"585 933 OFFCURVE",
"612 910 CURVE SMOOTH",
"627 897 OFFCURVE",
"642 881 OFFCURVE",
"656 864 CURVE",
"656 480 LINE SMOOTH",
"656 240 OFFCURVE",
"585 179 OFFCURVE",
"516 179 CURVE SMOOTH"
);
},
{
closed = 1;
nodes = (
"1081 1248 LINE",
"1081 1440 LINE",
"505 1440 LINE",
"505 1248 LINE"
);
}
);
width = 1067;
}
);
unicode = 0111;
},
{
glyphname = e;
lastChange = "2016-07-08 21:55:25 +0000";
layers = (
{
anchors = (
{
name = bottom;
position = "{483, 0}";
},
{
name = ogonek;
position = "{818, 10}";
},
{
name = top;
position = "{483, 1152}";
}
);
layerId = "849A9C4C-BF7C-40C5-8614-1FD725A2A379";
paths = (
{
closed = 1;
nodes = (
"702 -27 OFFCURVE",
"822 104 OFFCURVE",
"875 290 CURVE",
"657 373 LINE",
"649 357 OFFCURVE",
"587 185 OFFCURVE",
"497 185 CURVE SMOOTH",
"392 185 OFFCURVE",
"357 391 OFFCURVE",
"357 536 CURVE",
"904 536 LINE",
"904 540 OFFCURVE",
"915 547 OFFCURVE",
"915 570 CURVE SMOOTH",
"915 923 OFFCURVE",
"776 1167 OFFCURVE",
"502 1167 CURVE SMOOTH",
"214 1167 OFFCURVE",
"70 923 OFFCURVE",
"70 570 CURVE SMOOTH",
"70 220 OFFCURVE",
"211 -27 OFFCURVE",
"492 -27 CURVE SMOOTH"
);
},
{
closed = 1;
nodes = (
"357 854 OFFCURVE",
"427 969 OFFCURVE",
"497 969 CURVE SMOOTH",
"595 969 OFFCURVE",
"632 854 OFFCURVE",
"632 702 CURVE",
"357 702 LINE"
);
}
);
width = 965;
}
);
unicode = 0065;
},
{
glyphname = f;
lastChange = "2016-07-01 10:56:26 +0000";
layers = (
{
anchors = (
{
name = bottom;
position = "{347, 0}";
},
{
name = top;
position = "{347, 1152}";
}
);
layerId = "849A9C4C-BF7C-40C5-8614-1FD725A2A379";
paths = (
{
closed = 1;
nodes = (
"468 12 LINE",
"468 936 LINE",
"659 936 LINE",
"671 1152 LINE",
"468 1152 LINE",
"468 1173 LINE SMOOTH",
"468 1257 OFFCURVE",
"478 1344 OFFCURVE",
"598 1344 CURVE SMOOTH",
"661 1344 LINE",
"661 1516 LINE",
"628.586 1529.51 OFFCURVE",
"578.736 1546 OFFCURVE",
"466 1546 CURVE SMOOTH",
"188 1546 OFFCURVE",
"180 1360 OFFCURVE",
"180 1174 CURVE SMOOTH",
"180 1152 LINE",
"50 1152 LINE",
"38 936 LINE",
"180 936 LINE",
"180 -12 LINE"
);
}
);
width = 693;
}
);
unicode = 0066;
},
{
glyphname = g;
lastChange = "2016-07-01 10:56:26 +0000";
layers = (
{
anchors = (
{
name = bottom;
position = "{545, 0}";
},
{
name = top;
position = "{545, 1152}";
}
);
layerId = "849A9C4C-BF7C-40C5-8614-1FD725A2A379";
paths = (
{
closed = 1;
nodes = (
"789 -358 OFFCURVE",
"1042 -286 OFFCURVE",
"1042 -13 CURVE SMOOTH",
"1042 136 OFFCURVE",
"966 240 OFFCURVE",
"758 264 CURVE SMOOTH",
"431 302 LINE SMOOTH",
"391 307 OFFCURVE",
"359 335 OFFCURVE",
"359 374 CURVE SMOOTH",
"359 420 OFFCURVE",
"405 458 OFFCURVE",
"434 469 CURVE",
"460 469 OFFCURVE",
"510 465 OFFCURVE",
"555 465 CURVE SMOOTH",
"867 465 OFFCURVE",
"957 657 OFFCURVE",
"957 810 CURVE SMOOTH",
"957 875 OFFCURVE",
"941 920 OFFCURVE",
"913 991 CURVE",
"931 1000 OFFCURVE",
"974 1020 OFFCURVE",
"1095 1020 CURVE",
"1095 1211 LINE",
"951 1211 OFFCURVE",
"859 1120 OFFCURVE",
"816 1081 CURVE",
"761 1118 OFFCURVE",
"666 1167 OFFCURVE",
"529 1167 CURVE SMOOTH",
"319 1167 OFFCURVE",
"96 1051 OFFCURVE",
"96 809 CURVE SMOOTH",
"96 653 OFFCURVE",
"188 565 OFFCURVE",
"280 511 CURVE",
"172 459 OFFCURVE",
"79 375 OFFCURVE",
"79 261 CURVE SMOOTH",
"79 168 OFFCURVE",
"141 130 OFFCURVE",
"235 103 CURVE",
"138 66 OFFCURVE",
"33 -3 OFFCURVE",
"33 -117 CURVE SMOOTH",
"33 -264 OFFCURVE",
"207 -358 OFFCURVE",
"517 -358 CURVE SMOOTH"
);
},
{
closed = 1;
nodes = (
"369 -149 OFFCURVE",
"295 -107 OFFCURVE",
"295 -35 CURVE SMOOTH",
"295 21 OFFCURVE",
"339 66 OFFCURVE",
"386 80 CURVE",
"554 66 LINE SMOOTH",
"710 53 OFFCURVE",
"762 48 OFFCURVE",
"762 -22 CURVE SMOOTH",
"762 -101 OFFCURVE",
"697 -149 OFFCURVE",
"528 -149 CURVE SMOOTH"
);
},
{
closed = 1;
nodes = (
"414 628 OFFCURVE",
"390 748 OFFCURVE",
"390 816 CURVE SMOOTH",
"390 914 OFFCURVE",
"440 993 OFFCURVE",
"527 993 CURVE SMOOTH",
"596 993 OFFCURVE",
"658 943 OFFCURVE",
"658 813 CURVE SMOOTH",
"658 696 OFFCURVE",
"608 628 OFFCURVE",
"525 628 CURVE SMOOTH"
);
}
);
width = 1089;
}
);
unicode = 0067;
},
{
glyphname = gcommaaccent;
lastChange = "2016-07-01 10:56:26 +0000";
layers = (
{
background = {
paths = (
{
closed = 1;
nodes = (
"742 -358 OFFCURVE",
"1053 -282 OFFCURVE",
"1053 -20 CURVE SMOOTH",
"1053 72 OFFCURVE",
"1021 145 OFFCURVE",
"961 198 CURVE SMOOTH",
"902 251 OFFCURVE",
"818 273 OFFCURVE",
"714 281 CURVE SMOOTH",
"442 302 LINE",
"402 307 OFFCURVE",
"370 335 OFFCURVE",
"370 374 CURVE SMOOTH",
"370 410 OFFCURVE",
"375 433 OFFCURVE",
"386 442 CURVE SMOOTH",
"397 452 OFFCURVE",
"417 461 OFFCURVE",
"445 469 CURVE",
"473 469 OFFCURVE",
"513 465 OFFCURVE",
"565 465 CURVE",
"630 457 OFFCURVE",
"688 464 OFFCURVE",
"737 486 CURVE SMOOTH",
"787 509 OFFCURVE",
"829 538 OFFCURVE",
"862 573 CURVE SMOOTH",
"929 645 OFFCURVE",
"963 736 OFFCURVE",
"963 820 CURVE SMOOTH",
"963 855 OFFCURVE",
"952 896 OFFCURVE",
"941 931 CURVE SMOOTH",
"934 951 OFFCURVE",
"927 971 OFFCURVE",
"919 991 CURVE",
"924 994 OFFCURVE",
"930 996 OFFCURVE",
"937 999 CURVE SMOOTH",
"948 1003 OFFCURVE",
"960 1008 OFFCURVE",
"975 1008 CURVE SMOOTH",
"991 1008 OFFCURVE",
"1023 999 OFFCURVE",
"1050 988 CURVE SMOOTH",
"1101 969 LINE",
"1101 1211 LINE",
"1090 1213 LINE SMOOTH",
"1083 1214 OFFCURVE",
"1077 1215 OFFCURVE",
"1070 1215 CURVE SMOOTH",
"964 1215 OFFCURVE",
"862 1118 OFFCURVE",
"822 1081 CURVE",
"766 1118 OFFCURVE",
"678 1167 OFFCURVE",
"530 1167 CURVE SMOOTH",
"326 1167 OFFCURVE",
"107 1045 OFFCURVE",
"107 815 CURVE SMOOTH",
"107 711 OFFCURVE",
"154 637 OFFCURVE",
"199 586 CURVE",
"226 557 OFFCURVE",
"256 532 OFFCURVE",
"291 511 CURVE",
"250 491 OFFCURVE",
"214 468 OFFCURVE",
"182 441 CURVE SMOOTH",
"129 396 OFFCURVE",
"74 332 OFFCURVE",
"74 256 CURVE SMOOTH",
"74 200 OFFCURVE",
"117 161 OFFCURVE",
"160 137 CURVE SMOOTH",
"185 123 OFFCURVE",
"214 112 OFFCURVE",
"246 103 CURVE",
"208 88 OFFCURVE",
"174 70 OFFCURVE",
"145 48 CURVE SMOOTH",
"95 11 OFFCURVE",
"44 -46 OFFCURVE",
"44 -123 CURVE SMOOTH",
"44 -261 OFFCURVE",
"214 -358 OFFCURVE",
"526 -358 CURVE SMOOTH"
);
},
{
closed = 1;
nodes = (
"374 -145 OFFCURVE",
"306 -103 OFFCURVE",
"306 -36 CURVE SMOOTH",
"306 32 OFFCURVE",
"353 66 OFFCURVE",
"397 80 CURVE",
"565 80 LINE SMOOTH",
"625 80 OFFCURVE",
"773 71 OFFCURVE",
"773 -17 CURVE SMOOTH",
"773 -97 OFFCURVE",
"698 -145 OFFCURVE",
"561 -145 CURVE SMOOTH"
);
},
{
closed = 1;
nodes = (
"415 628 OFFCURVE",
"395 738 OFFCURVE",
"395 826 CURVE SMOOTH",
"395 902 OFFCURVE",
"436 993 OFFCURVE",
"528 993 CURVE SMOOTH",
"597 993 OFFCURVE",
"658 939 OFFCURVE",
"658 820 CURVE SMOOTH",
"658 696 OFFCURVE",
"609 628 OFFCURVE",
"530 628 CURVE SMOOTH"
);
},
{
closed = 1;
nodes = (
"751 1314 LINE",
"751 1632 LINE",
"558 1632 LINE",
"559 1650 OFFCURVE",
"565 1666 OFFCURVE",
"576 1680 CURVE SMOOTH",
"595 1704 OFFCURVE",
"630 1728 OFFCURVE",
"703 1728 CURVE",
"703 1920 LINE",
"648 1917 OFFCURVE",
"600 1905 OFFCURVE",
"558 1884 CURVE SMOOTH",
"486 1847 OFFCURVE",
"414 1777 OFFCURVE",
"414 1632 CURVE SMOOTH",
"414 1302 LINE"
);
}
);
};
components = (
{
name = g;
}
);
layerId = "849A9C4C-BF7C-40C5-8614-1FD725A2A379";
paths = (
{
closed = 1;
nodes = (
"751 1314 LINE",
"751 1632 LINE",
"558 1632 LINE",
"561 1681 OFFCURVE",
"604 1728 OFFCURVE",
"703 1728 CURVE",
"703 1920 LINE",
"564 1912 OFFCURVE",
"414 1839 OFFCURVE",
"414 1632 CURVE SMOOTH",
"414 1302 LINE"
);
}
);
width = 1109;
}
);
unicode = 0123;
},
{
glyphname = h;
lastChange = "2016-07-01 10:56:26 +0000";
layers = (
{
anchors = (
{
name = bottom;
position = "{552, 0}";
},
{
name = center;
position = "{552, 576}";
},
{
name = top;
position = "{572, 1536}";
}
);
layerId = "849A9C4C-BF7C-40C5-8614-1FD725A2A379";
paths = (
{
closed = 1;
nodes = (
"412 12 LINE",
"412 843 LINE",
"492 891 OFFCURVE",
"547 922 OFFCURVE",
"600 922 CURVE SMOOTH",
"657 922 OFFCURVE",
"700 878 OFFCURVE",
"700 773 CURVE SMOOTH",
"700 -12 LINE",
"988 12 LINE",
"988 876 LINE SMOOTH",
"988 1055 OFFCURVE",
"885 1167 OFFCURVE",
"742 1167 CURVE SMOOTH",
"643 1167 OFFCURVE",
"532 1117 OFFCURVE",
"412 1005 CURVE",
"412 1536 LINE",
"124 1500 LINE",
"124 -12 LINE"
);
}
);
width = 1104;
}
);
unicode = 0068;
},
{
glyphname = hbar;
lastChange = "2016-07-01 10:56:26 +0000";
layers = (
{
layerId = "849A9C4C-BF7C-40C5-8614-1FD725A2A379";
paths = (
{
closed = 1;
nodes = (
"412 12 LINE",
"412 843 LINE",
"492 891 OFFCURVE",
"547 922 OFFCURVE",
"600 922 CURVE SMOOTH",
"657 922 OFFCURVE",
"700 878 OFFCURVE",
"700 773 CURVE SMOOTH",
"700 -12 LINE",
"988 12 LINE",
"988 876 LINE SMOOTH",
"988 1055 OFFCURVE",
"885 1167 OFFCURVE",
"742 1167 CURVE SMOOTH",
"643 1167 OFFCURVE",
"532 1117 OFFCURVE",
"412 1005 CURVE",
"412 1536 LINE",
"124 1500 LINE",
"124 -12 LINE"
);
},
{
closed = 1;
nodes = (
"639 1248 LINE",
"639 1440 LINE",
"-32 1440 LINE",
"-32 1248 LINE"
);
}
);
width = 1104;
}
);
unicode = 0127;
},
{
glyphname = i;
lastChange = "2016-07-08 21:55:41 +0000";
layers = (
{
anchors = (
{
name = bottom;
position = "{261, 0}";
},
{
name = ogonek;
position = "{575, 10}";
},
{
name = top;
position = "{268, 1152}";
}
);
background = {
paths = (
{
closed = 1;
nodes = (
"414 12 LINE",
"414 1152 LINE",
"126 1128 LINE",
"126 -12 LINE"
);
}
);
};
components = (
{
name = idotless;
}
);
layerId = "849A9C4C-BF7C-40C5-8614-1FD725A2A379";
paths = (
{
closed = 1;
nodes = (
"414 1312 LINE",
"414 1618 LINE",
"126 1598 LINE",
"126 1300 LINE"
);
}
);
width = 538;
}
);
unicode = 0069;
},
{
glyphname = idotless;
lastChange = "2016-07-01 10:56:26 +0000";
layers = (
{
anchors = (
{
name = bottom;
position = "{268, 0}";
},
{
name = ogonek;
position = "{269, 10}";
},
{
name = top;
position = "{268, 1152}";
}
);
layerId = "849A9C4C-BF7C-40C5-8614-1FD725A2A379";
paths = (
{
closed = 1;
nodes = (
"412 12 LINE",
"412 1152 LINE",
"124 1128 LINE",
"124 -12 LINE"
);
}
);
width = 536;
}
);
unicode = 0131;
userData = {
com.fontlab.hintData = {
vhints = (
{
position = 124;
width = 288;
}
);
};
};
},
{
glyphname = j;
lastChange = "2016-07-01 10:56:26 +0000";
layers = (
{
layerId = "849A9C4C-BF7C-40C5-8614-1FD725A2A379";
paths = (
{
closed = 1;
nodes = (
"423 -288 OFFCURVE",
"423 -163 OFFCURVE",
"423 54 CURVE SMOOTH",
"423 1152 LINE",
"135 1128 LINE",
"135 54 LINE SMOOTH",
"135 -57 OFFCURVE",
"125 -96 OFFCURVE",
"-24 -96 CURVE",
"-24 -269 LINE",
"52 -282 OFFCURVE",
"115 -288 OFFCURVE",
"168 -288 CURVE SMOOTH"
);
},
{
closed = 1;
nodes = (
"423 1312 LINE",
"423 1618 LINE",
"135 1598 LINE",
"135 1300 LINE"
);
}
);
width = 543;
}
);
unicode = 006A;
},
{
glyphname = jdotless;
lastChange = "2016-07-29 09:08:22 +0000";
layers = (
{
anchors = (
{
name = bottom;
position = "{268, 0}";
},
{
name = top;
position = "{268, 1152}";
}
);
layerId = "849A9C4C-BF7C-40C5-8614-1FD725A2A379";
paths = (
{
closed = 1;
nodes = (
"412 -288 OFFCURVE",
"412 -163 OFFCURVE",
"412 54 CURVE SMOOTH",
"412 1152 LINE",
"124 1128 LINE",
"124 54 LINE SMOOTH",
"124 -57 OFFCURVE",
"114 -96 OFFCURVE",
"-35 -96 CURVE",
"-35 -269 LINE",
"41 -282 OFFCURVE",
"104 -288 OFFCURVE",
"157 -288 CURVE SMOOTH"
);
}
);
width = 536;
}
);
unicode = 0237;
},
{
glyphname = k;
lastChange = "2016-07-01 10:56:26 +0000";
layers = (
{
anchors = (
{
name = bottom;
position = "{512, 0}";
},
{
name = top;
position = "{512, 1152}";
}
);
layerId = "849A9C4C-BF7C-40C5-8614-1FD725A2A379";
paths = (
{
closed = 1;
nodes = (
"993 60 LINE",
"692 738 LINE",
"1016 1152 LINE",
"705 1152 LINE",
"412 775 LINE",
"412 1536 LINE",
"124 1500 LINE",
"124 0 LINE",
"412 0 LINE",
"412 421 LINE",
"506 546 LINE",
"739 -27 LINE"
);
}
);
width = 1024;
}
);
unicode = 006B;
},
{
glyphname = kgreenlandic;
lastChange = "2016-07-01 10:56:26 +0000";
layers = (
{
anchors = (
{
name = bottom;
position = "{300, 0}";
},
{
name = top;
position = "{300, 1152}";
}
);
background = {
components = (
{
name = idotless;
}
);
};
layerId = "849A9C4C-BF7C-40C5-8614-1FD725A2A379";
paths = (
{
closed = 1;
nodes = (
"993 60 LINE",
"692 738 LINE",
"1016 1152 LINE",
"705 1152 LINE",
"412 775 LINE",
"412 1152 LINE",
"124 1128 LINE",
"124 0 LINE",
"412 0 LINE",
"412 421 LINE",
"506 546 LINE",
"739 -27 LINE"
);
}
);
width = 1024;
}
);
unicode = 0138;
},
{
glyphname = l;
lastChange = "2016-07-01 10:56:26 +0000";
layers = (
{
anchors = (
{
name = bottom;
position = "{269, 0}";
},
{
name = center;
position = "{269, 576}";
},
{
name = top;
position = "{269, 1152}";
},
{
name = topright;
position = "{518, 1152}";
}
);
layerId = "849A9C4C-BF7C-40C5-8614-1FD725A2A379";
paths = (
{
closed = 1;
nodes = (
"414 12 LINE",
"414 1536 LINE",
"126 1500 LINE",
"126 -12 LINE"
);
}
);
width = 538;
}
);
unicode = 006C;
},
{
glyphname = lslash;
lastChange = "2016-07-01 10:56:26 +0000";
layers = (
{
layerId = "849A9C4C-BF7C-40C5-8614-1FD725A2A379";
paths = (
{
closed = 1;
nodes = (
"444 12 LINE",
"444 1536 LINE",
"156 1500 LINE",
"156 -12 LINE"
);
},
{
closed = 1;
nodes = (
"575 722 LINE",
"575 960 LINE",
"-1 814 LINE",
"-1 576 LINE"
);
}
);
width = 583;
}
);
unicode = 0142;
},
{
glyphname = m;
lastChange = "2016-07-01 10:56:26 +0000";
layers = (
{
anchors = (
{
name = bottom;
position = "{755, 0}";
},
{
name = top;
position = "{755, 1152}";
}
);
layerId = "849A9C4C-BF7C-40C5-8614-1FD725A2A379";
paths = (
{
closed = 1;
nodes = (
"406 12 LINE",
"406 839 LINE",
"441 879 OFFCURVE",
"502 921 OFFCURVE",
"561 921 CURVE SMOOTH",
"588 921 OFFCURVE",
"618 888 OFFCURVE",
"618 804 CURVE SMOOTH",
"618 -12 LINE",
"900 12 LINE",
"900 839 LINE",
"930 879 OFFCURVE",
"982 921 OFFCURVE",
"1044 921 CURVE SMOOTH",
"1079 921 OFFCURVE",
"1112 879 OFFCURVE",
"1112 802 CURVE SMOOTH",
"1112 -12 LINE",
"1394 12 LINE",
"1394 817 LINE SMOOTH",
"1394 1038 OFFCURVE",
"1341 1167 OFFCURVE",
"1190 1167 CURVE SMOOTH",
"1067 1167 OFFCURVE",
"971 1099 OFFCURVE",
"887 988 CURVE",
"858 1117 OFFCURVE",
"796 1167 OFFCURVE",
"717 1167 CURVE SMOOTH",
"604 1167 OFFCURVE",
"487 1101 OFFCURVE",
"406 1005 CURVE",
"406 1152 LINE",
"124 1128 LINE",
"124 -12 LINE"
);
}
);
width = 1510;
}
);
unicode = 006D;
},
{
glyphname = n;
lastChange = "2016-07-01 10:56:26 +0000";
layers = (
{
anchors = (
{
name = bottom;
position = "{552, 0}";
},
{
name = top;
position = "{552, 1152}";
}
);
layerId = "849A9C4C-BF7C-40C5-8614-1FD725A2A379";
paths = (
{
closed = 1;
nodes = (
"412 12 LINE",
"412 842 LINE",
"479 882 OFFCURVE",
"544 922 OFFCURVE",
"595 922 CURVE SMOOTH",
"658 922 OFFCURVE",
"700 882 OFFCURVE",
"700 769 CURVE SMOOTH",
"700 -12 LINE",
"988 12 LINE",
"988 876 LINE SMOOTH",
"988 1055 OFFCURVE",
"885 1167 OFFCURVE",
"742 1167 CURVE SMOOTH",
"643 1167 OFFCURVE",
"527 1105 OFFCURVE",
"412 1005 CURVE",
"412 1152 LINE",
"124 1128 LINE",
"124 -12 LINE"
);
}
);
width = 1104;
}
);
unicode = 006E;
},
{
glyphname = napostrophe;
lastChange = "2016-07-01 10:56:26 +0000";
layers = (
{
layerId = "849A9C4C-BF7C-40C5-8614-1FD725A2A379";
paths = (
{
closed = 1;
nodes = (
"412 12 LINE",
"412 842 LINE",
"479 882 OFFCURVE",
"544 922 OFFCURVE",
"595 922 CURVE SMOOTH",
"658 922 OFFCURVE",
"700 882 OFFCURVE",
"700 769 CURVE SMOOTH",
"700 -12 LINE",
"988 12 LINE",
"988 876 LINE SMOOTH",
"988 1055 OFFCURVE",
"885 1167 OFFCURVE",
"742 1167 CURVE SMOOTH",
"643 1167 OFFCURVE",
"527 1105 OFFCURVE",
"412 1005 CURVE",
"412 1152 LINE",
"124 1128 LINE",
"124 -12 LINE"
);
},
{
closed = 1;
nodes = (
"164 1212 OFFCURVE",
"204 1224 OFFCURVE",
"239 1245 CURVE SMOOTH",
"299 1280 OFFCURVE",
"359 1353 OFFCURVE",
"359 1497 CURVE SMOOTH",
"359 1785 LINE",
"71 1785 LINE",
"71 1497 LINE",
"215 1497 LINE",
"214 1479 OFFCURVE",
"210 1463 OFFCURVE",
"203 1449 CURVE SMOOTH",
"191 1425 OFFCURVE",
"167 1401 OFFCURVE",
"119 1401 CURVE",
"119 1209 LINE"
);
}
);
width = 1104;
}
);
unicode = 0149;
},
{
glyphname = eng;
lastChange = "2016-07-01 10:56:26 +0000";
layers = (
{
layerId = "849A9C4C-BF7C-40C5-8614-1FD725A2A379";
paths = (
{
closed = 1;
nodes = (
"988 -288 OFFCURVE",
"988 -163 OFFCURVE",
"988 54 CURVE SMOOTH",
"988 876 LINE SMOOTH",
"988 1055 OFFCURVE",
"885 1167 OFFCURVE",
"742 1167 CURVE SMOOTH",
"643 1167 OFFCURVE",
"527 1105 OFFCURVE",
"412 1005 CURVE",
"412 1152 LINE",
"124 1128 LINE",
"124 -12 LINE",
"412 12 LINE",
"412 842 LINE",
"479 882 OFFCURVE",
"544 922 OFFCURVE",
"595 922 CURVE SMOOTH",
"658 922 OFFCURVE",
"700 882 OFFCURVE",
"700 769 CURVE SMOOTH",
"700 54 LINE SMOOTH",
"700 -57 OFFCURVE",
"690 -96 OFFCURVE",
"541 -96 CURVE",
"541 -269 LINE",
"617 -282 OFFCURVE",
"680 -288 OFFCURVE",
"733 -288 CURVE SMOOTH"
);
}
);
width = 1105;
}
);
unicode = 014B;
},
{
glyphname = o;
lastChange = "2016-07-08 21:56:12 +0000";
layers = (
{
anchors = (
{
name = bottom;
position = "{492, 0}";
},
{
name = center;
position = "{502, 576}";
},
{
name = ogonek;
position = "{826, 10}";
},
{
name = top;
position = "{502, 1152}";
},
{
name = topright;
position = "{984, 1152}";
}
);
layerId = "849A9C4C-BF7C-40C5-8614-1FD725A2A379";
paths = (
{
closed = 1;
nodes = (
"783 -27 OFFCURVE",
"934 221 OFFCURVE",
"934 574 CURVE SMOOTH",
"934 926 OFFCURVE",
"783 1167 OFFCURVE",
"500 1167 CURVE SMOOTH",
"214 1167 OFFCURVE",
"70 922 OFFCURVE",
"70 573 CURVE SMOOTH",
"70 223 OFFCURVE",
"215 -27 OFFCURVE",
"500 -27 CURVE SMOOTH"
);
},
{
closed = 1;
nodes = (
"360 187 OFFCURVE",
"358 423 OFFCURVE",
"358 598 CURVE SMOOTH",
"358 721 OFFCURVE",
"359 964 OFFCURVE",
"500 964 CURVE SMOOTH",
"642 964 OFFCURVE",
"645 719 OFFCURVE",
"645 576 CURVE SMOOTH",
"645 433 OFFCURVE",
"642 187 OFFCURVE",
"500 187 CURVE SMOOTH"
);
}
);
width = 1004;
}
);
unicode = 006F;
},
{
glyphname = oslash;
lastChange = "2016-07-01 10:56:26 +0000";
layers = (
{
layerId = "849A9C4C-BF7C-40C5-8614-1FD725A2A379";
paths = (
{
closed = 1;
nodes = (
"223 85 LINE",
"294 13 OFFCURVE",
"385 -27 OFFCURVE",
"502 -27 CURVE SMOOTH",
"783 -27 OFFCURVE",
"934 221 OFFCURVE",
"934 577 CURVE SMOOTH",
"934 706 OFFCURVE",
"914 817 OFFCURVE",
"873 910 CURVE",
"983 1049 LINE",
"906 1117 LINE",
"819 1007 LINE",
"746 1108 OFFCURVE",
"641 1167 OFFCURVE",
"502 1167 CURVE SMOOTH",
"214 1167 OFFCURVE",
"70 922 OFFCURVE",
"70 577 CURVE SMOOTH",
"70 413 OFFCURVE",
"100 274 OFFCURVE",
"160 170 CURVE",
"55 37 LINE",
"132 -31 LINE"
);
},
{
closed = 1;
nodes = (
"440 187 OFFCURVE",
"405 230 OFFCURVE",
"385 290 CURVE",
"645 620 LINE",
"645 577 LINE SMOOTH",
"645 434 OFFCURVE",
"642 187 OFFCURVE",
"500 187 CURVE SMOOTH"
);
},
{
closed = 1;
nodes = (
"358 479 OFFCURVE",
"358 533 OFFCURVE",
"358 577 CURVE SMOOTH",
"358 716 OFFCURVE",
"357 964 OFFCURVE",
"501 964 CURVE SMOOTH",
"586 964 OFFCURVE",
"622 874 OFFCURVE",
"635 773 CURVE",
"362 426 LINE"
);
}
);
width = 1006;
}
);
unicode = 00F8;
},
{
glyphname = oe;
lastChange = "2016-07-01 10:56:26 +0000";
layers = (
{
layerId = "849A9C4C-BF7C-40C5-8614-1FD725A2A379";
paths = (
{
closed = 1;
nodes = (
"628 -27 OFFCURVE",
"723 34 OFFCURVE",
"791 132 CURVE",
"865 26 OFFCURVE",
"945 -27 OFFCURVE",
"1072 -27 CURVE SMOOTH",
"1275 -27 OFFCURVE",
"1399 107 OFFCURVE",
"1450 290 CURVE",
"1232 373 LINE",
"1220 349 OFFCURVE",
"1162 185 OFFCURVE",
"1071 185 CURVE SMOOTH",
"968 185 OFFCURVE",
"932 391 OFFCURVE",
"932 536 CURVE",
"1482 536 LINE",
"1482 561 OFFCURVE",
"1483 579 OFFCURVE",
"1483 603 CURVE SMOOTH",
"1483 728 OFFCURVE",
"1456 1167 OFFCURVE",
"1083 1167 CURVE SMOOTH",
"956 1167 OFFCURVE",
"873 1116 OFFCURVE",
"793 997 CURVE",
"717 1113 OFFCURVE",
"618 1167 OFFCURVE",
"490 1167 CURVE SMOOTH",
"219 1167 OFFCURVE",
"70 923 OFFCURVE",
"70 573 CURVE SMOOTH",
"70 221 OFFCURVE",
"220 -27 OFFCURVE",
"493 -27 CURVE SMOOTH"
);
},
{
closed = 1;
nodes = (
"368 187 OFFCURVE",
"356 398 OFFCURVE",
"356 577 CURVE SMOOTH",
"356 741 OFFCURVE",
"366 964 OFFCURVE",
"500 964 CURVE SMOOTH",
"642 964 OFFCURVE",
"645 716 OFFCURVE",
"645 575 CURVE SMOOTH",
"645 434 OFFCURVE",
"642 187 OFFCURVE",
"500 187 CURVE SMOOTH"
);
},
{
closed = 1;
nodes = (
"932 846 OFFCURVE",
"993 969 OFFCURVE",
"1081 969 CURVE SMOOTH",
"1165 969 OFFCURVE",
"1207 855 OFFCURVE",
"1207 702 CURVE",
"932 702 LINE"
);
}
);
width = 1539;
}
);
unicode = 0153;
},
{
glyphname = p;
lastChange = "2016-07-01 10:56:26 +0000";
layers = (
{
anchors = (
{
name = bottom;
position = "{517, -286}";
},
{
name = top;
position = "{517, 1152}";
}
);
background = {
paths = (
{
closed = 1;
nodes = (
"412 -302 LINE",
"412 99 LINE",
"454 33 OFFCURVE",
"514 -27 OFFCURVE",
"635 -27 CURVE SMOOTH",
"1013 -27 OFFCURVE",
"961 553 OFFCURVE",
"960 636 CURVE SMOOTH",
"957 839 OFFCURVE",
"951 1167 OFFCURVE",
"670 1167 CURVE SMOOTH",
"559 1167 OFFCURVE",
"489 1116 OFFCURVE",
"412 1041 CURVE",
"412 1152 LINE",
"124 1128 LINE",
"124 -358 LINE"
);
},
{
closed = 1;
nodes = (
"465 193 OFFCURVE",
"431 244 OFFCURVE",
"412 285 CURVE",
"412 880 LINE",
"439 921 OFFCURVE",
"477 960 OFFCURVE",
"534 960 CURVE SMOOTH",
"625 960 OFFCURVE",
"672 863 OFFCURVE",
"672 574 CURVE SMOOTH",
"672 258 OFFCURVE",
"616 193 OFFCURVE",
"536 193 CURVE SMOOTH"
);
}
);
};
layerId = "849A9C4C-BF7C-40C5-8614-1FD725A2A379";
paths = (
{
closed = 1;
nodes = (
"412 -302 LINE",
"412 99 LINE",
"454 33 OFFCURVE",
"512 -27 OFFCURVE",
"638 -27 CURVE SMOOTH",
"911 -27 OFFCURVE",
"960 253 OFFCURVE",
"960 586 CURVE SMOOTH",
"960 999 OFFCURVE",
"885 1167 OFFCURVE",
"673 1167 CURVE SMOOTH",
"564 1167 OFFCURVE",
"496 1123 OFFCURVE",
"412 1041 CURVE",
"412 1152 LINE",
"124 1128 LINE",
"124 -358 LINE"
);
},
{
closed = 1;
nodes = (
"465 193 OFFCURVE",
"431 244 OFFCURVE",
"412 285 CURVE",
"412 880 LINE",
"439 921 OFFCURVE",
"477 960 OFFCURVE",
"534 960 CURVE SMOOTH",
"625 960 OFFCURVE",
"672 863 OFFCURVE",
"672 574 CURVE SMOOTH",
"672 258 OFFCURVE",
"616 193 OFFCURVE",
"536 193 CURVE SMOOTH"
);
}
);
width = 1034;
}
);
unicode = 0070;
},
{
glyphname = thorn;
lastChange = "2016-07-01 10:56:26 +0000";
layers = (
{
background = {
paths = (
{
closed = 1;
nodes = (
"413 -358 LINE",
"412 144 LINE",
"421 112 OFFCURVE",
"435 83 OFFCURVE",
"456 58 CURVE SMOOTH",
"491 15 OFFCURVE",
"553 -27 OFFCURVE",
"659 -27 CURVE SMOOTH",
"870 -27 OFFCURVE",
"990 160 OFFCURVE",
"990 576 CURVE SMOOTH",
"990 1013 OFFCURVE",
"862 1167 OFFCURVE",
"710 1167 CURVE SMOOTH",
"611 1167 OFFCURVE",
"500 1101 OFFCURVE",
"412 1005 CURVE",
"412 1536 LINE",
"124 1500 LINE",
"124 -358 LINE"
);
},
{
closed = 1;
nodes = (
"483 179 OFFCURVE",
"412 240 OFFCURVE",
"412 480 CURVE SMOOTH",
"412 843 LINE",
"435 857 OFFCURVE",
"458 870 OFFCURVE",
"481 882 CURVE SMOOTH",
"520 902 OFFCURVE",
"567 922 OFFCURVE",
"602 922 CURVE SMOOTH",
"697 922 OFFCURVE",
"702 770 OFFCURVE",
"702 576 CURVE SMOOTH",
"702 363 OFFCURVE",
"693 179 OFFCURVE",
"552 179 CURVE SMOOTH"
);
}
);
};
layerId = "849A9C4C-BF7C-40C5-8614-1FD725A2A379";
paths = (
{
closed = 1;
nodes = (
"412 -302 LINE",
"412 99 LINE",
"454 33 OFFCURVE",
"511 -27 OFFCURVE",
"640 -27 CURVE SMOOTH",
"919 -27 OFFCURVE",
"970 255 OFFCURVE",
"970 587 CURVE SMOOTH",
"970 998 OFFCURVE",
"892 1167 OFFCURVE",
"674 1167 CURVE SMOOTH",
"563 1167 OFFCURVE",
"496 1123 OFFCURVE",
"412 1041 CURVE",
"412 1536 LINE",
"124 1500 LINE",
"124 -358 LINE"
);
},
{
closed = 1;
nodes = (
"464 193 OFFCURVE",
"431 244 OFFCURVE",
"412 285 CURVE",
"412 880 LINE",
"439 921 OFFCURVE",
"476 960 OFFCURVE",
"536 960 CURVE SMOOTH",
"632 960 OFFCURVE",
"682 861 OFFCURVE",
"682 574 CURVE SMOOTH",
"682 260 OFFCURVE",
"622 193 OFFCURVE",
"538 193 CURVE SMOOTH"
);
}
);
width = 1047;
}
);
unicode = 00FE;
},
{
glyphname = q;
lastChange = "2016-07-01 10:56:26 +0000";
layers = (
{
anchors = (
{
name = bottom;
position = "{507, 0}";
},
{
name = top;
position = "{507, 1152}";
}
);
layerId = "849A9C4C-BF7C-40C5-8614-1FD725A2A379";
paths = (
{
closed = 1;
nodes = (
"890 -322 LINE",
"890 1152 LINE",
"613 1128 LINE",
"602 1041 LINE",
"556 1115 OFFCURVE",
"490 1167 OFFCURVE",
"380 1167 CURVE SMOOTH",
"89 1167 OFFCURVE",
"74 804 OFFCURVE",
"74 558 CURVE SMOOTH",
"74 357 OFFCURVE",
"84 -27 OFFCURVE",
"379 -27 CURVE SMOOTH",
"495 -27 OFFCURVE",
"560 32 OFFCURVE",
"602 99 CURVE",
"602 -358 LINE"
);
},
{
closed = 1;
nodes = (
"411 193 OFFCURVE",
"362 257 OFFCURVE",
"362 563 CURVE SMOOTH",
"362 863 OFFCURVE",
"409 960 OFFCURVE",
"496 960 CURVE SMOOTH",
"546 960 OFFCURVE",
"576 928 OFFCURVE",
"602 880 CURVE",
"602 285 LINE",
"582 240 OFFCURVE",
"542 193 OFFCURVE",
"482 193 CURVE SMOOTH"
);
}
);
width = 1014;
}
);
unicode = 0071;
},
{
glyphname = r;
lastChange = "2016-07-01 10:56:26 +0000";
layers = (
{
anchors = (
{
name = bottom;
position = "{414, 0}";
},
{
name = top;
position = "{414, 1152}";
}
);
layerId = "849A9C4C-BF7C-40C5-8614-1FD725A2A379";
paths = (
{
closed = 1;
nodes = (
"412 12 LINE",
"412 768 LINE",
"525 866 OFFCURVE",
"747 882 OFFCURVE",
"796 882 CURVE",
"796 1163 LINE",
"592 1163 OFFCURVE",
"482 1068 OFFCURVE",
"412 967 CURVE",
"412 1152 LINE",
"124 1128 LINE",
"124 -12 LINE"
);
}
);
width = 828;
}
);
unicode = 0072;
},
{
glyphname = s;
lastChange = "2016-07-01 10:56:26 +0000";
layers = (
{
anchors = (
{
name = bottom;
position = "{462, 0}";
},
{
name = top;
position = "{462, 1152}";
}
);
layerId = "849A9C4C-BF7C-40C5-8614-1FD725A2A379";
paths = (
{
closed = 1;
nodes = (
"666 -27 OFFCURVE",
"871 95 OFFCURVE",
"871 342 CURVE SMOOTH",
"871 530 OFFCURVE",
"768 620 OFFCURVE",
"639 679 CURVE",
"434 764 LINE SMOOTH",
"398 780 OFFCURVE",
"334 812 OFFCURVE",
"334 862 CURVE SMOOTH",
"334 927 OFFCURVE",
"398 954 OFFCURVE",
"458 954 CURVE SMOOTH",
"514 954 OFFCURVE",
"550 920 OFFCURVE",
"573 885 CURVE SMOOTH",
"586 864 OFFCURVE",
"596 841 OFFCURVE",
"603 816 CURVE",
"839 889 LINE",
"788 1068 OFFCURVE",
"622 1167 OFFCURVE",
"456 1167 CURVE SMOOTH",
"257 1167 OFFCURVE",
"67 1043 OFFCURVE",
"67 814 CURVE SMOOTH",
"67 654 OFFCURVE",
"138 542 OFFCURVE",
"267 490 CURVE SMOOTH",
"508 392 LINE SMOOTH",
"555 373 OFFCURVE",
"595 342 OFFCURVE",
"595 293 CURVE SMOOTH",
"595 222 OFFCURVE",
"504 200 OFFCURVE",
"450 200 CURVE SMOOTH",
"379 200 OFFCURVE",
"337 233 OFFCURVE",
"313 268 CURVE",
"298 288 OFFCURVE",
"288 311 OFFCURVE",
"282 337 CURVE",
"60 265 LINE",
"100 86 OFFCURVE",
"235 -27 OFFCURVE",
"469 -27 CURVE SMOOTH"
);
}
);
width = 923;
}
);
unicode = 0073;
},
{
glyphname = germandbls;
lastChange = "2016-07-01 10:56:26 +0000";
layers = (
{
layerId = "849A9C4C-BF7C-40C5-8614-1FD725A2A379";
paths = (
{
closed = 1;
nodes = (
"414 0 LINE",
"414 1111 LINE SMOOTH",
"414 1289 OFFCURVE",
"494 1346 OFFCURVE",
"583 1346 CURVE SMOOTH",
"700 1346 OFFCURVE",
"751 1249 OFFCURVE",
"751 1163 CURVE SMOOTH",
"751 1072 OFFCURVE",
"694 958 OFFCURVE",
"551 910 CURVE",
"551 743 LINE",
"732 743 OFFCURVE",
"836 590 OFFCURVE",
"836 462 CURVE SMOOTH",
"836 344 OFFCURVE",
"748 211 OFFCURVE",
"540 211 CURVE",
"540 2 LINE",
"834 13 OFFCURVE",
"1127 110 OFFCURVE",
"1127 467 CURVE SMOOTH",
"1127 711 OFFCURVE",
"990 811 OFFCURVE",
"813 870 CURVE",
"957 966 OFFCURVE",
"1000 1076 OFFCURVE",
"1000 1190 CURVE SMOOTH",
"1000 1414 OFFCURVE",
"836 1568 OFFCURVE",
"571 1568 CURVE SMOOTH",
"417 1568 OFFCURVE",
"124 1516 OFFCURVE",
"124 1056 CURVE SMOOTH",
"124 -25 LINE"
);
}
);
width = 1170;
}
);
unicode = 00DF;
},
{
glyphname = schwa;
lastChange = "2016-07-01 10:56:26 +0000";
layers = (
{
layerId = "849A9C4C-BF7C-40C5-8614-1FD725A2A379";
paths = (
{
closed = 1;
nodes = (
"754 -32 OFFCURVE",
"895 217 OFFCURVE",
"895 569 CURVE SMOOTH",
"895 920 OFFCURVE",
"755 1167 OFFCURVE",
"471 1167 CURVE SMOOTH",
"264 1167 OFFCURVE",
"143 1036 OFFCURVE",
"90 850 CURVE",
"308 767 LINE",
"320 791 OFFCURVE",
"378 955 OFFCURVE",
"469 955 CURVE SMOOTH",
"572 955 OFFCURVE",
"608 749 OFFCURVE",
"608 604 CURVE",
"58 604 LINE",
"56 585 OFFCURVE",
"53 552 OFFCURVE",
"53 506 CURVE SMOOTH",
"53 321 OFFCURVE",
"102 -32 OFFCURVE",
"456 -32 CURVE SMOOTH"
);
},
{
closed = 1;
nodes = (
"375 166 OFFCURVE",
"333 285 OFFCURVE",
"333 438 CURVE",
"608 438 LINE",
"608 294 OFFCURVE",
"547 166 OFFCURVE",
"459 166 CURVE SMOOTH"
);
}
);
width = 965;
}
);
unicode = 0259;
},
{
glyphname = t;
lastChange = "2016-07-08 21:47:49 +0000";
layers = (
{
anchors = (
{
name = bottom;
position = "{490, 0}";
},
{
name = center;
position = "{369, 576}";
},
{
name = top;
position = "{369, 1152}";
},
{
name = topright;
position = "{718, 1152}";
}
);
layerId = "849A9C4C-BF7C-40C5-8614-1FD725A2A379";
paths = (
{
closed = 1;
nodes = (
"597 -22 OFFCURVE",
"672 -7 OFFCURVE",
"707 1 CURVE",
"707 199 LINE",
"667 192 OFFCURVE",
"627 187 OFFCURVE",
"595 187 CURVE SMOOTH",
"520 187 OFFCURVE",
"475 215 OFFCURVE",
"475 301 CURVE SMOOTH",
"475 936 LINE",
"698 936 LINE",
"710 1152 LINE",
"474 1152 LINE",
"474 1438 LINE",
"224 1402 LINE",
"195 1152 LINE",
"38 1152 LINE",
"26 936 LINE",
"187 936 LINE",
"187 299 LINE SMOOTH",
"187 33 OFFCURVE",
"366 -22 OFFCURVE",
"518 -22 CURVE SMOOTH"
);
}
);
width = 738;
}
);
unicode = 0074;
},
{
glyphname = tbar;
lastChange = "2016-07-01 10:56:26 +0000";
layers = (
{
background = {
paths = (
{
closed = 1;
nodes = (
"553 -27 OFFCURVE",
"607 -20 OFFCURVE",
"643 -13 CURVE SMOOTH",
"664 -9 OFFCURVE",
"682 -4 OFFCURVE",
"697 1 CURVE",
"697 199 LINE",
"676 195 LINE SMOOTH",
"663 193 OFFCURVE",
"646 192 OFFCURVE",
"625 192 CURVE SMOOTH",
"561 192 OFFCURVE",
"478 209 OFFCURVE",
"478 301 CURVE SMOOTH",
"478 936 LINE",
"701 936 LINE",
"713 1152 LINE",
"477 1152 LINE",
"477 1438 LINE",
"227 1402 LINE",
"198 1152 LINE",
"41 1152 LINE",
"29 936 LINE",
"190 936 LINE",
"190 244 LINE SMOOTH",
"190 39 OFFCURVE",
"353 -27 OFFCURVE",
"477 -27 CURVE SMOOTH"
);
},
{
closed = 1;
nodes = (
"634 577 LINE",
"634 769 LINE",
"58 769 LINE",
"58 577 LINE"
);
}
);
};
components = (
{
name = t;
}
);
layerId = "849A9C4C-BF7C-40C5-8614-1FD725A2A379";
paths = (
{
closed = 1;
nodes = (
"634 577 LINE",
"634 769 LINE",
"58 769 LINE",
"58 577 LINE"
);
}
);
width = 733;
}
);
unicode = 0167;
},
{
glyphname = u;
lastChange = "2016-07-08 21:56:36 +0000";
layers = (
{
anchors = (
{
name = bottom;
position = "{552, 0}";
},
{
name = ogonek;
position = "{1074, 10}";
},
{
name = top;
position = "{552, 1152}";
},
{
name = topright;
position = "{1084, 1152}";
}
);
layerId = "849A9C4C-BF7C-40C5-8614-1FD725A2A379";
paths = (
{
closed = 1;
nodes = (
"468 -27 OFFCURVE",
"592 20 OFFCURVE",
"692 135 CURVE",
"692 -12 LINE",
"980 12 LINE",
"980 1152 LINE",
"692 1128 LINE",
"692 318 LINE",
"634 249 OFFCURVE",
"564 228 OFFCURVE",
"512 228 CURVE SMOOTH",
"441 228 OFFCURVE",
"404 268 OFFCURVE",
"404 381 CURVE SMOOTH",
"404 1152 LINE",
"116 1128 LINE",
"116 264 LINE SMOOTH",
"116 85 OFFCURVE",
"223 -27 OFFCURVE",
"372 -27 CURVE SMOOTH"
);
}
);
width = 1104;
}
);
unicode = 0075;
},
{
glyphname = v;
lastChange = "2016-07-01 10:56:26 +0000";
layers = (
{
anchors = (
{
name = bottom;
position = "{466, 0}";
},
{
name = top;
position = "{466, 1152}";
}
);
layerId = "849A9C4C-BF7C-40C5-8614-1FD725A2A379";
paths = (
{
closed = 1;
nodes = (
"594 0 LINE",
"924 1140 LINE",
"663 1116 LINE",
"497 415 LINE",
"352 1152 LINE",
"9 1128 LINE",
"329 0 LINE"
);
}
);
width = 932;
}
);
unicode = 0076;
},
{
glyphname = w;
lastChange = "2016-07-01 10:56:26 +0000";
layers = (
{
anchors = (
{
name = bottom;
position = "{658, 0}";
},
{
name = top;
position = "{658, 1152}";
}
);
layerId = "849A9C4C-BF7C-40C5-8614-1FD725A2A379";
paths = (
{
closed = 1;
nodes = (
"508 0 LINE",
"670 747 LINE",
"801 0 LINE",
"1032 0 LINE",
"1296 1140 LINE",
"1062 1128 LINE",
"937 508 LINE",
"813 1152 LINE",
"573 1128 LINE",
"428 500 LINE",
"329 1152 LINE",
"36 1130 LINE",
"273 0 LINE"
);
}
);
width = 1315;
}
);
unicode = 0077;
},
{
glyphname = x;
lastChange = "2016-07-01 10:56:26 +0000";
layers = (
{
anchors = (
{
name = bottom;
position = "{471, 0}";
},
{
name = top;
position = "{471, 1152}";
}
);
layerId = "849A9C4C-BF7C-40C5-8614-1FD725A2A379";
paths = (
{
closed = 1;
nodes = (
"947 12 LINE",
"615 634 LINE",
"892 1152 LINE",
"620 1152 LINE",
"474 870 LINE",
"335 1152 LINE",
"21 1152 LINE",
"321 579 LINE",
"10 0 LINE",
"284 0 LINE",
"460 339 LINE",
"630 -12 LINE"
);
}
);
width = 941;
}
);
unicode = 0078;
},
{
glyphname = y;
lastChange = "2016-07-01 10:56:26 +0000";
layers = (
{
anchors = (
{
name = bottom;
position = "{441, -327}";
},
{
name = top;
position = "{451, 1152}";
}
);
layerId = "849A9C4C-BF7C-40C5-8614-1FD725A2A379";
paths = (
{
closed = 1;
nodes = (
"308 -365 OFFCURVE",
"501 -307 OFFCURVE",
"594 21 CURVE",
"889 1148 LINE",
"629 1146 LINE",
"476 431 LINE",
"314 1152 LINE",
"2 1138 LINE",
"331 108 LINE",
"331 52 LINE SMOOTH",
"331 -51 OFFCURVE",
"280 -117 OFFCURVE",
"151 -117 CURVE SMOOTH",
"135 -117 OFFCURVE",
"107 -116 OFFCURVE",
"30 -113 CURVE",
"30 -353 LINE",
"91 -362 OFFCURVE",
"116 -365 OFFCURVE",
"152 -365 CURVE SMOOTH"
);
}
);
width = 901;
}
);
unicode = 0079;
},
{
glyphname = z;
lastChange = "2016-07-01 10:56:26 +0000";
layers = (
{
anchors = (
{
name = bottom;
position = "{435, 0}";
},
{
name = top;
position = "{484, 1152}";
}
);
layerId = "849A9C4C-BF7C-40C5-8614-1FD725A2A379";
paths = (
{
closed = 1;
nodes = (
"803 0 LINE",
"827 227 LINE",
"415 227 LINE",
"796 982 LINE",
"796 1152 LINE",
"131 1152 LINE",
"107 928 LINE",
"478 928 LINE",
"90 181 LINE",
"90 0 LINE"
);
}
);
width = 870;
}
);
unicode = 007A;
},
{
glyphname = f_f;
lastChange = "2016-07-29 09:08:22 +0000";
layers = (
{
layerId = "849A9C4C-BF7C-40C5-8614-1FD725A2A379";
paths = (
{
closed = 1;
nodes = (
"1218 12 LINE",
"1218 936 LINE",
"1409 936 LINE",
"1421 1152 LINE",
"1218 1152 LINE",
"1218 1173 LINE SMOOTH",
"1218 1257 OFFCURVE",
"1228 1344 OFFCURVE",
"1348 1344 CURVE SMOOTH",
"1411 1344 LINE",
"1411 1516 LINE",
"1399 1521 OFFCURVE",
"1384 1526 OFFCURVE",
"1366 1531 CURVE SMOOTH",
"1335 1538 OFFCURVE",
"1287 1546 OFFCURVE",
"1216 1546 CURVE SMOOTH",
"938 1546 OFFCURVE",
"930 1360 OFFCURVE",
"930 1174 CURVE SMOOTH",
"930 1152 LINE",
"800 1152 LINE",
"788 936 LINE",
"930 936 LINE",
"930 -12 LINE"
);
},
{
closed = 1;
nodes = (
"464 12 LINE",
"464 936 LINE",
"655 936 LINE",
"667 1152 LINE",
"464 1152 LINE",
"464 1173 LINE SMOOTH",
"464 1257 OFFCURVE",
"474 1344 OFFCURVE",
"594 1344 CURVE SMOOTH",
"657 1344 LINE",
"657 1516 LINE",
"645 1521 OFFCURVE",
"630 1526 OFFCURVE",
"612 1531 CURVE SMOOTH",
"581 1538 OFFCURVE",
"533 1546 OFFCURVE",
"462 1546 CURVE SMOOTH",
"184 1546 OFFCURVE",
"176 1360 OFFCURVE",
"176 1174 CURVE SMOOTH",
"176 1152 LINE",
"46 1152 LINE",
"34 936 LINE",
"176 936 LINE",
"176 -12 LINE"
);
}
);
width = 1445;
}
);
},
{
glyphname = f_f_i;
lastChange = "2016-07-29 09:08:22 +0000";
layers = (
{
anchors = (
{
name = caret_1;
position = "{698.333, 0}";
},
{
name = caret_2;
position = "{1396.667, 0}";
}
);
layerId = "849A9C4C-BF7C-40C5-8614-1FD725A2A379";
paths = (
{
closed = 1;
nodes = (
"1218 12 LINE",
"1218 936 LINE",
"1409 936 LINE",
"1421 1152 LINE",
"1218 1152 LINE",
"1218 1173 LINE SMOOTH",
"1218 1257 OFFCURVE",
"1228 1344 OFFCURVE",
"1348 1344 CURVE SMOOTH",
"1411 1344 LINE",
"1411 1516 LINE",
"1399 1521 OFFCURVE",
"1384 1526 OFFCURVE",
"1366 1531 CURVE SMOOTH",
"1335 1538 OFFCURVE",
"1287 1546 OFFCURVE",
"1216 1546 CURVE SMOOTH",
"938 1546 OFFCURVE",
"930 1360 OFFCURVE",
"930 1174 CURVE SMOOTH",
"930 1152 LINE",
"800 1152 LINE",
"788 936 LINE",
"930 936 LINE",
"930 -12 LINE"
);
},
{
closed = 1;
nodes = (
"464 12 LINE",
"464 936 LINE",
"655 936 LINE",
"667 1152 LINE",
"464 1152 LINE",
"464 1173 LINE SMOOTH",
"464 1257 OFFCURVE",
"474 1344 OFFCURVE",
"594 1344 CURVE SMOOTH",
"657 1344 LINE",
"657 1516 LINE",
"645 1521 OFFCURVE",
"630 1526 OFFCURVE",
"612 1531 CURVE SMOOTH",
"581 1538 OFFCURVE",
"533 1546 OFFCURVE",
"462 1546 CURVE SMOOTH",
"184 1546 OFFCURVE",
"176 1360 OFFCURVE",
"176 1174 CURVE SMOOTH",
"176 1152 LINE",
"46 1152 LINE",
"34 936 LINE",
"176 936 LINE",
"176 -12 LINE"
);
},
{
closed = 1;
nodes = (
"1971 12 LINE",
"1971 1152 LINE",
"1683 1128 LINE",
"1683 -12 LINE"
);
},
{
closed = 1;
nodes = (
"1971 1312 LINE",
"1971 1600 LINE",
"1683 1598 LINE",
"1683 1300 LINE"
);
}
);
width = 2095;
}
);
},
{
glyphname = f_f_l;
lastChange = "2016-07-29 09:08:22 +0000";
layers = (
{
layerId = "849A9C4C-BF7C-40C5-8614-1FD725A2A379";
paths = (
{
closed = 1;
nodes = (
"1218 12 LINE",
"1218 936 LINE",
"1409 936 LINE",
"1421 1152 LINE",
"1218 1152 LINE",
"1218 1173 LINE SMOOTH",
"1218 1257 OFFCURVE",
"1228 1344 OFFCURVE",
"1348 1344 CURVE SMOOTH",
"1411 1344 LINE",
"1411 1516 LINE",
"1399 1521 OFFCURVE",
"1384 1526 OFFCURVE",
"1366 1531 CURVE SMOOTH",
"1335 1538 OFFCURVE",
"1287 1546 OFFCURVE",
"1216 1546 CURVE SMOOTH",
"938 1546 OFFCURVE",
"930 1360 OFFCURVE",
"930 1174 CURVE SMOOTH",
"930 1152 LINE",
"800 1152 LINE",
"788 936 LINE",
"930 936 LINE",
"930 -12 LINE"
);
},
{
closed = 1;
nodes = (
"464 12 LINE",
"464 936 LINE",
"655 936 LINE",
"667 1152 LINE",
"464 1152 LINE",
"464 1173 LINE SMOOTH",
"464 1257 OFFCURVE",
"474 1344 OFFCURVE",
"594 1344 CURVE SMOOTH",
"657 1344 LINE",
"657 1516 LINE",
"645 1521 OFFCURVE",
"630 1526 OFFCURVE",
"612 1531 CURVE SMOOTH",
"581 1538 OFFCURVE",
"533 1546 OFFCURVE",
"462 1546 CURVE SMOOTH",
"184 1546 OFFCURVE",
"176 1360 OFFCURVE",
"176 1174 CURVE SMOOTH",
"176 1152 LINE",
"46 1152 LINE",
"34 936 LINE",
"176 936 LINE",
"176 -12 LINE"
);
},
{
closed = 1;
nodes = (
"1970 12 LINE",
"1970 1536 LINE",
"1682 1500 LINE",
"1682 -12 LINE"
);
}
);
width = 2094;
}
);
},
{
glyphname = fi;
lastChange = "2016-07-01 10:56:26 +0000";
layers = (
{
anchors = (
{
name = caret_1;
position = "{643.5, 0}";
}
);
layerId = "849A9C4C-BF7C-40C5-8614-1FD725A2A379";
paths = (
{
closed = 1;
nodes = (
"465 12 LINE",
"465 915 LINE",
"875 915 LINE",
"875 -12 LINE",
"1163 12 LINE",
"1163 1152 LINE",
"465 1152 LINE",
"465 1173 LINE SMOOTH",
"465 1257 OFFCURVE",
"475 1344 OFFCURVE",
"595 1344 CURVE SMOOTH",
"658 1344 LINE",
"658 1516 LINE",
"646 1521 OFFCURVE",
"631 1526 OFFCURVE",
"613 1531 CURVE SMOOTH",
"582 1538 OFFCURVE",
"534 1546 OFFCURVE",
"463 1546 CURVE SMOOTH",
"185 1546 OFFCURVE",
"177 1360 OFFCURVE",
"177 1174 CURVE SMOOTH",
"177 1152 LINE",
"59 1152 LINE",
"35 917 LINE",
"177 917 LINE",
"177 -12 LINE"
);
},
{
closed = 1;
nodes = (
"1163 1300 LINE",
"1163 1600 LINE",
"875 1600 LINE",
"875 1288 LINE"
);
}
);
width = 1287;
}
);
unicode = FB01;
},
{
glyphname = fl;
lastChange = "2016-07-01 10:56:26 +0000";
layers = (
{
layerId = "849A9C4C-BF7C-40C5-8614-1FD725A2A379";
paths = (
{
closed = 1;
nodes = (
"465 12 LINE",
"465 915 LINE",
"632 915 LINE",
"656 1152 LINE",
"465 1152 LINE",
"465 1173 LINE SMOOTH",
"465 1257 OFFCURVE",
"470 1344 OFFCURVE",
"555 1344 CURVE SMOOTH",
"875 1344 LINE",
"875 -12 LINE",
"1163 12 LINE",
"1163 1536 LINE",
"563 1536 LINE SMOOTH",
"185 1536 OFFCURVE",
"177 1360 OFFCURVE",
"177 1174 CURVE SMOOTH",
"177 1152 LINE",
"59 1152 LINE",
"35 917 LINE",
"177 917 LINE",
"177 -12 LINE"
);
}
);
width = 1287;
}
);
unicode = FB02;
},
{
glyphname = ordfeminine;
lastChange = "2016-07-01 10:56:26 +0000";
layers = (
{
layerId = "849A9C4C-BF7C-40C5-8614-1FD725A2A379";
paths = (
{
closed = 1;
nodes = (
"333 288 OFFCURVE",
"415 342 OFFCURVE",
"447 403 CURVE",
"470 299 LINE",
"676 317 LINE",
"667 344 OFFCURVE",
"654 415 OFFCURVE",
"654 468 CURVE SMOOTH",
"654 907 LINE SMOOTH",
"654 1052 OFFCURVE",
"573 1167 OFFCURVE",
"381 1167 CURVE SMOOTH",
"258 1167 OFFCURVE",
"119 1120 OFFCURVE",
"98 952 CURVE",
"304 916 LINE",
"309 964 OFFCURVE",
"331 1012 OFFCURVE",
"379 1012 CURVE SMOOTH",
"441 1012 OFFCURVE",
"442 932 OFFCURVE",
"442 853 CURVE",
"289 841 OFFCURVE",
"68 790 OFFCURVE",
"68 546 CURVE SMOOTH",
"68 399 OFFCURVE",
"148 288 OFFCURVE",
"257 288 CURVE SMOOTH"
);
},
{
closed = 1;
nodes = (
"303 440 OFFCURVE",
"276 483 OFFCURVE",
"276 558 CURVE SMOOTH",
"276 679 OFFCURVE",
"347 726 OFFCURVE",
"442 726 CURVE",
"442 490 LINE",
"423 469 OFFCURVE",
"395 440 OFFCURVE",
"354 440 CURVE SMOOTH"
);
}
);
width = 774;
}
);
unicode = 00AA;
},
{
glyphname = ordmasculine;
lastChange = "2016-07-01 10:56:26 +0000";
layers = (
{
layerId = "849A9C4C-BF7C-40C5-8614-1FD725A2A379";
paths = (
{
closed = 1;
nodes = (
"731 363 OFFCURVE",
"868 531 OFFCURVE",
"868 765 CURVE SMOOTH",
"868 998 OFFCURVE",
"733 1167 OFFCURVE",
"474 1167 CURVE SMOOTH",
"215 1167 OFFCURVE",
"84 998 OFFCURVE",
"84 765 CURVE SMOOTH",
"84 531 OFFCURVE",
"217 363 OFFCURVE",
"474 363 CURVE SMOOTH"
);
},
{
closed = 1;
nodes = (
"380 557 OFFCURVE",
"331 667 OFFCURVE",
"331 773 CURVE SMOOTH",
"331 878 OFFCURVE",
"379 984 OFFCURVE",
"475 984 CURVE SMOOTH",
"571 984 OFFCURVE",
"619 876 OFFCURVE",
"619 770 CURVE SMOOTH",
"619 662 OFFCURVE",
"570 557 OFFCURVE",
"476 557 CURVE SMOOTH"
);
}
);
width = 951;
}
);
unicode = 00BA;
},
{
glyphname = zero;
lastChange = "2016-07-01 10:56:26 +0000";
layers = (
{
layerId = "849A9C4C-BF7C-40C5-8614-1FD725A2A379";
paths = (
{
closed = 1;
nodes = (
"964 -28 OFFCURVE",
"1042 423 OFFCURVE",
"1042 774 CURVE SMOOTH",
"1042 1119 OFFCURVE",
"967 1564 OFFCURVE",
"568 1564 CURVE SMOOTH",
"168 1564 OFFCURVE",
"97 1119 OFFCURVE",
"97 772 CURVE SMOOTH",
"97 423 OFFCURVE",
"169 -28 OFFCURVE",
"567 -28 CURVE SMOOTH"
);
},
{
closed = 1;
nodes = (
"441 212 OFFCURVE",
"386 318 OFFCURVE",
"386 850 CURVE SMOOTH",
"386 1088 OFFCURVE",
"397 1324 OFFCURVE",
"567 1324 CURVE SMOOTH",
"737 1324 OFFCURVE",
"754 1090 OFFCURVE",
"754 826 CURVE SMOOTH",
"754 307 OFFCURVE",
"688 212 OFFCURVE",
"568 212 CURVE SMOOTH"
);
}
);
width = 1138;
}
);
unicode = 0030;
},
{
glyphname = one;
lastChange = "2016-07-01 10:56:26 +0000";
layers = (
{
layerId = "849A9C4C-BF7C-40C5-8614-1FD725A2A379";
paths = (
{
closed = 1;
nodes = (
"829 0 LINE",
"841 251 LINE",
"642 251 LINE",
"642 1536 LINE",
"493 1536 LINE",
"144 1331 LINE",
"144 1116 LINE",
"354 1162 LINE",
"354 251 LINE",
"157 251 LINE",
"157 0 LINE"
);
}
);
width = 929;
}
);
unicode = 0031;
},
{
glyphname = two;
lastChange = "2016-07-01 10:56:26 +0000";
layers = (
{
layerId = "849A9C4C-BF7C-40C5-8614-1FD725A2A379";
paths = (
{
closed = 1;
nodes = (
"957 0 LINE",
"981 252 LINE",
"451 252 LINE",
"700 493 OFFCURVE",
"993 820 OFFCURVE",
"993 1146 CURVE SMOOTH",
"993 1390 OFFCURVE",
"812 1564 OFFCURVE",
"551 1564 CURVE SMOOTH",
"288 1564 OFFCURVE",
"127 1362 OFFCURVE",
"85 1148 CURVE",
"331 1070 LINE",
"353 1202 OFFCURVE",
"436 1324 OFFCURVE",
"545 1324 CURVE SMOOTH",
"657 1324 OFFCURVE",
"703 1222 OFFCURVE",
"703 1150 CURVE SMOOTH",
"703 835 OFFCURVE",
"346 519 OFFCURVE",
"118 223 CURVE",
"118 0 LINE"
);
}
);
width = 1068;
}
);
unicode = 0032;
},
{
glyphname = three;
lastChange = "2016-07-01 10:56:26 +0000";
layers = (
{
layerId = "849A9C4C-BF7C-40C5-8614-1FD725A2A379";
paths = (
{
closed = 1;
nodes = (
"747 -28 OFFCURVE",
"966 127 OFFCURVE",
"966 411 CURVE SMOOTH",
"966 617 OFFCURVE",
"856 755 OFFCURVE",
"689 808 CURVE",
"860 866 OFFCURVE",
"946 998 OFFCURVE",
"946 1171 CURVE SMOOTH",
"946 1427 OFFCURVE",
"734 1564 OFFCURVE",
"524 1564 CURVE SMOOTH",
"329 1564 OFFCURVE",
"177 1491 OFFCURVE",
"83 1295 CURVE",
"289 1178 LINE",
"325 1278 OFFCURVE",
"407 1325 OFFCURVE",
"484 1325 CURVE SMOOTH",
"572 1325 OFFCURVE",
"655 1263 OFFCURVE",
"655 1148 CURVE SMOOTH",
"655 1146 LINE SMOOTH",
"653 966 OFFCURVE",
"517 886 OFFCURVE",
"352 886 CURVE",
"352 686 LINE",
"530 686 OFFCURVE",
"677 653 OFFCURVE",
"677 441 CURVE SMOOTH",
"677 280 OFFCURVE",
"591 213 OFFCURVE",
"498 213 CURVE SMOOTH",
"399 213 OFFCURVE",
"315 256 OFFCURVE",
"266 395 CURVE",
"48 300 LINE",
"104 71 OFFCURVE",
"300 -28 OFFCURVE",
"511 -28 CURVE SMOOTH"
);
}
);
width = 1068;
}
);
unicode = 0033;
},
{
glyphname = four;
lastChange = "2016-07-01 10:56:26 +0000";
layers = (
{
layerId = "849A9C4C-BF7C-40C5-8614-1FD725A2A379";
paths = (
{
closed = 1;
nodes = (
"852 12 LINE",
"852 384 LINE",
"1020 384 LINE",
"1044 614 LINE",
"852 614 LINE",
"852 1536 LINE",
"551 1536 LINE",
"50 614 LINE",
"50 384 LINE",
"564 384 LINE",
"564 -12 LINE"
);
},
{
closed = 1;
nodes = (
"564 1153 LINE",
"564 614 LINE",
"288 614 LINE"
);
}
);
width = 1068;
}
);
unicode = 0034;
},
{
glyphname = five;
lastChange = "2016-07-01 10:56:26 +0000";
layers = (
{
layerId = "849A9C4C-BF7C-40C5-8614-1FD725A2A379";
paths = (
{
closed = 1;
nodes = (
"824 -28 OFFCURVE",
"1018 194 OFFCURVE",
"1018 498 CURVE SMOOTH",
"1018 758 OFFCURVE",
"849 979 OFFCURVE",
"618 979 CURVE SMOOTH",
"531 979 OFFCURVE",
"458 957 OFFCURVE",
"409 938 CURVE",
"456 1296 LINE",
"922 1296 LINE",
"946 1536 LINE",
"232 1536 LINE",
"145 709 LINE",
"350 642 LINE",
"398 711 OFFCURVE",
"462 742 OFFCURVE",
"525 742 CURVE SMOOTH",
"675 742 OFFCURVE",
"742 611 OFFCURVE",
"742 479 CURVE SMOOTH",
"742 346 OFFCURVE",
"673 212 OFFCURVE",
"550 212 CURVE SMOOTH",
"428 212 OFFCURVE",
"347 323 OFFCURVE",
"329 421 CURVE",
"98 335 LINE",
"149 95 OFFCURVE",
"353 -28 OFFCURVE",
"557 -28 CURVE SMOOTH"
);
}
);
width = 1068;
}
);
unicode = 0035;
},
{
glyphname = six;
lastChange = "2016-07-01 10:56:26 +0000";
layers = (
{
layerId = "849A9C4C-BF7C-40C5-8614-1FD725A2A379";
paths = (
{
closed = 1;
nodes = (
"818 -28 OFFCURVE",
"983 242 OFFCURVE",
"983 502 CURVE SMOOTH",
"983 735 OFFCURVE",
"851 933 OFFCURVE",
"639 933 CURVE SMOOTH",
"556 933 OFFCURVE",
"466 902 OFFCURVE",
"403 855 CURVE",
"403 1020 OFFCURVE",
"417 1324 OFFCURVE",
"583 1324 CURVE SMOOTH",
"688 1324 OFFCURVE",
"705 1202 OFFCURVE",
"718 1140 CURVE",
"942 1192 LINE",
"909 1430 OFFCURVE",
"776 1564 OFFCURVE",
"591 1564 CURVE SMOOTH",
"275 1564 OFFCURVE",
"110 1172 OFFCURVE",
"110 726 CURVE SMOOTH",
"110 435 OFFCURVE",
"180 -28 OFFCURVE",
"542 -28 CURVE SMOOTH"
);
},
{
closed = 1;
nodes = (
"445 212 OFFCURVE",
"402 317 OFFCURVE",
"402 535 CURVE SMOOTH",
"402 568 OFFCURVE",
"403 606 OFFCURVE",
"405 646 CURVE",
"465 679 OFFCURVE",
"502 691 OFFCURVE",
"541 691 CURVE SMOOTH",
"660 691 OFFCURVE",
"700 578 OFFCURVE",
"700 465 CURVE SMOOTH",
"700 365 OFFCURVE",
"669 212 OFFCURVE",
"546 212 CURVE SMOOTH"
);
}
);
width = 1068;
}
);
unicode = 0036;
},
{
glyphname = seven;
lastChange = "2016-07-01 10:56:26 +0000";
layers = (
{
layerId = "849A9C4C-BF7C-40C5-8614-1FD725A2A379";
paths = (
{
closed = 1;
nodes = (
"595 0 LINE",
"595 383 OFFCURVE",
"738 864 OFFCURVE",
"970 1323 CURVE",
"970 1536 LINE",
"142 1536 LINE",
"118 1288 LINE",
"619 1288 LINE",
"427 827 OFFCURVE",
"300 404 OFFCURVE",
"265 0 CURVE"
);
}
);
width = 1068;
}
);
unicode = 0037;
},
{
glyphname = eight;
lastChange = "2016-07-29 09:16:56 +0000";
layers = (
{
layerId = "849A9C4C-BF7C-40C5-8614-1FD725A2A379";
paths = (
{
closed = 1;
nodes = (
"778 -28 OFFCURVE",
"994 147 OFFCURVE",
"994 430 CURVE SMOOTH",
"994 652 OFFCURVE",
"862 753 OFFCURVE",
"693 859 CURVE",
"695 827 LINE",
"828 902 OFFCURVE",
"939 1027 OFFCURVE",
"939 1201 CURVE SMOOTH",
"939 1426 OFFCURVE",
"756 1564 OFFCURVE",
"542 1564 CURVE SMOOTH",
"305 1564 OFFCURVE",
"119 1395 OFFCURVE",
"119 1138 CURVE SMOOTH",
"119 971 OFFCURVE",
"198 857 OFFCURVE",
"361 770 CURVE",
"356 801 LINE",
"197 720 OFFCURVE",
"74 580 OFFCURVE",
"74 377 CURVE SMOOTH",
"74 103 OFFCURVE",
"300 -28 OFFCURVE",
"522 -28 CURVE SMOOTH"
);
},
{
closed = 1;
nodes = (
"426 212 OFFCURVE",
"362 270 OFFCURVE",
"362 408 CURVE SMOOTH",
"362 551 OFFCURVE",
"431 633 OFFCURVE",
"515 691 CURVE",
"466 687 LINE",
"588 634 OFFCURVE",
"707 547 OFFCURVE",
"707 388 CURVE SMOOTH",
"707 257 OFFCURVE",
"627 212 OFFCURVE",
"533 212 CURVE SMOOTH"
);
},
{
closed = 1;
nodes = (
"565 934 LINE",
"496 970 OFFCURVE",
"388 1056 OFFCURVE",
"388 1176 CURVE SMOOTH",
"388 1270 OFFCURVE",
"455 1324 OFFCURVE",
"543 1324 CURVE SMOOTH",
"639 1324 OFFCURVE",
"694 1261 OFFCURVE",
"694 1171 CURVE SMOOTH",
"694 1057 OFFCURVE",
"606 980 OFFCURVE",
"520 930 CURVE"
);
}
);
width = 1068;
}
);
unicode = 0038;
},
{
glyphname = nine;
lastChange = "2016-07-01 10:56:26 +0000";
layers = (
{
layerId = "849A9C4C-BF7C-40C5-8614-1FD725A2A379";
paths = (
{
closed = 1;
nodes = (
"785 -28 OFFCURVE",
"969 311 OFFCURVE",
"969 795 CURVE SMOOTH",
"969 1092 OFFCURVE",
"900 1564 OFFCURVE",
"532 1564 CURVE SMOOTH",
"273 1564 OFFCURVE",
"100 1329 OFFCURVE",
"100 1053 CURVE SMOOTH",
"100 815 OFFCURVE",
"229 585 OFFCURVE",
"444 585 CURVE SMOOTH",
"523 585 OFFCURVE",
"614 616 OFFCURVE",
"677 663 CURVE",
"673 448 OFFCURVE",
"651 212 OFFCURVE",
"499 212 CURVE SMOOTH",
"394 212 OFFCURVE",
"377 325 OFFCURVE",
"362 397 CURVE",
"138 345 LINE",
"172 102 OFFCURVE",
"307 -28 OFFCURVE",
"490 -28 CURVE SMOOTH"
);
},
{
closed = 1;
nodes = (
"423 827 OFFCURVE",
"388 949 OFFCURVE",
"388 1060 CURVE SMOOTH",
"388 1166 OFFCURVE",
"420 1324 OFFCURVE",
"536 1324 CURVE SMOOTH",
"664 1324 OFFCURVE",
"683 1135 OFFCURVE",
"683 975 CURVE SMOOTH",
"683 938 OFFCURVE",
"682 912 OFFCURVE",
"678 872 CURVE",
"643 850 OFFCURVE",
"600 827 OFFCURVE",
"546 827 CURVE SMOOTH"
);
}
);
width = 1068;
}
);
unicode = 0039;
},
{
glyphname = onesuperior;
lastChange = "2016-07-01 10:56:26 +0000";
layers = (
{
layerId = "849A9C4C-BF7C-40C5-8614-1FD725A2A379";
paths = (
{
closed = 1;
nodes = (
"698 576 LINE",
"710 768 LINE",
"523 768 LINE",
"523 1536 LINE",
"422 1536 LINE",
"91 1331 LINE",
"91 1190 LINE",
"117 1190 LINE SMOOTH",
"144 1190 OFFCURVE",
"186 1194 OFFCURVE",
"221 1198 CURVE SMOOTH",
"283 1206 LINE",
"283 768 LINE",
"104 768 LINE",
"104 576 LINE"
);
}
);
width = 763;
}
);
unicode = 00B9;
},
{
glyphname = twosuperior;
lastChange = "2016-07-01 10:56:26 +0000";
layers = (
{
layerId = "849A9C4C-BF7C-40C5-8614-1FD725A2A379";
paths = (
{
closed = 1;
nodes = (
"691 576 LINE",
"691 652 OFFCURVE",
"707 692 OFFCURVE",
"707 768 CURVE",
"403 768 LINE",
"560 903 OFFCURVE",
"754 1099 OFFCURVE",
"754 1284 CURVE SMOOTH",
"754 1487 OFFCURVE",
"607 1568 OFFCURVE",
"434 1568 CURVE SMOOTH",
"247 1568 OFFCURVE",
"119 1453 OFFCURVE",
"87 1321 CURVE",
"326 1241 LINE",
"329 1266 OFFCURVE",
"334 1289 OFFCURVE",
"341 1309 CURVE SMOOTH",
"353 1344 OFFCURVE",
"373 1378 OFFCURVE",
"408 1378 CURVE SMOOTH",
"448 1378 OFFCURVE",
"469 1337 OFFCURVE",
"469 1286 CURVE SMOOTH",
"469 1105 OFFCURVE",
"236 918 OFFCURVE",
"87 749 CURVE",
"87 576 LINE"
);
}
);
width = 840;
}
);
unicode = 00B2;
},
{
glyphname = threesuperior;
lastChange = "2016-07-01 10:56:26 +0000";
layers = (
{
layerId = "849A9C4C-BF7C-40C5-8614-1FD725A2A379";
paths = (
{
closed = 1;
nodes = (
"585 528 OFFCURVE",
"753 635 OFFCURVE",
"753 830 CURVE SMOOTH",
"753 965 OFFCURVE",
"680 1039 OFFCURVE",
"552 1079 CURVE",
"724 1146 OFFCURVE",
"739 1257 OFFCURVE",
"739 1315 CURVE SMOOTH",
"739 1480 OFFCURVE",
"572 1567 OFFCURVE",
"402 1567 CURVE SMOOTH",
"256 1567 OFFCURVE",
"165 1511 OFFCURVE",
"85 1372 CURVE",
"292 1294 LINE",
"298 1310 OFFCURVE",
"305 1324 OFFCURVE",
"314 1337 CURVE SMOOTH",
"329 1360 OFFCURVE",
"349 1381 OFFCURVE",
"380 1381 CURVE SMOOTH",
"437 1381 OFFCURVE",
"466 1337 OFFCURVE",
"466 1289 CURVE SMOOTH",
"466 1185 OFFCURVE",
"379 1164 OFFCURVE",
"274 1164 CURVE",
"274 971 LINE",
"386 971 OFFCURVE",
"480 951 OFFCURVE",
"480 828 CURVE SMOOTH",
"480 772 OFFCURVE",
"441 722 OFFCURVE",
"377 722 CURVE SMOOTH",
"307 722 OFFCURVE",
"279 767 OFFCURVE",
"263 817 CURVE",
"48 754 LINE",
"88 602 OFFCURVE",
"234 528 OFFCURVE",
"390 528 CURVE SMOOTH"
);
}
);
width = 857;
}
);
unicode = 00B3;
},
{
glyphname = fraction;
lastChange = "2016-07-01 10:56:26 +0000";
layers = (
{
layerId = "849A9C4C-BF7C-40C5-8614-1FD725A2A379";
paths = (
{
closed = 1;
nodes = (
"367 0 LINE",
"568 1536 LINE",
"268 1536 LINE",
"67 0 LINE"
);
}
);
width = 634;
}
);
unicode = 2044;
},
{
glyphname = onehalf;
lastChange = "2016-07-01 10:56:26 +0000";
layers = (
{
layerId = "849A9C4C-BF7C-40C5-8614-1FD725A2A379";
paths = (
{
closed = 1;
nodes = (
"962 0 LINE",
"1346 1536 LINE",
"1058 1536 LINE",
"674 0 LINE"
);
},
{
closed = 1;
nodes = (
"672 576 LINE",
"684 768 LINE",
"497 768 LINE",
"497 1536 LINE",
"396 1536 LINE",
"65 1331 LINE",
"65 1190 LINE",
"91 1190 LINE SMOOTH",
"118 1190 OFFCURVE",
"160 1194 OFFCURVE",
"195 1198 CURVE SMOOTH",
"257 1206 LINE",
"257 768 LINE",
"78 768 LINE",
"78 576 LINE"
);
},
{
closed = 1;
nodes = (
"1871 0 LINE",
"1871 76 OFFCURVE",
"1887 116 OFFCURVE",
"1887 192 CURVE",
"1583 192 LINE",
"1740 327 OFFCURVE",
"1934 523 OFFCURVE",
"1934 708 CURVE SMOOTH",
"1934 911 OFFCURVE",
"1787 992 OFFCURVE",
"1614 992 CURVE SMOOTH",
"1427 992 OFFCURVE",
"1299 877 OFFCURVE",
"1267 745 CURVE",
"1506 665 LINE",
"1509 690 OFFCURVE",
"1514 713 OFFCURVE",
"1521 733 CURVE SMOOTH",
"1533 768 OFFCURVE",
"1553 802 OFFCURVE",
"1588 802 CURVE SMOOTH",
"1628 802 OFFCURVE",
"1649 761 OFFCURVE",
"1649 710 CURVE SMOOTH",
"1649 529 OFFCURVE",
"1416 342 OFFCURVE",
"1267 173 CURVE",
"1267 0 LINE"
);
}
);
width = 1984;
}
);
unicode = 00BD;
},
{
glyphname = onequarter;
lastChange = "2016-07-01 10:56:26 +0000";
layers = (
{
layerId = "849A9C4C-BF7C-40C5-8614-1FD725A2A379";
paths = (
{
closed = 1;
nodes = (
"968 0 LINE",
"1352 1536 LINE",
"1064 1536 LINE",
"680 0 LINE"
);
},
{
closed = 1;
nodes = (
"678 576 LINE",
"690 768 LINE",
"503 768 LINE",
"503 1536 LINE",
"402 1536 LINE",
"71 1331 LINE",
"71 1190 LINE",
"97 1190 LINE SMOOTH",
"124 1190 OFFCURVE",
"166 1194 OFFCURVE",
"201 1198 CURVE SMOOTH",
"263 1206 LINE",
"263 768 LINE",
"84 768 LINE",
"84 576 LINE"
);
},
{
closed = 1;
nodes = (
"1572 711 LINE",
"1572 370 LINE",
"1367 370 LINE"
);
},
{
closed = 1;
nodes = (
"1820 -32 LINE",
"1820 192 LINE",
"1929 192 LINE",
"1945 370 LINE",
"1820 370 LINE",
"1820 960 LINE",
"1534 960 LINE",
"1182 360 LINE",
"1182 192 LINE",
"1572 192 LINE",
"1572 -48 LINE"
);
}
);
width = 1991;
}
);
unicode = 00BC;
},
{
glyphname = threequarters;
lastChange = "2016-07-01 10:56:26 +0000";
layers = (
{
layerId = "849A9C4C-BF7C-40C5-8614-1FD725A2A379";
paths = (
{
closed = 1;
nodes = (
"957 0 LINE",
"1341 1536 LINE",
"1053 1536 LINE",
"669 0 LINE"
);
},
{
closed = 1;
nodes = (
"580 528 OFFCURVE",
"748 635 OFFCURVE",
"748 830 CURVE SMOOTH",
"748 965 OFFCURVE",
"675 1039 OFFCURVE",
"547 1079 CURVE",
"719 1146 OFFCURVE",
"734 1257 OFFCURVE",
"734 1315 CURVE SMOOTH",
"734 1480 OFFCURVE",
"567 1567 OFFCURVE",
"397 1567 CURVE SMOOTH",
"251 1567 OFFCURVE",
"160 1511 OFFCURVE",
"80 1372 CURVE",
"287 1294 LINE",
"293 1310 OFFCURVE",
"300 1324 OFFCURVE",
"309 1337 CURVE SMOOTH",
"324 1360 OFFCURVE",
"344 1381 OFFCURVE",
"375 1381 CURVE SMOOTH",
"432 1381 OFFCURVE",
"461 1337 OFFCURVE",
"461 1289 CURVE SMOOTH",
"461 1185 OFFCURVE",
"374 1164 OFFCURVE",
"269 1164 CURVE",
"269 971 LINE",
"381 971 OFFCURVE",
"475 951 OFFCURVE",
"475 828 CURVE SMOOTH",
"475 772 OFFCURVE",
"436 722 OFFCURVE",
"372 722 CURVE SMOOTH",
"302 722 OFFCURVE",
"274 767 OFFCURVE",
"258 817 CURVE",
"43 754 LINE",
"83 602 OFFCURVE",
"229 528 OFFCURVE",
"385 528 CURVE SMOOTH"
);
},
{
closed = 1;
nodes = (
"1561 711 LINE",
"1561 370 LINE",
"1356 370 LINE"
);
},
{
closed = 1;
nodes = (
"1809 -32 LINE",
"1809 192 LINE",
"1918 192 LINE",
"1934 370 LINE",
"1809 370 LINE",
"1809 960 LINE",
"1523 960 LINE",
"1171 360 LINE",
"1171 192 LINE",
"1561 192 LINE",
"1561 -48 LINE"
);
}
);
width = 1981;
}
);
unicode = 00BE;
},
{
glyphname = asterisk;
lastChange = "2016-07-01 10:56:26 +0000";
layers = (
{
layerId = "849A9C4C-BF7C-40C5-8614-1FD725A2A379";
paths = (
{
closed = 1;
nodes = (
"526 748 LINE",
"687 428 LINE",
"914 595 LINE",
"652 855 LINE",
"1002 909 LINE",
"922 1182 LINE",
"606 1030 LINE",
"657 1392 LINE",
"395 1392 LINE",
"446 1030 LINE",
"130 1182 LINE",
"50 909 LINE",
"400 855 LINE",
"138 595 LINE",
"365 428 LINE"
);
}
);
width = 1051;
}
);
unicode = 002A;
},
{
glyphname = backslash;
lastChange = "2016-07-01 10:56:26 +0000";
layers = (
{
layerId = "849A9C4C-BF7C-40C5-8614-1FD725A2A379";
paths = (
{
closed = 1;
nodes = (
"564 0 LINE",
"363 1536 LINE",
"63 1536 LINE",
"264 0 LINE"
);
}
);
width = 628;
}
);
unicode = 005C;
},
{
glyphname = periodcentered;
lastChange = "2016-07-01 10:56:26 +0000";
layers = (
{
anchors = (
{
name = _center;
position = "{259, 627}";
}
);
layerId = "849A9C4C-BF7C-40C5-8614-1FD725A2A379";
paths = (
{
closed = 1;
nodes = (
"402 480 LINE",
"402 768 LINE",
"114 768 LINE",
"114 480 LINE"
);
}
);
width = 516;
}
);
unicode = 00B7;
},
{
glyphname = bullet;
lastChange = "2016-07-01 10:56:26 +0000";
layers = (
{
layerId = "849A9C4C-BF7C-40C5-8614-1FD725A2A379";
paths = (
{
closed = 1;
nodes = (
"629 385 OFFCURVE",
"745 528 OFFCURVE",
"745 720 CURVE SMOOTH",
"745 912 OFFCURVE",
"629 1056 OFFCURVE",
"416 1056 CURVE SMOOTH",
"187 1056 OFFCURVE",
"72 912 OFFCURVE",
"72 720 CURVE SMOOTH",
"72 528 OFFCURVE",
"187 385 OFFCURVE",
"416 385 CURVE SMOOTH"
);
}
);
width = 818;
}
);
unicode = 2022;
},
{
glyphname = colon;
lastChange = "2016-07-01 10:56:26 +0000";
layers = (
{
layerId = "849A9C4C-BF7C-40C5-8614-1FD725A2A379";
paths = (
{
closed = 1;
nodes = (
"402 0 LINE",
"402 288 LINE",
"114 288 LINE",
"114 -12 LINE"
);
},
{
closed = 1;
nodes = (
"402 576 LINE",
"402 864 LINE",
"114 864 LINE",
"114 576 LINE"
);
}
);
width = 516;
}
);
unicode = 003A;
},
{
glyphname = comma;
lastChange = "2016-07-01 10:56:26 +0000";
layers = (
{
layerId = "849A9C4C-BF7C-40C5-8614-1FD725A2A379";
paths = (
{
closed = 1;
nodes = (
"192 -285 OFFCURVE",
"232 -273 OFFCURVE",
"267 -252 CURVE SMOOTH",
"327 -217 OFFCURVE",
"387 -144 OFFCURVE",
"387 0 CURVE SMOOTH",
"387 288 LINE",
"99 288 LINE",
"99 0 LINE",
"243 0 LINE",
"242 -18 OFFCURVE",
"238 -34 OFFCURVE",
"231 -48 CURVE SMOOTH",
"219 -72 OFFCURVE",
"195 -96 OFFCURVE",
"147 -96 CURVE",
"147 -288 LINE"
);
}
);
width = 488;
}
);
unicode = 002C;
},
{
glyphname = ellipsis;
lastChange = "2016-07-01 10:56:26 +0000";
layers = (
{
layerId = "849A9C4C-BF7C-40C5-8614-1FD725A2A379";
paths = (
{
closed = 1;
nodes = (
"1534 12 LINE",
"1534 288 LINE",
"1246 288 LINE",
"1246 -12 LINE"
);
},
{
closed = 1;
nodes = (
"390 12 LINE",
"390 288 LINE",
"102 288 LINE",
"102 -12 LINE"
);
},
{
closed = 1;
nodes = (
"962 12 LINE",
"962 288 LINE",
"674 288 LINE",
"674 -12 LINE"
);
}
);
width = 1633;
}
);
unicode = 2026;
},
{
glyphname = exclam;
lastChange = "2016-07-01 10:56:26 +0000";
layers = (
{
layerId = "849A9C4C-BF7C-40C5-8614-1FD725A2A379";
paths = (
{
closed = 1;
nodes = (
"368 448 LINE",
"415 1536 LINE",
"127 1536 LINE",
"176 448 LINE"
);
},
{
closed = 1;
nodes = (
"415 0 LINE",
"415 300 LINE",
"127 300 LINE",
"127 -12 LINE"
);
}
);
width = 543;
}
);
unicode = 0021;
},
{
glyphname = exclamdown;
lastChange = "2016-07-01 10:56:26 +0000";
layers = (
{
layerId = "849A9C4C-BF7C-40C5-8614-1FD725A2A379";
paths = (
{
closed = 1;
nodes = (
"415 -12 LINE",
"368 1076 LINE",
"176 1076 LINE",
"127 -12 LINE"
);
},
{
closed = 1;
nodes = (
"415 1224 LINE",
"415 1524 LINE",
"127 1536 LINE",
"127 1224 LINE"
);
}
);
width = 542;
}
);
unicode = 00A1;
},
{
glyphname = numbersign;
lastChange = "2016-07-01 10:56:26 +0000";
layers = (
{
layerId = "849A9C4C-BF7C-40C5-8614-1FD725A2A379";
paths = (
{
closed = 1;
nodes = (
"463 0 LINE",
"513 384 LINE",
"699 384 LINE",
"649 0 LINE",
"949 0 LINE",
"999 384 LINE",
"1171 384 LINE",
"1171 622 LINE",
"1030 622 LINE",
"1074 960 LINE",
"1219 960 LINE",
"1219 1198 LINE",
"1105 1198 LINE",
"1150 1536 LINE",
"850 1536 LINE",
"805 1198 LINE",
"619 1198 LINE",
"664 1536 LINE",
"364 1536 LINE",
"319 1198 LINE",
"112 1198 LINE",
"112 960 LINE",
"288 960 LINE",
"244 622 LINE",
"64 622 LINE",
"64 384 LINE",
"213 384 LINE",
"163 0 LINE"
);
},
{
closed = 1;
nodes = (
"588 960 LINE",
"774 960 LINE",
"730 622 LINE",
"544 622 LINE"
);
}
);
width = 1283;
}
);
unicode = 0023;
},
{
glyphname = period;
lastChange = "2016-07-01 10:56:26 +0000";
layers = (
{
layerId = "849A9C4C-BF7C-40C5-8614-1FD725A2A379";
paths = (
{
closed = 1;
nodes = (
"390 12 LINE",
"390 288 LINE",
"102 288 LINE",
"102 -12 LINE"
);
}
);
width = 489;
}
);
unicode = 002E;
},
{
glyphname = question;
lastChange = "2016-07-01 10:56:26 +0000";
layers = (
{
layerId = "849A9C4C-BF7C-40C5-8614-1FD725A2A379";
paths = (
{
closed = 1;
nodes = (
"435 384 LINE",
"435 396 LINE SMOOTH",
"435 781 OFFCURVE",
"836 610 OFFCURVE",
"836 1095 CURVE SMOOTH",
"836 1315 OFFCURVE",
"714 1546 OFFCURVE",
"438 1546 CURVE SMOOTH",
"214 1546 OFFCURVE",
"58 1377 OFFCURVE",
"50 1133 CURVE",
"323 1121 LINE",
"331 1187 OFFCURVE",
"342 1318 OFFCURVE",
"431 1318 CURVE SMOOTH",
"547 1318 OFFCURVE",
"547 1157 OFFCURVE",
"547 1105 CURVE SMOOTH",
"547 738 OFFCURVE",
"142 963 OFFCURVE",
"195 384 CURVE"
);
},
{
closed = 1;
nodes = (
"458 0 LINE",
"458 288 LINE",
"170 288 LINE",
"170 -12 LINE"
);
}
);
width = 885;
}
);
unicode = 003F;
},
{
glyphname = questiondown;
lastChange = "2016-07-01 10:56:26 +0000";
layers = (
{
layerId = "849A9C4C-BF7C-40C5-8614-1FD725A2A379";
paths = (
{
closed = 1;
nodes = (
"672 -12 OFFCURVE",
"828 157 OFFCURVE",
"836 401 CURVE",
"563 413 LINE",
"555 347 OFFCURVE",
"544 216 OFFCURVE",
"455 216 CURVE SMOOTH",
"339 216 OFFCURVE",
"339 377 OFFCURVE",
"339 429 CURVE SMOOTH",
"339 796 OFFCURVE",
"744 571 OFFCURVE",
"691 1150 CURVE",
"451 1150 LINE",
"451 1138 LINE SMOOTH",
"451 753 OFFCURVE",
"50 924 OFFCURVE",
"50 439 CURVE SMOOTH",
"50 219 OFFCURVE",
"172 -12 OFFCURVE",
"448 -12 CURVE SMOOTH"
);
},
{
closed = 1;
nodes = (
"716 1246 LINE",
"716 1546 LINE",
"428 1534 LINE",
"428 1246 LINE"
);
}
);
width = 885;
}
);
unicode = 00BF;
},
{
glyphname = quotedbl;
lastChange = "2016-07-01 10:56:26 +0000";
layers = (
{
layerId = "849A9C4C-BF7C-40C5-8614-1FD725A2A379";
paths = (
{
closed = 1;
nodes = (
"706 960 LINE",
"754 1536 LINE",
"466 1536 LINE",
"514 948 LINE"
);
},
{
closed = 1;
nodes = (
"322 960 LINE",
"370 1536 LINE",
"82 1536 LINE",
"130 948 LINE"
);
}
);
width = 836;
}
);
unicode = 0022;
},
{
glyphname = quotesingle;
lastChange = "2016-07-01 10:56:26 +0000";
layers = (
{
layerId = "849A9C4C-BF7C-40C5-8614-1FD725A2A379";
paths = (
{
closed = 1;
nodes = (
"322 960 LINE",
"370 1536 LINE",
"82 1536 LINE",
"130 948 LINE"
);
}
);
width = 451;
}
);
unicode = 0027;
},
{
glyphname = semicolon;
lastChange = "2016-07-01 10:56:26 +0000";
layers = (
{
layerId = "849A9C4C-BF7C-40C5-8614-1FD725A2A379";
paths = (
{
closed = 1;
nodes = (
"208 -285 OFFCURVE",
"248 -273 OFFCURVE",
"283 -252 CURVE SMOOTH",
"343 -217 OFFCURVE",
"403 -144 OFFCURVE",
"403 0 CURVE SMOOTH",
"403 288 LINE",
"115 288 LINE",
"115 -12 LINE",
"259 0 LINE",
"258 -18 OFFCURVE",
"254 -34 OFFCURVE",
"247 -48 CURVE SMOOTH",
"235 -72 OFFCURVE",
"211 -96 OFFCURVE",
"163 -96 CURVE",
"163 -288 LINE"
);
},
{
closed = 1;
nodes = (
"403 576 LINE",
"403 864 LINE",
"115 864 LINE",
"115 576 LINE"
);
}
);
width = 517;
}
);
unicode = 003B;
},
{
glyphname = slash;
lastChange = "2016-07-01 10:56:26 +0000";
layers = (
{
layerId = "849A9C4C-BF7C-40C5-8614-1FD725A2A379";
paths = (
{
closed = 1;
nodes = (
"364 0 LINE",
"565 1536 LINE",
"265 1536 LINE",
"64 0 LINE"
);
}
);
width = 628;
}
);
unicode = 002F;
},
{
glyphname = underscore;
lastChange = "2016-07-01 10:56:26 +0000";
layers = (
{
layerId = "849A9C4C-BF7C-40C5-8614-1FD725A2A379";
paths = (
{
closed = 1;
nodes = (
"566 -238 LINE",
"566 0 LINE",
"-10 0 LINE",
"-10 -238 LINE"
);
}
);
width = 556;
}
);
unicode = 005F;
},
{
glyphname = braceleft;
lastChange = "2016-07-01 10:56:26 +0000";
layers = (
{
layerId = "849A9C4C-BF7C-40C5-8614-1FD725A2A379";
paths = (
{
closed = 1;
nodes = (
"621 75 LINE",
"429 75 OFFCURVE",
"429 228 OFFCURVE",
"429 551 CURVE SMOOTH",
"429 631 OFFCURVE",
"429 723 OFFCURVE",
"237 787 CURVE",
"429 854 OFFCURVE",
"429 943 OFFCURVE",
"429 1024 CURVE SMOOTH",
"429 1326 OFFCURVE",
"429 1470 OFFCURVE",
"621 1470 CURVE",
"621 1632 LINE",
"237 1632 OFFCURVE",
"141 1416 OFFCURVE",
"141 1024 CURVE SMOOTH",
"141 960 OFFCURVE",
"141 882 OFFCURVE",
"45 882 CURVE",
"45 693 LINE",
"141 693 OFFCURVE",
"141 615 OFFCURVE",
"141 551 CURVE SMOOTH",
"141 140 OFFCURVE",
"237 -87 OFFCURVE",
"621 -87 CURVE"
);
}
);
width = 674;
}
);
unicode = 007B;
},
{
glyphname = braceright;
lastChange = "2016-07-01 10:56:26 +0000";
layers = (
{
layerId = "849A9C4C-BF7C-40C5-8614-1FD725A2A379";
paths = (
{
closed = 1;
nodes = (
"436 -87 OFFCURVE",
"532 140 OFFCURVE",
"532 551 CURVE SMOOTH",
"532 615 OFFCURVE",
"532 693 OFFCURVE",
"628 693 CURVE",
"628 882 LINE",
"532 882 OFFCURVE",
"532 960 OFFCURVE",
"532 1024 CURVE SMOOTH",
"532 1416 OFFCURVE",
"436 1632 OFFCURVE",
"52 1632 CURVE",
"52 1470 LINE",
"244 1470 OFFCURVE",
"244 1326 OFFCURVE",
"244 1024 CURVE SMOOTH",
"244 934 OFFCURVE",
"245 838 OFFCURVE",
"492 769 CURVE",
"492 804 LINE",
"245 739 OFFCURVE",
"244 640 OFFCURVE",
"244 551 CURVE SMOOTH",
"244 228 OFFCURVE",
"244 75 OFFCURVE",
"52 75 CURVE",
"52 -87 LINE"
);
}
);
width = 673;
}
);
unicode = 007D;
},
{
glyphname = bracketleft;
lastChange = "2016-07-01 10:56:26 +0000";
layers = (
{
layerId = "849A9C4C-BF7C-40C5-8614-1FD725A2A379";
paths = (
{
closed = 1;
nodes = (
"633 -96 LINE",
"633 95 LINE",
"441 95 LINE",
"441 1440 LINE",
"633 1440 LINE",
"633 1632 LINE",
"141 1632 LINE",
"141 -96 LINE"
);
}
);
width = 692;
}
);
unicode = 005B;
},
{
glyphname = bracketright;
lastChange = "2016-07-01 10:56:26 +0000";
layers = (
{
layerId = "849A9C4C-BF7C-40C5-8614-1FD725A2A379";
paths = (
{
closed = 1;
nodes = (
"552 -96 LINE",
"552 1632 LINE",
"60 1632 LINE",
"60 1440 LINE",
"252 1440 LINE",
"252 95 LINE",
"60 95 LINE",
"60 -96 LINE"
);
}
);
width = 693;
}
);
unicode = 005D;
},
{
glyphname = parenleft;
lastChange = "2016-07-01 10:56:26 +0000";
layers = (
{
layerId = "849A9C4C-BF7C-40C5-8614-1FD725A2A379";
paths = (
{
closed = 1;
nodes = (
"627 113 LINE",
"443 129 OFFCURVE",
"350 436 OFFCURVE",
"350 745 CURVE SMOOTH",
"350 1044 OFFCURVE",
"443 1345 OFFCURVE",
"627 1380 CURVE",
"627 1563 LINE",
"253 1551 OFFCURVE",
"62 1149 OFFCURVE",
"62 745 CURVE SMOOTH",
"62 349 OFFCURVE",
"246 -44 OFFCURVE",
"627 -76 CURVE"
);
}
);
width = 682;
}
);
unicode = 0028;
},
{
glyphname = parenright;
lastChange = "2016-07-01 10:56:26 +0000";
layers = (
{
layerId = "849A9C4C-BF7C-40C5-8614-1FD725A2A379";
paths = (
{
closed = 1;
nodes = (
"437 -44 OFFCURVE",
"621 349 OFFCURVE",
"621 745 CURVE SMOOTH",
"621 1149 OFFCURVE",
"429 1551 OFFCURVE",
"56 1563 CURVE",
"56 1380 LINE",
"240 1345 OFFCURVE",
"333 1044 OFFCURVE",
"333 745 CURVE SMOOTH",
"333 436 OFFCURVE",
"240 129 OFFCURVE",
"56 113 CURVE",
"56 -76 LINE"
);
}
);
width = 683;
}
);
unicode = 0029;
},
{
glyphname = emdash;
lastChange = "2016-07-01 10:56:26 +0000";
layers = (
{
layerId = "849A9C4C-BF7C-40C5-8614-1FD725A2A379";
paths = (
{
closed = 1;
nodes = (
"1266 480 LINE",
"1266 718 LINE",
"114 718 LINE",
"114 480 LINE"
);
}
);
width = 1379;
}
);
unicode = 2014;
},
{
glyphname = endash;
lastChange = "2016-07-01 10:56:26 +0000";
layers = (
{
layerId = "849A9C4C-BF7C-40C5-8614-1FD725A2A379";
paths = (
{
closed = 1;
nodes = (
"690 480 LINE",
"690 718 LINE",
"114 718 LINE",
"114 480 LINE"
);
}
);
width = 804;
}
);
unicode = 2013;
},
{
glyphname = hyphen;
lastChange = "2016-07-01 10:56:26 +0000";
layers = (
{
layerId = "849A9C4C-BF7C-40C5-8614-1FD725A2A379";
paths = (
{
closed = 1;
nodes = (
"690 480 LINE",
"690 718 LINE",
"114 718 LINE",
"114 480 LINE"
);
}
);
width = 804;
}
);
unicode = 002D;
},
{
glyphname = guillemetleft;
lastChange = "2016-07-01 10:56:26 +0000";
layers = (
{
layerId = "849A9C4C-BF7C-40C5-8614-1FD725A2A379";
paths = (
{
closed = 1;
nodes = (
"1152 402 LINE",
"825 607 LINE",
"1126 833 LINE",
"1140 1094 LINE",
"630 704 LINE",
"630 439 LINE",
"1138 59 LINE"
);
},
{
closed = 1;
nodes = (
"576 402 LINE",
"249 607 LINE",
"550 833 LINE",
"564 1094 LINE",
"54 704 LINE",
"54 439 LINE",
"562 59 LINE"
);
}
);
width = 1244;
}
);
unicode = 00AB;
},
{
glyphname = guillemetright;
lastChange = "2016-07-01 10:56:26 +0000";
layers = (
{
layerId = "849A9C4C-BF7C-40C5-8614-1FD725A2A379";
paths = (
{
closed = 1;
nodes = (
"1190 439 LINE",
"1190 704 LINE",
"680 1094 LINE",
"694 833 LINE",
"995 607 LINE",
"668 402 LINE",
"682 59 LINE"
);
},
{
closed = 1;
nodes = (
"614 439 LINE",
"614 704 LINE",
"104 1094 LINE",
"118 833 LINE",
"419 607 LINE",
"92 402 LINE",
"106 59 LINE"
);
}
);
width = 1244;
}
);
unicode = 00BB;
},
{
glyphname = guilsinglleft;
lastChange = "2016-07-01 10:56:26 +0000";
layers = (
{
layerId = "849A9C4C-BF7C-40C5-8614-1FD725A2A379";
paths = (
{
closed = 1;
nodes = (
"706 402 LINE",
"299 607 LINE",
"680 833 LINE",
"694 1094 LINE",
"54 704 LINE",
"54 439 LINE",
"692 59 LINE"
);
}
);
width = 800;
}
);
unicode = 2039;
},
{
glyphname = guilsinglright;
lastChange = "2016-07-01 10:56:26 +0000";
layers = (
{
layerId = "849A9C4C-BF7C-40C5-8614-1FD725A2A379";
paths = (
{
closed = 1;
nodes = (
"746 439 LINE",
"746 704 LINE",
"106 1094 LINE",
"120 833 LINE",
"501 607 LINE",
"94 402 LINE",
"108 59 LINE"
);
}
);
width = 800;
}
);
unicode = 203A;
},
{
glyphname = quotedblbase;
lastChange = "2016-07-01 10:56:26 +0000";
layers = (
{
layerId = "849A9C4C-BF7C-40C5-8614-1FD725A2A379";
paths = (
{
closed = 1;
nodes = (
"577 -285 OFFCURVE",
"617 -273 OFFCURVE",
"652 -252 CURVE SMOOTH",
"712 -217 OFFCURVE",
"772 -144 OFFCURVE",
"772 0 CURVE SMOOTH",
"772 288 LINE",
"484 288 LINE",
"484 0 LINE",
"628 0 LINE",
"627 -18 OFFCURVE",
"623 -34 OFFCURVE",
"616 -48 CURVE SMOOTH",
"604 -72 OFFCURVE",
"580 -96 OFFCURVE",
"532 -96 CURVE",
"532 -288 LINE"
);
},
{
closed = 1;
nodes = (
"193 -285 OFFCURVE",
"233 -273 OFFCURVE",
"268 -252 CURVE SMOOTH",
"328 -217 OFFCURVE",
"388 -144 OFFCURVE",
"388 0 CURVE SMOOTH",
"388 288 LINE",
"100 288 LINE",
"100 0 LINE",
"244 0 LINE",
"243 -18 OFFCURVE",
"239 -34 OFFCURVE",
"232 -48 CURVE SMOOTH",
"220 -72 OFFCURVE",
"196 -96 OFFCURVE",
"148 -96 CURVE",
"148 -288 LINE"
);
}
);
width = 873;
}
);
unicode = 201E;
},
{
glyphname = quotedblleft;
lastChange = "2016-07-01 10:56:26 +0000";
layers = (
{
layerId = "849A9C4C-BF7C-40C5-8614-1FD725A2A379";
paths = (
{
closed = 1;
nodes = (
"768 960 LINE",
"768 1248 LINE",
"624 1248 LINE",
"625 1266 OFFCURVE",
"629 1282 OFFCURVE",
"636 1296 CURVE SMOOTH",
"648 1320 OFFCURVE",
"672 1344 OFFCURVE",
"720 1344 CURVE",
"720 1536 LINE",
"675 1533 OFFCURVE",
"635 1521 OFFCURVE",
"600 1500 CURVE SMOOTH",
"540 1463 OFFCURVE",
"480 1392 OFFCURVE",
"480 1248 CURVE SMOOTH",
"480 948 LINE"
);
},
{
closed = 1;
nodes = (
"384 960 LINE",
"384 1248 LINE",
"240 1248 LINE",
"241 1266 OFFCURVE",
"245 1282 OFFCURVE",
"252 1296 CURVE SMOOTH",
"264 1320 OFFCURVE",
"288 1344 OFFCURVE",
"336 1344 CURVE",
"336 1536 LINE",
"291 1533 OFFCURVE",
"251 1521 OFFCURVE",
"216 1500 CURVE SMOOTH",
"156 1463 OFFCURVE",
"96 1392 OFFCURVE",
"96 1248 CURVE SMOOTH",
"96 948 LINE"
);
}
);
width = 859;
}
);
unicode = 201C;
},
{
glyphname = quotedblright;
lastChange = "2016-07-01 10:56:26 +0000";
layers = (
{
layerId = "849A9C4C-BF7C-40C5-8614-1FD725A2A379";
paths = (
{
closed = 1;
nodes = (
"564 963 OFFCURVE",
"604 975 OFFCURVE",
"639 996 CURVE SMOOTH",
"699 1031 OFFCURVE",
"759 1104 OFFCURVE",
"759 1248 CURVE SMOOTH",
"759 1536 LINE",
"471 1536 LINE",
"471 1236 LINE",
"615 1248 LINE",
"614 1230 OFFCURVE",
"610 1214 OFFCURVE",
"603 1200 CURVE SMOOTH",
"591 1176 OFFCURVE",
"567 1152 OFFCURVE",
"519 1152 CURVE",
"519 960 LINE"
);
},
{
closed = 1;
nodes = (
"180 963 OFFCURVE",
"220 975 OFFCURVE",
"255 996 CURVE SMOOTH",
"315 1031 OFFCURVE",
"375 1104 OFFCURVE",
"375 1248 CURVE SMOOTH",
"375 1536 LINE",
"87 1536 LINE",
"87 1236 LINE",
"231 1248 LINE",
"230 1230 OFFCURVE",
"226 1214 OFFCURVE",
"219 1200 CURVE SMOOTH",
"207 1176 OFFCURVE",
"183 1152 OFFCURVE",
"135 1152 CURVE",
"135 960 LINE"
);
}
);
width = 842;
}
);
unicode = 201D;
},
{
glyphname = quoteleft;
lastChange = "2016-07-01 10:56:26 +0000";
layers = (
{
layerId = "849A9C4C-BF7C-40C5-8614-1FD725A2A379";
paths = (
{
closed = 1;
nodes = (
"434 930 LINE",
"434 1248 LINE",
"241 1248 LINE",
"242 1266 OFFCURVE",
"248 1282 OFFCURVE",
"259 1296 CURVE SMOOTH",
"278 1320 OFFCURVE",
"313 1344 OFFCURVE",
"386 1344 CURVE",
"386 1536 LINE",
"331 1533 OFFCURVE",
"283 1521 OFFCURVE",
"241 1500 CURVE SMOOTH",
"169 1463 OFFCURVE",
"97 1393 OFFCURVE",
"97 1248 CURVE SMOOTH",
"97 918 LINE"
);
}
);
width = 524;
}
);
unicode = 2018;
},
{
glyphname = quoteright;
lastChange = "2016-07-01 10:56:26 +0000";
layers = (
{
layerId = "849A9C4C-BF7C-40C5-8614-1FD725A2A379";
paths = (
{
closed = 1;
nodes = (
"180 963 OFFCURVE",
"220 975 OFFCURVE",
"255 996 CURVE SMOOTH",
"315 1031 OFFCURVE",
"375 1104 OFFCURVE",
"375 1248 CURVE SMOOTH",
"375 1536 LINE",
"87 1536 LINE",
"87 1236 LINE",
"231 1248 LINE",
"230 1230 OFFCURVE",
"226 1214 OFFCURVE",
"219 1200 CURVE SMOOTH",
"207 1176 OFFCURVE",
"183 1152 OFFCURVE",
"135 1152 CURVE",
"135 960 LINE"
);
}
);
width = 458;
}
);
unicode = 2019;
},
{
glyphname = quotesinglbase;
lastChange = "2016-07-01 10:56:26 +0000";
layers = (
{
layerId = "849A9C4C-BF7C-40C5-8614-1FD725A2A379";
paths = (
{
closed = 1;
nodes = (
"193 -285 OFFCURVE",
"233 -273 OFFCURVE",
"268 -252 CURVE SMOOTH",
"328 -217 OFFCURVE",
"388 -144 OFFCURVE",
"388 0 CURVE SMOOTH",
"388 288 LINE",
"100 288 LINE",
"100 0 LINE",
"244 0 LINE",
"243 -18 OFFCURVE",
"239 -34 OFFCURVE",
"232 -48 CURVE SMOOTH",
"220 -72 OFFCURVE",
"196 -96 OFFCURVE",
"148 -96 CURVE",
"148 -288 LINE"
);
}
);
width = 489;
}
);
unicode = 201A;
},
{
glyphname = cedi;
lastChange = "2016-07-01 10:56:26 +0000";
layers = (
{
background = {
paths = (
{
closed = 1;
nodes = (
"636 159 LINE",
"636 1632 LINE",
"492 1632 LINE",
"492 159 LINE"
);
},
{
closed = 1;
nodes = (
"492 45 LINE",
"492 -96 LINE",
"636 -96 LINE",
"636 48 LINE"
);
},
{
closed = 1;
nodes = (
"875 22 OFFCURVE",
"1021 263 OFFCURVE",
"1021 523 CURVE",
"766 547 LINE",
"754 434 OFFCURVE",
"724 262 OFFCURVE",
"584 262 CURVE SMOOTH",
"394 262 OFFCURVE",
"365 535 OFFCURVE",
"365 800 CURVE SMOOTH",
"365 1001 OFFCURVE",
"394 1264 OFFCURVE",
"555 1264 CURVE SMOOTH",
"722 1264 OFFCURVE",
"729 1021 OFFCURVE",
"729 995 CURVE",
"1019 1010 LINE",
"1019 1252 OFFCURVE",
"854 1504 OFFCURVE",
"572 1504 CURVE SMOOTH",
"197 1504 OFFCURVE",
"65 1118 OFFCURVE",
"65 800 CURVE SMOOTH",
"65 435 OFFCURVE",
"163 22 OFFCURVE",
"565 22 CURVE SMOOTH"
);
}
);
};
layerId = "849A9C4C-BF7C-40C5-8614-1FD725A2A379";
paths = (
{
closed = 1;
nodes = (
"875 22 OFFCURVE",
"1021 263 OFFCURVE",
"1021 523 CURVE",
"766 547 LINE",
"754 434 OFFCURVE",
"724 262 OFFCURVE",
"584 262 CURVE SMOOTH",
"394 262 OFFCURVE",
"365 535 OFFCURVE",
"365 800 CURVE SMOOTH",
"365 1001 OFFCURVE",
"394 1264 OFFCURVE",
"555 1264 CURVE SMOOTH",
"722 1264 OFFCURVE",
"729 1021 OFFCURVE",
"729 995 CURVE",
"1019 1010 LINE",
"1019 1252 OFFCURVE",
"854 1504 OFFCURVE",
"572 1504 CURVE SMOOTH",
"197 1504 OFFCURVE",
"65 1118 OFFCURVE",
"65 800 CURVE SMOOTH",
"65 435 OFFCURVE",
"163 22 OFFCURVE",
"565 22 CURVE SMOOTH"
);
},
{
closed = 1;
nodes = (
"646 -96 LINE",
"646 1632 LINE",
"502 1632 LINE",
"502 -96 LINE"
);
}
);
width = 1090;
}
);
unicode = 20B5;
},
{
glyphname = cent;
lastChange = "2016-07-01 10:56:26 +0000";
layers = (
{
layerId = "849A9C4C-BF7C-40C5-8614-1FD725A2A379";
paths = (
{
closed = 1;
nodes = (
"578 -192 LINE",
"578 -25 LINE",
"816 -9 OFFCURVE",
"889 161 OFFCURVE",
"921 405 CURVE",
"681 432 LINE",
"677 367 OFFCURVE",
"660 235 OFFCURVE",
"578 218 CURVE",
"578 918 LINE",
"634 878 OFFCURVE",
"647 792 OFFCURVE",
"655 742 CURVE",
"928 754 LINE",
"920 971 OFFCURVE",
"783 1129 OFFCURVE",
"578 1161 CURVE",
"578 1344 LINE",
"439 1344 LINE",
"439 1162 LINE",
"173 1126 OFFCURVE",
"52 842 OFFCURVE",
"52 571 CURVE SMOOTH",
"52 297 OFFCURVE",
"175 39 OFFCURVE",
"439 -16 CURVE",
"439 -192 LINE"
);
},
{
closed = 1;
nodes = (
"344 326 OFFCURVE",
"341 481 OFFCURVE",
"341 576 CURVE SMOOTH",
"341 684 OFFCURVE",
"345 858 OFFCURVE",
"439 920 CURVE",
"439 252 LINE"
);
}
);
width = 983;
}
);
unicode = 00A2;
},
{
glyphname = colonsign;
lastChange = "2016-07-01 10:56:26 +0000";
layers = (
{
background = {
paths = (
{
closed = 1;
nodes = (
"941 917 LINE",
"797 917 LINE",
"797 53 LINE",
"941 53 LINE"
);
},
{
closed = 1;
nodes = (
"661 917 LINE",
"517 917 LINE",
"517 53 LINE",
"661 53 LINE"
);
}
);
};
layerId = "849A9C4C-BF7C-40C5-8614-1FD725A2A379";
paths = (
{
closed = 1;
nodes = (
"898 22 OFFCURVE",
"1051 263 OFFCURVE",
"1051 523 CURVE",
"796 547 LINE",
"782 434 OFFCURVE",
"750 262 OFFCURVE",
"594 262 CURVE SMOOTH",
"395 262 OFFCURVE",
"365 535 OFFCURVE",
"365 800 CURVE SMOOTH",
"365 1001 OFFCURVE",
"396 1264 OFFCURVE",
"565 1264 CURVE SMOOTH",
"751 1264 OFFCURVE",
"759 1021 OFFCURVE",
"759 995 CURVE",
"1049 1010 LINE",
"1049 1252 OFFCURVE",
"876 1504 OFFCURVE",
"582 1504 CURVE SMOOTH",
"200 1504 OFFCURVE",
"65 1118 OFFCURVE",
"65 800 CURVE SMOOTH",
"65 435 OFFCURVE",
"165 22 OFFCURVE",
"575 22 CURVE SMOOTH"
);
},
{
closed = 1;
nodes = (
"401 -96 LINE",
"705 1632 LINE",
"611 1632 LINE",
"307 -96 LINE"
);
},
{
closed = 1;
nodes = (
"591 -96 LINE",
"895 1632 LINE",
"801 1632 LINE",
"497 -96 LINE"
);
}
);
width = 1120;
}
);
unicode = 20A1;
},
{
glyphname = currency;
lastChange = "2016-07-01 10:56:26 +0000";
layers = (
{
layerId = "849A9C4C-BF7C-40C5-8614-1FD725A2A379";
paths = (
{
closed = 1;
nodes = (
"321 568 LINE",
"390 513 OFFCURVE",
"484 482 OFFCURVE",
"607 482 CURVE SMOOTH",
"606 482 LINE SMOOTH",
"730 482 OFFCURVE",
"823 513 OFFCURVE",
"894 569 CURVE",
"1033 447 LINE",
"1128 556 LINE",
"986 680 LINE",
"1021 747 OFFCURVE",
"1038 824 OFFCURVE",
"1038 912 CURVE SMOOTH",
"1038 1001 OFFCURVE",
"1020 1082 OFFCURVE",
"983 1150 CURVE",
"1128 1278 LINE",
"1033 1387 LINE",
"889 1260 LINE",
"820 1312 OFFCURVE",
"728 1343 OFFCURVE",
"607 1343 CURVE SMOOTH",
"488 1343 OFFCURVE",
"395 1313 OFFCURVE",
"326 1261 CURVE",
"183 1387 LINE",
"88 1278 LINE",
"232 1151 LINE",
"193 1083 OFFCURVE",
"176 1003 OFFCURVE",
"176 914 CURVE SMOOTH",
"176 824 OFFCURVE",
"193 746 OFFCURVE",
"228 679 CURVE",
"88 556 LINE",
"183 447 LINE"
);
},
{
closed = 1;
nodes = (
"480 698 OFFCURVE",
"416 769 OFFCURVE",
"416 912 CURVE SMOOTH",
"416 1055 OFFCURVE",
"480 1127 OFFCURVE",
"607 1127 CURVE SMOOTH",
"734 1127 OFFCURVE",
"798 1055 OFFCURVE",
"798 912 CURVE SMOOTH",
"798 769 OFFCURVE",
"734 698 OFFCURVE",
"607 698 CURVE SMOOTH"
);
}
);
width = 1213;
}
);
unicode = 00A4;
},
{
glyphname = dollar;
lastChange = "2016-07-29 09:16:56 +0000";
layers = (
{
background = {
paths = (
{
closed = 1;
nodes = (
"615 -96 LINE",
"615 32 LINE",
"838 67 OFFCURVE",
"1001 237 OFFCURVE",
"1001 481 CURVE",
"996 572 OFFCURVE",
"952 703 OFFCURVE",
"732 831 CURVE SMOOTH",
"615 899 LINE",
"615 1245 LINE",
"665 1213 OFFCURVE",
"690 1149 OFFCURVE",
"722 1079 CURVE",
"956 1194 LINE",
"897 1373 OFFCURVE",
"778 1478 OFFCURVE",
"615 1501 CURVE",
"615 1632 LINE",
"471 1632 LINE",
"471 1501 LINE",
"249 1469 OFFCURVE",
"98 1293 OFFCURVE",
"98 1084 CURVE SMOOTH",
"98 923 OFFCURVE",
"188 825 OFFCURVE",
"324 744 CURVE SMOOTH",
"471 657 LINE",
"471 302 LINE",
"384 347 OFFCURVE",
"330 455 OFFCURVE",
"285 529 CURVE",
"61 410 LINE",
"125 210 OFFCURVE",
"263 53 OFFCURVE",
"471 29 CURVE",
"471 -96 LINE"
);
},
{
closed = 1;
nodes = (
"615 571 LINE",
"660 538 OFFCURVE",
"695 494 OFFCURVE",
"695 434 CURVE SMOOTH",
"695 375 OFFCURVE",
"662 321 OFFCURVE",
"615 296 CURVE"
);
},
{
closed = 1;
nodes = (
"421 1018 OFFCURVE",
"390 1054 OFFCURVE",
"390 1114 CURVE SMOOTH",
"390 1170 OFFCURVE",
"417 1233 OFFCURVE",
"471 1255 CURVE",
"471 984 LINE"
);
}
);
};
layerId = "849A9C4C-BF7C-40C5-8614-1FD725A2A379";
paths = (
{
closed = 1;
nodes = (
"836 22 OFFCURVE",
"1051 202 OFFCURVE",
"1051 450 CURVE SMOOTH",
"1051 564 OFFCURVE",
"1005 733 OFFCURVE",
"762 874 CURVE SMOOTH",
"514 1018 LINE SMOOTH",
"465 1046 OFFCURVE",
"420 1095 OFFCURVE",
"420 1160 CURVE SMOOTH",
"420 1220 OFFCURVE",
"459 1264 OFFCURVE",
"542 1264 CURVE SMOOTH",
"657 1264 OFFCURVE",
"685 1181 OFFCURVE",
"732 1081 CURVE",
"986 1196 LINE",
"915 1400 OFFCURVE",
"763 1504 OFFCURVE",
"555 1504 CURVE SMOOTH",
"294 1504 OFFCURVE",
"98 1339 OFFCURVE",
"98 1102 CURVE SMOOTH",
"98 943 OFFCURVE",
"186 815 OFFCURVE",
"354 715 CURVE SMOOTH",
"591 574 LINE SMOOTH",
"659 534 OFFCURVE",
"725 459 OFFCURVE",
"725 385 CURVE SMOOTH",
"725 306 OFFCURVE",
"650 262 OFFCURVE",
"581 262 CURVE SMOOTH",
"443 262 OFFCURVE",
"356 440 OFFCURVE",
"305 521 CURVE",
"51 402 LINE",
"128 183 OFFCURVE",
"298 22 OFFCURVE",
"560 22 CURVE SMOOTH"
);
},
{
closed = 1;
nodes = (
"615 -96 LINE",
"615 48 LINE",
"471 45 LINE",
"471 -96 LINE"
);
},
{
closed = 1;
nodes = (
"615 1485 LINE",
"615 1632 LINE",
"471 1632 LINE",
"471 1485 LINE"
);
}
);
width = 1114;
}
);
unicode = 0024;
},
{
glyphname = dong;
lastChange = "2016-07-29 09:16:56 +0000";
layers = (
{
layerId = "849A9C4C-BF7C-40C5-8614-1FD725A2A379";
paths = (
{
closed = 1;
nodes = (
"573 -27 OFFCURVE",
"628 58 OFFCURVE",
"652 144 CURVE",
"717 0 LINE",
"940 0 LINE",
"940 1536 LINE",
"652 1536 LINE",
"652 1000 LINE",
"610 1094 OFFCURVE",
"513 1167 OFFCURVE",
"411 1167 CURVE SMOOTH",
"184 1167 OFFCURVE",
"74 1001 OFFCURVE",
"74 576 CURVE SMOOTH",
"74 160 OFFCURVE",
"194 -27 OFFCURVE",
"405 -27 CURVE SMOOTH"
);
},
{
closed = 1;
nodes = (
"940 -330 LINE",
"940 -186 LINE",
"74 -186 LINE",
"74 -330 LINE"
);
},
{
closed = 1;
nodes = (
"371 179 OFFCURVE",
"362 363 OFFCURVE",
"362 576 CURVE SMOOTH",
"362 788 OFFCURVE",
"371 956 OFFCURVE",
"512 956 CURVE SMOOTH",
"567 956 OFFCURVE",
"615 921 OFFCURVE",
"652 864 CURVE",
"652 480 LINE SMOOTH",
"652 240 OFFCURVE",
"581 179 OFFCURVE",
"512 179 CURVE SMOOTH"
);
},
{
closed = 1;
nodes = (
"1128 1291 LINE",
"1128 1435 LINE",
"234 1435 LINE",
"234 1291 LINE"
);
}
);
width = 1061;
}
);
unicode = 20AB;
},
{
glyphname = euro;
lastChange = "2016-07-29 09:16:56 +0000";
layers = (
{
layerId = "849A9C4C-BF7C-40C5-8614-1FD725A2A379";
paths = (
{
closed = 1;
nodes = (
"931 -32 OFFCURVE",
"1072 183 OFFCURVE",
"1072 413 CURVE",
"817 437 LINE",
"808 360 OFFCURVE",
"781 225 OFFCURVE",
"660 225 CURVE SMOOTH",
"480 225 OFFCURVE",
"456 521 OFFCURVE",
"456 772 CURVE SMOOTH",
"456 1142 OFFCURVE",
"508 1328 OFFCURVE",
"638 1328 CURVE SMOOTH",
"765 1328 OFFCURVE",
"780 1153 OFFCURVE",
"780 1089 CURVE",
"1070 1104 LINE",
"1070 1330 OFFCURVE",
"919 1568 OFFCURVE",
"630 1568 CURVE SMOOTH",
"308 1568 OFFCURVE",
"156 1273 OFFCURVE",
"156 757 CURVE SMOOTH",
"156 258 OFFCURVE",
"298 -32 OFFCURVE",
"638 -32 CURVE SMOOTH"
);
},
{
closed = 1;
nodes = (
"915 556 LINE",
"915 700 LINE",
"51 700 LINE",
"51 556 LINE"
);
},
{
closed = 1;
nodes = (
"915 836 LINE",
"915 980 LINE",
"51 980 LINE",
"51 836 LINE"
);
}
);
width = 1141;
}
);
unicode = 20AC;
},
{
glyphname = florin;
lastChange = "2016-07-01 10:56:26 +0000";
layers = (
{
layerId = "849A9C4C-BF7C-40C5-8614-1FD725A2A379";
paths = (
{
closed = 1;
nodes = (
"466 -394 OFFCURVE",
"474 -208 OFFCURVE",
"474 -22 CURVE SMOOTH",
"474 627 LINE",
"665 627 LINE",
"665 864 LINE",
"474 864 LINE",
"474 1173 LINE SMOOTH",
"474 1257 OFFCURVE",
"484 1344 OFFCURVE",
"604 1344 CURVE SMOOTH",
"667 1344 LINE",
"667 1516 LINE",
"655 1521 OFFCURVE",
"640 1526 OFFCURVE",
"622 1531 CURVE SMOOTH",
"591 1538 OFFCURVE",
"543 1546 OFFCURVE",
"472 1546 CURVE SMOOTH",
"194 1546 OFFCURVE",
"186 1360 OFFCURVE",
"186 1174 CURVE SMOOTH",
"186 864 LINE",
"44 864 LINE",
"44 629 LINE",
"186 629 LINE",
"186 -21 LINE SMOOTH",
"186 -105 OFFCURVE",
"176 -192 OFFCURVE",
"56 -192 CURVE SMOOTH",
"-7 -192 LINE",
"-7 -364 LINE",
"5 -370 OFFCURVE",
"20 -375 OFFCURVE",
"38 -379 CURVE SMOOTH",
"69 -387 OFFCURVE",
"116 -394 OFFCURVE",
"188 -394 CURVE SMOOTH"
);
}
);
width = 704;
}
);
unicode = 0192;
},
{
glyphname = franc;
lastChange = "2016-07-29 09:16:56 +0000";
layers = (
{
background = {
paths = (
{
closed = 1;
nodes = (
"494 1306 LINE",
"539 1306 LINE SMOOTH",
"723 1306 OFFCURVE",
"833 1271 OFFCURVE",
"833 1092 CURVE SMOOTH",
"833 891 OFFCURVE",
"706 847 OFFCURVE",
"547 847 CURVE SMOOTH",
"470 847 LINE",
"470 634 LINE",
"764 634 OFFCURVE",
"1132 665 OFFCURVE",
"1132 1086 CURVE SMOOTH",
"1132 1521 OFFCURVE",
"760 1536 OFFCURVE",
"448 1536 CURVE",
"194 1536 LINE",
"194 0 LINE",
"494 0 LINE"
);
},
{
closed = 1;
nodes = (
"51 777 LINE",
"51 633 LINE",
"423 633 LINE",
"423 777 LINE"
);
},
{
closed = 1;
nodes = (
"51 497 LINE",
"51 353 LINE",
"925 353 LINE",
"925 497 LINE"
);
}
);
};
layerId = "849A9C4C-BF7C-40C5-8614-1FD725A2A379";
paths = (
{
closed = 1;
nodes = (
"494 0 LINE",
"494 648 LINE",
"950 648 LINE",
"950 903 LINE",
"494 903 LINE",
"494 1295 LINE",
"950 1295 LINE",
"950 1536 LINE",
"194 1536 LINE",
"194 0 LINE"
);
},
{
closed = 1;
nodes = (
"950 353 LINE",
"950 497 LINE",
"51 497 LINE",
"51 353 LINE"
);
}
);
width = 1001;
}
);
unicode = 20A3;
},
{
glyphname = guarani;
lastChange = "2016-07-01 10:56:26 +0000";
layers = (
{
layerId = "849A9C4C-BF7C-40C5-8614-1FD725A2A379";
paths = (
{
closed = 1;
nodes = (
"875 22 OFFCURVE",
"1051 283 OFFCURVE",
"1051 768 CURVE",
"610 768 LINE",
"610 588 LINE",
"807 588 LINE",
"771 605 LINE",
"771 430 OFFCURVE",
"722 262 OFFCURVE",
"568 262 CURVE SMOOTH",
"361 262 OFFCURVE",
"361 584 OFFCURVE",
"361 758 CURVE SMOOTH",
"361 967 OFFCURVE",
"395 1264 OFFCURVE",
"582 1264 CURVE SMOOTH",
"735 1264 OFFCURVE",
"744 1092 OFFCURVE",
"759 1015 CURVE",
"1045 1034 LINE",
"1045 1280 OFFCURVE",
"900 1504 OFFCURVE",
"589 1504 CURVE SMOOTH",
"196 1504 OFFCURVE",
"61 1123 OFFCURVE",
"61 745 CURVE SMOOTH",
"61 379 OFFCURVE",
"185 22 OFFCURVE",
"585 22 CURVE SMOOTH"
);
},
{
closed = 1;
nodes = (
"636 -96 LINE",
"636 1632 LINE",
"502 1632 LINE",
"502 -96 LINE"
);
}
);
width = 1120;
}
);
unicode = 20B2;
},
{
glyphname = kip;
lastChange = "2016-07-29 09:16:56 +0000";
layers = (
{
background = {
paths = (
{
closed = 1;
nodes = (
"1181 712 LINE",
"1181 903 LINE",
"40 903 LINE",
"40 712 LINE"
);
}
);
};
layerId = "849A9C4C-BF7C-40C5-8614-1FD725A2A379";
paths = (
{
closed = 1;
nodes = (
"1205 0 LINE",
"834 832 LINE",
"1193 1536 LINE",
"863 1536 LINE",
"530 853 LINE",
"873 0 LINE"
);
},
{
closed = 1;
nodes = (
"469 0 LINE",
"469 1536 LINE",
"169 1536 LINE",
"169 0 LINE"
);
},
{
closed = 1;
nodes = (
"1179 739 LINE",
"1179 883 LINE",
"40 883 LINE",
"40 739 LINE"
);
}
);
width = 1230;
}
);
unicode = 20AD;
},
{
glyphname = lira;
lastChange = "2016-07-29 09:16:56 +0000";
layers = (
{
background = {
paths = (
{
closed = 1;
nodes = (
"927 -32 OFFCURVE",
"1068 183 OFFCURVE",
"1068 413 CURVE",
"813 437 LINE",
"804 360 OFFCURVE",
"777 225 OFFCURVE",
"656 225 CURVE SMOOTH",
"476 225 OFFCURVE",
"452 521 OFFCURVE",
"452 772 CURVE SMOOTH",
"452 1142 OFFCURVE",
"504 1328 OFFCURVE",
"634 1328 CURVE SMOOTH",
"761 1328 OFFCURVE",
"776 1153 OFFCURVE",
"776 1089 CURVE",
"1066 1104 LINE",
"1066 1330 OFFCURVE",
"915 1568 OFFCURVE",
"626 1568 CURVE SMOOTH",
"304 1568 OFFCURVE",
"152 1273 OFFCURVE",
"152 757 CURVE SMOOTH",
"152 258 OFFCURVE",
"294 -32 OFFCURVE",
"634 -32 CURVE SMOOTH"
);
},
{
closed = 1;
nodes = (
"47 980 LINE",
"47 836 LINE",
"911 836 LINE",
"911 980 LINE"
);
},
{
closed = 1;
nodes = (
"47 700 LINE",
"47 556 LINE",
"911 556 LINE",
"911 700 LINE"
);
}
);
};
layerId = "849A9C4C-BF7C-40C5-8614-1FD725A2A379";
paths = (
{
closed = 1;
nodes = (
"284 -12 OFFCURVE",
"373 97 OFFCURVE",
"546 97 CURVE SMOOTH",
"604 97 OFFCURVE",
"689 85 OFFCURVE",
"777 -2 CURVE",
"819 10 LINE",
"819 231 LINE",
"731 287 OFFCURVE",
"643 322 OFFCURVE",
"553 322 CURVE SMOOTH",
"503 322 OFFCURVE",
"457 311 OFFCURVE",
"411 288 CURVE",
"500 424 OFFCURVE",
"530 536 OFFCURVE",
"530 631 CURVE SMOOTH",
"530 843 OFFCURVE",
"380 984 OFFCURVE",
"380 1183 CURVE SMOOTH",
"380 1286 OFFCURVE",
"420 1331 OFFCURVE",
"476 1331 CURVE SMOOTH",
"541 1331 OFFCURVE",
"595 1272 OFFCURVE",
"595 1145 CURVE",
"827 1233 LINE",
"797 1461 OFFCURVE",
"628 1564 OFFCURVE",
"465 1564 CURVE SMOOTH",
"267 1564 OFFCURVE",
"86 1413 OFFCURVE",
"86 1211 CURVE SMOOTH",
"86 1036 OFFCURVE",
"222 834 OFFCURVE",
"222 565 CURVE SMOOTH",
"222 435 OFFCURVE",
"190 260 OFFCURVE",
"73 226 CURVE",
"73 36 LINE",
"94 13 OFFCURVE",
"136 -12 OFFCURVE",
"184 -12 CURVE SMOOTH"
);
},
{
closed = 1;
nodes = (
"827 556 LINE",
"827 700 LINE",
"51 700 LINE",
"51 556 LINE"
);
},
{
closed = 1;
nodes = (
"827 836 LINE",
"827 980 LINE",
"51 980 LINE",
"51 836 LINE"
);
}
);
width = 878;
}
);
unicode = 20A4;
},
{
glyphname = liraTurkish;
lastChange = "2016-07-29 09:16:56 +0000";
layers = (
{
layerId = "849A9C4C-BF7C-40C5-8614-1FD725A2A379";
paths = (
{
closed = 1;
nodes = (
"403 0 LINE",
"844 0 OFFCURVE",
"895 277 OFFCURVE",
"895 417 CURVE SMOOTH",
"895 592 LINE",
"681 592 LINE",
"681 429 LINE SMOOTH",
"681 329 OFFCURVE",
"622 240 OFFCURVE",
"438 240 CURVE SMOOTH",
"423 240 LINE",
"423 1536 LINE",
"124 1536 LINE",
"124 0 LINE"
);
},
{
closed = 1;
nodes = (
"785 812 LINE",
"785 966 LINE",
"51 600 LINE",
"51 446 LINE"
);
},
{
closed = 1;
nodes = (
"785 1092 LINE",
"785 1246 LINE",
"51 880 LINE",
"51 726 LINE"
);
}
);
width = 960;
}
);
unicode = 20BA;
},
{
glyphname = manat;
lastChange = "2016-07-08 22:10:11 +0000";
layers = (
{
layerId = "849A9C4C-BF7C-40C5-8614-1FD725A2A379";
paths = (
{
closed = 1;
nodes = (
"331 0 LINE",
"331 822 LINE SMOOTH",
"331 976 OFFCURVE",
"394 1087 OFFCURVE",
"628 1087 CURVE SMOOTH",
"875 1087 OFFCURVE",
"917 983 OFFCURVE",
"917 822 CURVE SMOOTH",
"917 0 LINE",
"1183 0 LINE",
"1183 766 LINE SMOOTH",
"1183 1180 OFFCURVE",
"990 1307 OFFCURVE",
"628 1307 CURVE SMOOTH",
"263 1307 OFFCURVE",
"65 1180 OFFCURVE",
"65 766 CURVE SMOOTH",
"65 0 LINE"
);
},
{
closed = 1;
nodes = (
"727 0 LINE",
"727 1593 LINE",
"521 1593 LINE",
"521 0 LINE"
);
}
);
width = 1248;
}
);
unicode = 20BC;
},
{
glyphname = naira;
lastChange = "2016-07-29 09:16:56 +0000";
layers = (
{
layerId = "849A9C4C-BF7C-40C5-8614-1FD725A2A379";
paths = (
{
closed = 1;
nodes = (
"459 0 LINE",
"459 948 LINE",
"902 0 LINE",
"1154 0 LINE",
"1154 1536 LINE",
"900 1536 LINE",
"900 622 LINE",
"504 1536 LINE",
"191 1536 LINE",
"191 0 LINE"
);
},
{
closed = 1;
nodes = (
"1294 497 LINE",
"1294 641 LINE",
"51 641 LINE",
"51 497 LINE"
);
},
{
closed = 1;
nodes = (
"1294 917 LINE",
"1294 1061 LINE",
"51 1061 LINE",
"51 917 LINE"
);
}
);
width = 1345;
}
);
unicode = 20A6;
},
{
glyphname = peseta;
lastChange = "2016-07-29 09:16:56 +0000";
layers = (
{
layerId = "849A9C4C-BF7C-40C5-8614-1FD725A2A379";
paths = (
{
closed = 1;
nodes = (
"494 0 LINE",
"494 1306 LINE",
"539 1306 LINE SMOOTH",
"723 1306 OFFCURVE",
"833 1271 OFFCURVE",
"833 1092 CURVE SMOOTH",
"833 891 OFFCURVE",
"706 847 OFFCURVE",
"547 847 CURVE SMOOTH",
"470 847 LINE",
"470 634 LINE",
"764 634 OFFCURVE",
"1132 665 OFFCURVE",
"1132 1086 CURVE SMOOTH",
"1132 1521 OFFCURVE",
"760 1536 OFFCURVE",
"448 1536 CURVE",
"194 1536 LINE",
"194 0 LINE"
);
},
{
closed = 1;
nodes = (
"1322 1005 LINE",
"1322 1149 LINE",
"51 1149 LINE",
"51 1005 LINE"
);
}
);
width = 1347;
}
);
unicode = 20A7;
},
{
glyphname = peso;
lastChange = "2016-07-29 09:16:56 +0000";
layers = (
{
background = {
paths = (
{
closed = 1;
nodes = (
"494 1306 LINE",
"539 1306 LINE SMOOTH",
"723 1306 OFFCURVE",
"833 1271 OFFCURVE",
"833 1092 CURVE SMOOTH",
"833 891 OFFCURVE",
"706 847 OFFCURVE",
"547 847 CURVE SMOOTH",
"470 847 LINE",
"470 634 LINE",
"764 634 OFFCURVE",
"1132 665 OFFCURVE",
"1132 1086 CURVE SMOOTH",
"1132 1521 OFFCURVE",
"760 1536 OFFCURVE",
"448 1536 CURVE",
"194 1536 LINE",
"194 0 LINE",
"494 0 LINE"
);
},
{
closed = 1;
nodes = (
"51 1149 LINE",
"51 1005 LINE",
"1322 1005 LINE",
"1322 1149 LINE"
);
}
);
};
layerId = "849A9C4C-BF7C-40C5-8614-1FD725A2A379";
paths = (
{
closed = 1;
nodes = (
"494 0 LINE",
"494 1306 LINE",
"539 1306 LINE SMOOTH",
"724 1306 OFFCURVE",
"833 1260 OFFCURVE",
"833 1021 CURVE SMOOTH",
"833 755 OFFCURVE",
"705 697 OFFCURVE",
"547 697 CURVE SMOOTH",
"470 697 LINE",
"470 484 LINE",
"768 484 OFFCURVE",
"1132 520 OFFCURVE",
"1132 1020 CURVE SMOOTH",
"1132 1518 OFFCURVE",
"756 1536 OFFCURVE",
"448 1536 CURVE",
"194 1536 LINE",
"194 0 LINE"
);
},
{
closed = 1;
nodes = (
"1271 792 LINE",
"1271 936 LINE",
"51 936 LINE",
"51 792 LINE"
);
},
{
closed = 1;
nodes = (
"1271 1072 LINE",
"1271 1216 LINE",
"51 1216 LINE",
"51 1072 LINE"
);
}
);
width = 1322;
}
);
unicode = 20B1;
},
{
glyphname = ruble;
lastChange = "2016-07-29 09:16:56 +0000";
layers = (
{
background = {
components = (
{
name = rupeeIndian;
transform = "{1, 0, 0, 1, 220, 0}";
}
);
};
layerId = "849A9C4C-BF7C-40C5-8614-1FD725A2A379";
paths = (
{
closed = 1;
nodes = (
"494 0 LINE",
"494 1306 LINE",
"539 1306 LINE SMOOTH",
"723 1306 OFFCURVE",
"833 1271 OFFCURVE",
"833 1092 CURVE SMOOTH",
"833 891 OFFCURVE",
"706 847 OFFCURVE",
"547 847 CURVE SMOOTH",
"470 847 LINE",
"470 634 LINE",
"764 634 OFFCURVE",
"1132 665 OFFCURVE",
"1132 1086 CURVE SMOOTH",
"1132 1521 OFFCURVE",
"760 1536 OFFCURVE",
"448 1536 CURVE",
"194 1536 LINE",
"194 0 LINE"
);
},
{
closed = 1;
nodes = (
"925 353 LINE",
"925 497 LINE",
"51 497 LINE",
"51 353 LINE"
);
},
{
closed = 1;
nodes = (
"423 633 LINE",
"423 777 LINE",
"51 777 LINE",
"51 633 LINE"
);
}
);
width = 1201;
}
);
unicode = 20BD;
},
{
glyphname = rupeeIndian;
lastChange = "2016-07-29 09:16:56 +0000";
layers = (
{
layerId = "849A9C4C-BF7C-40C5-8614-1FD725A2A379";
paths = (
{
closed = 1;
nodes = (
"611 633 LINE",
"797 705 OFFCURVE",
"932 845 OFFCURVE",
"932 1084 CURVE SMOOTH",
"932 1394 OFFCURVE",
"705 1536 OFFCURVE",
"368 1536 CURVE",
"65 1536 LINE",
"65 1306 LINE",
"443 1306 LINE SMOOTH",
"553 1306 OFFCURVE",
"632 1241 OFFCURVE",
"632 1081 CURVE SMOOTH",
"632 890 OFFCURVE",
"521 845 OFFCURVE",
"405 845 CURVE SMOOTH",
"76 845 LINE",
"76 633 LINE"
);
},
{
closed = 1;
nodes = (
"1011 0 LINE",
"656 734 LINE",
"364 688 LINE",
"683 0 LINE"
);
},
{
closed = 1;
nodes = (
"1119 1004 LINE",
"1119 1148 LINE",
"65 1148 LINE",
"65 1004 LINE"
);
},
{
closed = 1;
nodes = (
"1119 1392 LINE",
"1119 1536 LINE",
"65 1536 LINE",
"65 1392 LINE"
);
}
);
width = 1144;
}
);
unicode = 20B9;
},
{
glyphname = sterling;
lastChange = "2016-07-01 10:56:26 +0000";
layers = (
{
layerId = "849A9C4C-BF7C-40C5-8614-1FD725A2A379";
paths = (
{
closed = 1;
nodes = (
"308 -12 OFFCURVE",
"397 97 OFFCURVE",
"570 97 CURVE SMOOTH",
"628 97 OFFCURVE",
"713 85 OFFCURVE",
"801 -2 CURVE",
"843 10 LINE",
"843 231 LINE",
"755 287 OFFCURVE",
"667 322 OFFCURVE",
"577 322 CURVE SMOOTH",
"527 322 OFFCURVE",
"481 311 OFFCURVE",
"435 288 CURVE",
"524 424 OFFCURVE",
"554 536 OFFCURVE",
"554 631 CURVE SMOOTH",
"554 843 OFFCURVE",
"404 984 OFFCURVE",
"404 1183 CURVE SMOOTH",
"404 1286 OFFCURVE",
"444 1331 OFFCURVE",
"500 1331 CURVE SMOOTH",
"565 1331 OFFCURVE",
"619 1272 OFFCURVE",
"619 1145 CURVE",
"851 1233 LINE",
"821 1461 OFFCURVE",
"652 1564 OFFCURVE",
"489 1564 CURVE SMOOTH",
"291 1564 OFFCURVE",
"110 1413 OFFCURVE",
"110 1211 CURVE SMOOTH",
"110 1036 OFFCURVE",
"246 834 OFFCURVE",
"246 565 CURVE SMOOTH",
"246 435 OFFCURVE",
"214 260 OFFCURVE",
"97 226 CURVE",
"97 36 LINE",
"118 13 OFFCURVE",
"160 -12 OFFCURVE",
"208 -12 CURVE SMOOTH"
);
},
{
closed = 1;
nodes = (
"781 636 LINE",
"781 827 LINE",
"75 827 LINE",
"75 636 LINE"
);
}
);
width = 914;
}
);
unicode = 00A3;
},
{
glyphname = won;
lastChange = "2016-07-29 09:16:56 +0000";
layers = (
{
layerId = "849A9C4C-BF7C-40C5-8614-1FD725A2A379";
paths = (
{
closed = 1;
nodes = (
"684 0 LINE",
"888 1202 LINE",
"872 1202 LINE",
"1013 0 LINE",
"1310 0 LINE",
"1638 1536 LINE",
"1366 1536 LINE",
"1158 292 LINE",
"1175 292 LINE",
"1005 1536 LINE",
"762 1536 LINE",
"579 302 LINE",
"595 302 LINE",
"425 1536 LINE",
"95 1536 LINE",
"409 0 LINE"
);
},
{
closed = 1;
nodes = (
"1688 557 LINE",
"1688 701 LINE",
"52 701 LINE",
"52 557 LINE"
);
},
{
closed = 1;
nodes = (
"1688 837 LINE",
"1688 981 LINE",
"52 981 LINE",
"52 837 LINE"
);
}
);
width = 1740;
}
);
unicode = 20A9;
},
{
glyphname = yen;
lastChange = "2016-07-29 09:16:56 +0000";
layers = (
{
layerId = "849A9C4C-BF7C-40C5-8614-1FD725A2A379";
paths = (
{
closed = 1;
nodes = (
"707 0 LINE",
"707 643 LINE",
"1062 1536 LINE",
"803 1536 LINE",
"575 896 LINE",
"364 1536 LINE",
"34 1536 LINE",
"404 608 LINE",
"404 0 LINE"
);
},
{
closed = 1;
nodes = (
"988 297 LINE",
"988 441 LINE",
"124 441 LINE",
"124 297 LINE"
);
},
{
closed = 1;
nodes = (
"988 607 LINE",
"988 751 LINE",
"124 751 LINE",
"124 607 LINE"
);
}
);
width = 1096;
}
);
unicode = 00A5;
},
{
glyphname = bulletoperator;
lastChange = "2016-07-29 09:16:56 +0000";
layers = (
{
layerId = "849A9C4C-BF7C-40C5-8614-1FD725A2A379";
paths = (
{
closed = 1;
nodes = (
"460 708 OFFCURVE",
"574 816 OFFCURVE",
"574 954 CURVE SMOOTH",
"574 1088 OFFCURVE",
"460 1200 OFFCURVE",
"328 1200 CURVE SMOOTH",
"190 1200 OFFCURVE",
"80 1088 OFFCURVE",
"80 954 CURVE SMOOTH",
"80 816 OFFCURVE",
"190 708 OFFCURVE",
"328 708 CURVE SMOOTH"
);
}
);
width = 654;
}
);
unicode = 2219;
},
{
glyphname = plus;
lastChange = "2016-07-01 10:56:26 +0000";
layers = (
{
layerId = "849A9C4C-BF7C-40C5-8614-1FD725A2A379";
paths = (
{
closed = 1;
nodes = (
"546 20 LINE",
"546 260 LINE",
"786 260 LINE",
"786 498 LINE",
"546 498 LINE",
"546 738 LINE",
"308 738 LINE",
"308 498 LINE",
"68 498 LINE",
"68 260 LINE",
"308 260 LINE",
"308 20 LINE"
);
}
);
width = 855;
}
);
unicode = 002B;
},
{
glyphname = minus;
lastChange = "2016-07-01 10:56:26 +0000";
layers = (
{
layerId = "849A9C4C-BF7C-40C5-8614-1FD725A2A379";
paths = (
{
closed = 1;
nodes = (
"690 480 LINE",
"690 718 LINE",
"114 718 LINE",
"114 480 LINE"
);
}
);
width = 804;
}
);
unicode = 2212;
},
{
glyphname = multiply;
lastChange = "2016-07-01 10:56:26 +0000";
layers = (
{
layerId = "849A9C4C-BF7C-40C5-8614-1FD725A2A379";
paths = (
{
closed = 1;
nodes = (
"786 362 LINE",
"595 552 LINE",
"783 739 LINE",
"615 908 LINE",
"427 720 LINE",
"243 905 LINE",
"74 736 LINE",
"259 552 LINE",
"71 364 LINE",
"240 196 LINE",
"427 384 LINE",
"617 193 LINE"
);
}
);
width = 857;
}
);
unicode = 00D7;
},
{
glyphname = divide;
lastChange = "2016-07-01 10:56:26 +0000";
layers = (
{
layerId = "849A9C4C-BF7C-40C5-8614-1FD725A2A379";
paths = (
{
closed = 1;
nodes = (
"734 384 LINE",
"734 576 LINE",
"64 576 LINE",
"64 384 LINE"
);
},
{
closed = 1;
nodes = (
"544 0 LINE",
"544 288 LINE",
"256 288 LINE",
"256 -12 LINE"
);
},
{
closed = 1;
nodes = (
"544 672 LINE",
"544 960 LINE",
"256 960 LINE",
"256 672 LINE"
);
}
);
width = 797;
}
);
unicode = 00F7;
},
{
glyphname = equal;
lastChange = "2016-07-01 10:56:26 +0000";
layers = (
{
layerId = "849A9C4C-BF7C-40C5-8614-1FD725A2A379";
paths = (
{
closed = 1;
nodes = (
"690 672 LINE",
"690 910 LINE",
"114 910 LINE",
"114 672 LINE"
);
},
{
closed = 1;
nodes = (
"690 288 LINE",
"690 526 LINE",
"114 526 LINE",
"114 288 LINE"
);
}
);
width = 804;
}
);
unicode = 003D;
},
{
glyphname = notequal;
lastChange = "2016-07-01 10:56:26 +0000";
layers = (
{
layerId = "849A9C4C-BF7C-40C5-8614-1FD725A2A379";
paths = (
{
closed = 1;
nodes = (
"690 672 LINE",
"690 910 LINE",
"114 910 LINE",
"114 672 LINE"
);
},
{
closed = 1;
nodes = (
"690 288 LINE",
"690 526 LINE",
"114 526 LINE",
"114 288 LINE"
);
}
);
width = 804;
}
);
unicode = 2260;
},
{
glyphname = greater;
lastChange = "2016-07-01 10:56:26 +0000";
layers = (
{
layerId = "849A9C4C-BF7C-40C5-8614-1FD725A2A379";
paths = (
{
closed = 1;
nodes = (
"920 439 LINE",
"920 704 LINE",
"110 1064 LINE",
"124 803 LINE",
"575 607 LINE",
"98 432 LINE",
"112 89 LINE"
);
}
);
width = 976;
}
);
unicode = 003E;
},
{
glyphname = less;
lastChange = "2016-07-01 10:56:26 +0000";
layers = (
{
layerId = "849A9C4C-BF7C-40C5-8614-1FD725A2A379";
paths = (
{
closed = 1;
nodes = (
"878 432 LINE",
"401 607 LINE",
"852 803 LINE",
"866 1064 LINE",
"56 704 LINE",
"56 439 LINE",
"864 89 LINE"
);
}
);
width = 976;
}
);
unicode = 003C;
},
{
glyphname = greaterequal;
lastChange = "2016-07-01 10:56:26 +0000";
layers = (
{
layerId = "849A9C4C-BF7C-40C5-8614-1FD725A2A379";
paths = (
{
closed = 1;
nodes = (
"918 823 LINE",
"918 1088 LINE",
"108 1448 LINE",
"122 1187 LINE",
"573 991 LINE",
"96 816 LINE",
"110 473 LINE"
);
},
{
closed = 1;
nodes = (
"795 0 LINE",
"795 238 LINE",
"219 238 LINE",
"219 0 LINE"
);
}
);
width = 979;
}
);
unicode = 2265;
},
{
glyphname = lessequal;
lastChange = "2016-07-01 10:56:26 +0000";
layers = (
{
layerId = "849A9C4C-BF7C-40C5-8614-1FD725A2A379";
paths = (
{
closed = 1;
nodes = (
"883 816 LINE",
"406 991 LINE",
"857 1187 LINE",
"871 1448 LINE",
"61 1088 LINE",
"61 823 LINE",
"869 473 LINE"
);
},
{
closed = 1;
nodes = (
"760 -1 LINE",
"760 237 LINE",
"184 237 LINE",
"184 -1 LINE"
);
}
);
width = 979;
}
);
unicode = 2264;
},
{
glyphname = plusminus;
lastChange = "2016-07-01 10:56:26 +0000";
layers = (
{
layerId = "849A9C4C-BF7C-40C5-8614-1FD725A2A379";
paths = (
{
closed = 1;
nodes = (
"553 336 LINE",
"553 576 LINE",
"793 576 LINE",
"793 814 LINE",
"553 814 LINE",
"553 1054 LINE",
"315 1054 LINE",
"315 814 LINE",
"75 814 LINE",
"75 576 LINE",
"315 576 LINE",
"315 336 LINE"
);
},
{
closed = 1;
nodes = (
"718 1 LINE",
"718 239 LINE",
"142 239 LINE",
"142 1 LINE"
);
}
);
width = 866;
}
);
unicode = 00B1;
},
{
glyphname = approxequal;
lastChange = "2016-07-01 10:56:26 +0000";
layers = (
{
background = {
components = (
{
name = equal;
}
);
};
layerId = "849A9C4C-BF7C-40C5-8614-1FD725A2A379";
paths = (
{
closed = 1;
nodes = (
"653 607 OFFCURVE",
"729 738 OFFCURVE",
"729 742 CURVE SMOOTH",
"729 924 LINE",
"701 870 OFFCURVE",
"633 814 OFFCURVE",
"558 814 CURVE SMOOTH",
"452 814 OFFCURVE",
"408 924 OFFCURVE",
"309 924 CURVE SMOOTH",
"253 924 OFFCURVE",
"201 888 OFFCURVE",
"161 853 CURVE SMOOTH",
"137 832 OFFCURVE",
"114 808 OFFCURVE",
"92 782 CURVE",
"92 618 LINE",
"131 659 OFFCURVE",
"205 728 OFFCURVE",
"286 728 CURVE SMOOTH",
"394 728 OFFCURVE",
"441 607 OFFCURVE",
"545 607 CURVE SMOOTH"
);
},
{
closed = 1;
nodes = (
"653 221 OFFCURVE",
"729 352 OFFCURVE",
"729 356 CURVE SMOOTH",
"729 538 LINE",
"701 484 OFFCURVE",
"633 428 OFFCURVE",
"558 428 CURVE SMOOTH",
"452 428 OFFCURVE",
"408 538 OFFCURVE",
"309 538 CURVE SMOOTH",
"253 538 OFFCURVE",
"201 502 OFFCURVE",
"161 467 CURVE SMOOTH",
"137 446 OFFCURVE",
"114 422 OFFCURVE",
"92 396 CURVE",
"92 232 LINE",
"131 273 OFFCURVE",
"205 342 OFFCURVE",
"286 342 CURVE SMOOTH",
"394 342 OFFCURVE",
"441 221 OFFCURVE",
"545 221 CURVE SMOOTH"
);
}
);
width = 828;
}
);
unicode = 2248;
},
{
glyphname = asciitilde;
lastChange = "2016-07-01 10:58:13 +0000";
layers = (
{
layerId = "849A9C4C-BF7C-40C5-8614-1FD725A2A379";
paths = (
{
closed = 1;
nodes = (
"653 757 OFFCURVE",
"729 888 OFFCURVE",
"729 892 CURVE SMOOTH",
"729 1074 LINE",
"701 1020 OFFCURVE",
"633 964 OFFCURVE",
"558 964 CURVE SMOOTH",
"452 964 OFFCURVE",
"407 1074 OFFCURVE",
"310 1074 CURVE SMOOTH",
"222 1074 OFFCURVE",
"137 985 OFFCURVE",
"92 932 CURVE",
"92 768 LINE",
"131 809 OFFCURVE",
"205 878 OFFCURVE",
"286 878 CURVE SMOOTH",
"394 878 OFFCURVE",
"441 757 OFFCURVE",
"545 757 CURVE SMOOTH"
);
}
);
width = 815;
}
);
unicode = 007E;
},
{
glyphname = logicalnot;
lastChange = "2016-07-01 10:56:26 +0000";
layers = (
{
layerId = "849A9C4C-BF7C-40C5-8614-1FD725A2A379";
paths = (
{
closed = 1;
nodes = (
"671 288 LINE",
"671 718 LINE",
"95 718 LINE",
"95 480 LINE",
"527 480 LINE",
"527 288 LINE"
);
}
);
width = 789;
}
);
unicode = 00AC;
},
{
glyphname = micro;
lastChange = "2016-07-01 10:56:26 +0000";
layers = (
{
layerId = "849A9C4C-BF7C-40C5-8614-1FD725A2A379";
paths = (
{
closed = 1;
nodes = (
"416 -192 LINE",
"416 46 LINE",
"434 44 OFFCURVE",
"453 43 OFFCURVE",
"474 43 CURVE SMOOTH",
"542 43 OFFCURVE",
"623 76 OFFCURVE",
"704 135 CURVE",
"704 -12 LINE",
"992 12 LINE",
"992 1152 LINE",
"704 1128 LINE",
"704 318 LINE",
"635 273 OFFCURVE",
"563 228 OFFCURVE",
"511 228 CURVE SMOOTH",
"454 228 OFFCURVE",
"416 268 OFFCURVE",
"416 381 CURVE SMOOTH",
"416 1152 LINE",
"128 1128 LINE",
"128 -204 LINE"
);
}
);
width = 1099;
}
);
unicode = 00B5;
subCategory = Math;
},
{
glyphname = percent;
lastChange = "2016-07-01 10:56:26 +0000";
layers = (
{
layerId = "849A9C4C-BF7C-40C5-8614-1FD725A2A379";
paths = (
{
closed = 1;
nodes = (
"979 0 LINE",
"1372 1536 LINE",
"1096 1536 LINE",
"703 0 LINE"
);
},
{
closed = 1;
nodes = (
"694 732 OFFCURVE",
"831 900 OFFCURVE",
"831 1134 CURVE SMOOTH",
"831 1367 OFFCURVE",
"696 1536 OFFCURVE",
"437 1536 CURVE SMOOTH",
"178 1536 OFFCURVE",
"47 1367 OFFCURVE",
"47 1134 CURVE SMOOTH",
"47 900 OFFCURVE",
"180 732 OFFCURVE",
"437 732 CURVE SMOOTH"
);
},
{
closed = 1;
nodes = (
"343 926 OFFCURVE",
"294 1036 OFFCURVE",
"294 1142 CURVE SMOOTH",
"294 1247 OFFCURVE",
"342 1353 OFFCURVE",
"438 1353 CURVE SMOOTH",
"534 1353 OFFCURVE",
"582 1245 OFFCURVE",
"582 1139 CURVE SMOOTH",
"582 1031 OFFCURVE",
"533 926 OFFCURVE",
"439 926 CURVE SMOOTH"
);
},
{
closed = 1;
nodes = (
"1912 -1 OFFCURVE",
"2049 167 OFFCURVE",
"2049 401 CURVE SMOOTH",
"2049 634 OFFCURVE",
"1914 803 OFFCURVE",
"1655 803 CURVE SMOOTH",
"1396 803 OFFCURVE",
"1265 634 OFFCURVE",
"1265 401 CURVE SMOOTH",
"1265 167 OFFCURVE",
"1398 -1 OFFCURVE",
"1655 -1 CURVE SMOOTH"
);
},
{
closed = 1;
nodes = (
"1561 193 OFFCURVE",
"1512 303 OFFCURVE",
"1512 409 CURVE SMOOTH",
"1512 514 OFFCURVE",
"1560 620 OFFCURVE",
"1656 620 CURVE SMOOTH",
"1752 620 OFFCURVE",
"1800 512 OFFCURVE",
"1800 406 CURVE SMOOTH",
"1800 298 OFFCURVE",
"1751 193 OFFCURVE",
"1657 193 CURVE SMOOTH"
);
}
);
width = 2096;
}
);
unicode = 0025;
},
{
glyphname = perthousand;
lastChange = "2016-07-01 10:56:26 +0000";
layers = (
{
layerId = "849A9C4C-BF7C-40C5-8614-1FD725A2A379";
paths = (
{
closed = 1;
nodes = (
"979 0 LINE",
"1372 1536 LINE",
"1096 1536 LINE",
"703 0 LINE"
);
},
{
closed = 1;
nodes = (
"694 732 OFFCURVE",
"831 900 OFFCURVE",
"831 1134 CURVE SMOOTH",
"831 1367 OFFCURVE",
"696 1536 OFFCURVE",
"437 1536 CURVE SMOOTH",
"178 1536 OFFCURVE",
"47 1367 OFFCURVE",
"47 1134 CURVE SMOOTH",
"47 900 OFFCURVE",
"180 732 OFFCURVE",
"437 732 CURVE SMOOTH"
);
},
{
closed = 1;
nodes = (
"343 926 OFFCURVE",
"294 1036 OFFCURVE",
"294 1142 CURVE SMOOTH",
"294 1246 OFFCURVE",
"342 1353 OFFCURVE",
"438 1353 CURVE SMOOTH",
"534 1353 OFFCURVE",
"582 1245 OFFCURVE",
"582 1139 CURVE SMOOTH",
"582 1031 OFFCURVE",
"533 926 OFFCURVE",
"439 926 CURVE SMOOTH"
);
},
{
closed = 1;
nodes = (
"1912 -1 OFFCURVE",
"2049 167 OFFCURVE",
"2049 401 CURVE SMOOTH",
"2049 634 OFFCURVE",
"1914 803 OFFCURVE",
"1655 803 CURVE SMOOTH",
"1396 803 OFFCURVE",
"1265 634 OFFCURVE",
"1265 401 CURVE SMOOTH",
"1265 167 OFFCURVE",
"1398 -1 OFFCURVE",
"1655 -1 CURVE SMOOTH"
);
},
{
closed = 1;
nodes = (
"1561 193 OFFCURVE",
"1512 303 OFFCURVE",
"1512 409 CURVE SMOOTH",
"1512 513 OFFCURVE",
"1560 620 OFFCURVE",
"1656 620 CURVE SMOOTH",
"1752 620 OFFCURVE",
"1800 512 OFFCURVE",
"1800 406 CURVE SMOOTH",
"1800 298 OFFCURVE",
"1751 193 OFFCURVE",
"1657 193 CURVE SMOOTH"
);
},
{
closed = 1;
nodes = (
"2813 -1 OFFCURVE",
"2950 167 OFFCURVE",
"2950 401 CURVE SMOOTH",
"2950 634 OFFCURVE",
"2815 803 OFFCURVE",
"2556 803 CURVE SMOOTH",
"2297 803 OFFCURVE",
"2166 634 OFFCURVE",
"2166 401 CURVE SMOOTH",
"2166 167 OFFCURVE",
"2299 -1 OFFCURVE",
"2556 -1 CURVE SMOOTH"
);
},
{
closed = 1;
nodes = (
"2462 193 OFFCURVE",
"2413 303 OFFCURVE",
"2413 409 CURVE SMOOTH",
"2413 513 OFFCURVE",
"2461 620 OFFCURVE",
"2557 620 CURVE SMOOTH",
"2653 620 OFFCURVE",
"2701 512 OFFCURVE",
"2701 406 CURVE SMOOTH",
"2701 298 OFFCURVE",
"2652 193 OFFCURVE",
"2558 193 CURVE SMOOTH"
);
}
);
width = 2997;
}
);
unicode = 2030;
},
{
glyphname = at;
lastChange = "2016-07-01 10:56:26 +0000";
layers = (
{
layerId = "849A9C4C-BF7C-40C5-8614-1FD725A2A379";
paths = (
{
closed = 1;
nodes = (
"906 -32 OFFCURVE",
"1069 10 OFFCURVE",
"1277 124 CURVE",
"1205 274 LINE",
"1032 189 OFFCURVE",
"895 151 OFFCURVE",
"766 151 CURVE SMOOTH",
"431 151 OFFCURVE",
"279 404 OFFCURVE",
"279 674 CURVE SMOOTH",
"279 957 OFFCURVE",
"445 1258 OFFCURVE",
"850 1258 CURVE SMOOTH",
"1301 1258 OFFCURVE",
"1336 884 OFFCURVE",
"1336 731 CURVE SMOOTH",
"1336 645 OFFCURVE",
"1325 469 OFFCURVE",
"1217 469 CURVE SMOOTH",
"1174 469 OFFCURVE",
"1147 496 OFFCURVE",
"1147 581 CURVE SMOOTH",
"1147 1050 LINE",
"990 1050 LINE",
"954 941 LINE",
"914 1021 OFFCURVE",
"823 1068 OFFCURVE",
"733 1068 CURVE SMOOTH",
"598 1068 OFFCURVE",
"454 962 OFFCURVE",
"454 702 CURVE SMOOTH",
"454 446 OFFCURVE",
"594 324 OFFCURVE",
"736 324 CURVE SMOOTH",
"838 324 OFFCURVE",
"926 386 OFFCURVE",
"994 510 CURVE",
"1022 429 OFFCURVE",
"1072 348 OFFCURVE",
"1209 348 CURVE SMOOTH",
"1402 348 OFFCURVE",
"1526 510 OFFCURVE",
"1526 776 CURVE SMOOTH",
"1526 1224 OFFCURVE",
"1175 1452 OFFCURVE",
"811 1452 CURVE SMOOTH",
"329 1452 OFFCURVE",
"55 1051 OFFCURVE",
"55 663 CURVE SMOOTH",
"55 310 OFFCURVE",
"282 -32 OFFCURVE",
"744 -32 CURVE SMOOTH"
);
},
{
closed = 1;
nodes = (
"743 511 OFFCURVE",
"688 572 OFFCURVE",
"688 704 CURVE SMOOTH",
"688 823 OFFCURVE",
"733 911 OFFCURVE",
"805 911 CURVE SMOOTH",
"839 911 OFFCURVE",
"877 892 OFFCURVE",
"924 844 CURVE",
"924 625 LINE",
"896 552 OFFCURVE",
"850 511 OFFCURVE",
"802 511 CURVE SMOOTH"
);
}
);
width = 1578;
}
);
unicode = 0040;
},
{
glyphname = ampersand;
lastChange = "2016-07-01 10:56:26 +0000";
layers = (
{
layerId = "849A9C4C-BF7C-40C5-8614-1FD725A2A379";
paths = (
{
closed = 1;
nodes = (
"581 -28 OFFCURVE",
"732 54 OFFCURVE",
"840 153 CURVE",
"947 46 OFFCURVE",
"992 -14 OFFCURVE",
"1227 -14 CURVE",
"1227 244 LINE",
"1127 256 OFFCURVE",
"1063 293 OFFCURVE",
"1003 353 CURVE",
"1060 445 OFFCURVE",
"1140 594 OFFCURVE",
"1175 754 CURVE",
"948 825 LINE",
"926 720 OFFCURVE",
"880 601 OFFCURVE",
"850 531 CURVE",
"663 819 LINE",
"801 917 OFFCURVE",
"928 1048 OFFCURVE",
"928 1225 CURVE SMOOTH",
"928 1424 OFFCURVE",
"768 1546 OFFCURVE",
"569 1546 CURVE SMOOTH",
"361 1546 OFFCURVE",
"193 1414 OFFCURVE",
"193 1196 CURVE SMOOTH",
"193 1049 OFFCURVE",
"269 904 OFFCURVE",
"332 815 CURVE",
"194 722 OFFCURVE",
"39 586 OFFCURVE",
"39 368 CURVE SMOOTH",
"39 154 OFFCURVE",
"188 -28 OFFCURVE",
"423 -28 CURVE SMOOTH"
);
},
{
closed = 1;
nodes = (
"372 236 OFFCURVE",
"314 317 OFFCURVE",
"314 411 CURVE SMOOTH",
"314 494 OFFCURVE",
"359 591 OFFCURVE",
"443 646 CURVE",
"699 309 LINE",
"658 278 OFFCURVE",
"580 236 OFFCURVE",
"493 236 CURVE SMOOTH"
);
},
{
closed = 1;
nodes = (
"499 1082 OFFCURVE",
"454 1159 OFFCURVE",
"454 1226 CURVE SMOOTH",
"454 1304 OFFCURVE",
"516 1346 OFFCURVE",
"568 1346 CURVE SMOOTH",
"619 1346 OFFCURVE",
"683 1305 OFFCURVE",
"683 1228 CURVE SMOOTH",
"683 1120 OFFCURVE",
"555 977 OFFCURVE",
"555 971 CURVE"
);
}
);
width = 1275;
}
);
unicode = 0026;
},
{
glyphname = paragraph;
lastChange = "2016-07-01 10:56:26 +0000";
layers = (
{
layerId = "849A9C4C-BF7C-40C5-8614-1FD725A2A379";
paths = (
{
closed = 1;
nodes = (
"567 0 LINE",
"567 770 LINE",
"619 765 OFFCURVE",
"668 764 OFFCURVE",
"719 764 CURVE",
"719 0 LINE",
"951 0 LINE",
"951 1288 LINE",
"1095 1288 LINE",
"1095 1536 LINE",
"859 1536 LINE SMOOTH",
"509 1536 OFFCURVE",
"47 1553 OFFCURVE",
"47 1145 CURVE SMOOTH",
"47 941 OFFCURVE",
"169 847 OFFCURVE",
"335 801 CURVE",
"335 0 LINE"
);
}
);
width = 1152;
}
);
unicode = 00B6;
},
{
glyphname = section;
lastChange = "2016-07-01 10:56:26 +0000";
layers = (
{
layerId = "849A9C4C-BF7C-40C5-8614-1FD725A2A379";
paths = (
{
closed = 1;
nodes = (
"697 -32 OFFCURVE",
"894 85 OFFCURVE",
"894 317 CURVE SMOOTH",
"894 410 OFFCURVE",
"863 478 OFFCURVE",
"812 529 CURVE",
"868 589 OFFCURVE",
"904 668 OFFCURVE",
"904 774 CURVE SMOOTH",
"904 953 OFFCURVE",
"802 1031 OFFCURVE",
"672 1090 CURVE SMOOTH",
"520 1159 OFFCURVE",
"367 1187 OFFCURVE",
"367 1277 CURVE SMOOTH",
"367 1334 OFFCURVE",
"429 1365 OFFCURVE",
"487 1365 CURVE SMOOTH",
"579 1365 OFFCURVE",
"619 1286 OFFCURVE",
"636 1227 CURVE",
"872 1300 LINE",
"822 1468 OFFCURVE",
"664 1568 OFFCURVE",
"485 1568 CURVE SMOOTH",
"291 1568 OFFCURVE",
"100 1450 OFFCURVE",
"100 1220 CURVE SMOOTH",
"100 1138 OFFCURVE",
"124 1063 OFFCURVE",
"173 1007 CURVE",
"115 941 OFFCURVE",
"90 861 OFFCURVE",
"90 780 CURVE SMOOTH",
"90 592 OFFCURVE",
"224 487 OFFCURVE",
"417 413 CURVE SMOOTH",
"503 380 OFFCURVE",
"618 348 OFFCURVE",
"618 268 CURVE SMOOTH",
"618 197 OFFCURVE",
"527 175 OFFCURVE",
"471 175 CURVE SMOOTH",
"372 175 OFFCURVE",
"320 246 OFFCURVE",
"305 312 CURVE",
"83 240 LINE",
"121 73 OFFCURVE",
"270 -32 OFFCURVE",
"478 -32 CURVE SMOOTH"
);
},
{
closed = 1;
nodes = (
"417 728 OFFCURVE",
"357 749 OFFCURVE",
"357 825 CURVE SMOOTH",
"357 851 OFFCURVE",
"364 869 OFFCURVE",
"380 888 CURVE",
"541 823 LINE SMOOTH",
"588 804 OFFCURVE",
"628 773 OFFCURVE",
"628 723 CURVE SMOOTH",
"628 689 OFFCURVE",
"610 669 OFFCURVE",
"590 654 CURVE"
);
}
);
width = 984;
}
);
unicode = 00A7;
},
{
glyphname = copyright;
lastChange = "2016-07-01 10:56:26 +0000";
layers = (
{
layerId = "849A9C4C-BF7C-40C5-8614-1FD725A2A379";
paths = (
{
closed = 1;
nodes = (
"1053 0 OFFCURVE",
"1343 301 OFFCURVE",
"1343 673 CURVE SMOOTH",
"1343 1045 OFFCURVE",
"1053 1346 OFFCURVE",
"699 1346 CURVE SMOOTH",
"344 1346 OFFCURVE",
"54 1045 OFFCURVE",
"54 673 CURVE SMOOTH",
"54 301 OFFCURVE",
"344 0 OFFCURVE",
"699 0 CURVE SMOOTH"
);
},
{
closed = 1;
nodes = (
"901 242 OFFCURVE",
"995 403 OFFCURVE",
"995 582 CURVE",
"827 598 LINE",
"820 498 OFFCURVE",
"803 391 OFFCURVE",
"714 391 CURVE SMOOTH",
"605 391 OFFCURVE",
"589 554 OFFCURVE",
"589 680 CURVE SMOOTH",
"589 805 OFFCURVE",
"605 944 OFFCURVE",
"698 944 CURVE SMOOTH",
"801 944 OFFCURVE",
"803 770 OFFCURVE",
"803 755 CURVE",
"994 763 LINE",
"994 930 OFFCURVE",
"895 1106 OFFCURVE",
"701 1106 CURVE SMOOTH",
"486 1106 OFFCURVE",
"391 889 OFFCURVE",
"391 681 CURVE SMOOTH",
"391 485 OFFCURVE",
"476 242 OFFCURVE",
"710 242 CURVE SMOOTH"
);
},
{
closed = 1;
nodes = (
"417 133 OFFCURVE",
"187 374 OFFCURVE",
"187 673 CURVE SMOOTH",
"187 972 OFFCURVE",
"417 1213 OFFCURVE",
"698 1213 CURVE SMOOTH",
"979 1213 OFFCURVE",
"1210 972 OFFCURVE",
"1210 673 CURVE SMOOTH",
"1210 374 OFFCURVE",
"979 133 OFFCURVE",
"698 133 CURVE SMOOTH"
);
}
);
width = 1397;
}
);
unicode = 00A9;
},
{
glyphname = registered;
lastChange = "2016-07-01 10:56:26 +0000";
layers = (
{
layerId = "849A9C4C-BF7C-40C5-8614-1FD725A2A379";
paths = (
{
closed = 1;
nodes = (
"1053 0 OFFCURVE",
"1343 301 OFFCURVE",
"1343 673 CURVE SMOOTH",
"1343 1045 OFFCURVE",
"1053 1346 OFFCURVE",
"699 1346 CURVE SMOOTH",
"344 1346 OFFCURVE",
"54 1045 OFFCURVE",
"54 673 CURVE SMOOTH",
"54 301 OFFCURVE",
"344 0 OFFCURVE",
"699 0 CURVE SMOOTH"
);
},
{
closed = 1;
nodes = (
"417 133 OFFCURVE",
"187 374 OFFCURVE",
"187 673 CURVE SMOOTH",
"187 972 OFFCURVE",
"417 1213 OFFCURVE",
"698 1213 CURVE SMOOTH",
"979 1213 OFFCURVE",
"1210 972 OFFCURVE",
"1210 673 CURVE SMOOTH",
"1210 374 OFFCURVE",
"979 133 OFFCURVE",
"698 133 CURVE SMOOTH"
);
},
{
closed = 1;
nodes = (
"974 344 LINE",
"841 659 LINE",
"916 688 OFFCURVE",
"959 740 OFFCURVE",
"959 840 CURVE SMOOTH",
"959 1055 OFFCURVE",
"763 1065 OFFCURVE",
"605 1065 CURVE SMOOTH",
"444 1065 LINE",
"444 289 LINE",
"617 305 LINE",
"617 630 LINE",
"684 630 LINE",
"814 288 LINE"
);
},
{
closed = 1;
nodes = (
"619 928 LINE",
"652 928 LINE SMOOTH",
"744 928 OFFCURVE",
"798 915 OFFCURVE",
"798 842 CURVE SMOOTH",
"798 766 OFFCURVE",
"739 751 OFFCURVE",
"656 751 CURVE SMOOTH",
"619 751 LINE"
);
}
);
width = 1397;
}
);
unicode = 00AE;
},
{
glyphname = trademark;
lastChange = "2016-07-01 10:56:26 +0000";
layers = (
{
layerId = "849A9C4C-BF7C-40C5-8614-1FD725A2A379";
paths = (
{
closed = 1;
nodes = (
"1724 548 LINE",
"1724 1382 LINE",
"1446 1364 LINE",
"1306 888 LINE",
"1165 1389 LINE",
"860 1381 LINE",
"860 539 LINE",
"1032 548 LINE",
"1032 1104 LINE",
"1211 539 LINE",
"1340 539 LINE",
"1508 1100 LINE",
"1508 531 LINE"
);
},
{
closed = 1;
nodes = (
"519 548 LINE",
"519 1215 LINE",
"717 1215 LINE",
"735 1391 LINE",
"109 1391 LINE",
"92 1215 LINE",
"310 1215 LINE",
"310 531 LINE"
);
}
);
width = 1877;
}
);
unicode = 2122;
},
{
glyphname = degree;
lastChange = "2016-07-01 10:56:26 +0000";
layers = (
{
layerId = "849A9C4C-BF7C-40C5-8614-1FD725A2A379";
paths = (
{
closed = 1;
nodes = (
"720 387 OFFCURVE",
"852 550 OFFCURVE",
"852 769 CURVE SMOOTH",
"852 988 OFFCURVE",
"720 1151 OFFCURVE",
"462 1151 CURVE SMOOTH",
"204 1151 OFFCURVE",
"68 988 OFFCURVE",
"68 769 CURVE SMOOTH",
"68 550 OFFCURVE",
"204 387 OFFCURVE",
"462 387 CURVE SMOOTH"
);
},
{
closed = 1;
nodes = (
"322 579 OFFCURVE",
"316 700 OFFCURVE",
"316 765 CURVE SMOOTH",
"316 845 OFFCURVE",
"325 959 OFFCURVE",
"462 959 CURVE SMOOTH",
"600 959 OFFCURVE",
"603 841 OFFCURVE",
"603 770 CURVE SMOOTH",
"603 698 OFFCURVE",
"600 579 OFFCURVE",
"462 579 CURVE SMOOTH"
);
}
);
width = 921;
}
);
unicode = 00B0;
},
{
glyphname = bar;
lastChange = "2016-07-01 10:56:26 +0000";
layers = (
{
layerId = "849A9C4C-BF7C-40C5-8614-1FD725A2A379";
paths = (
{
closed = 1;
nodes = (
"441 -96 LINE",
"441 1632 LINE",
"141 1632 LINE",
"141 -96 LINE"
);
}
);
width = 582;
}
);
unicode = 007C;
},
{
glyphname = brokenbar;
lastChange = "2016-07-01 10:56:26 +0000";
layers = (
{
layerId = "849A9C4C-BF7C-40C5-8614-1FD725A2A379";
paths = (
{
closed = 1;
nodes = (
"445 960 LINE",
"445 1632 LINE",
"145 1632 LINE",
"145 960 LINE"
);
},
{
closed = 1;
nodes = (
"445 -96 LINE",
"445 576 LINE",
"145 576 LINE",
"145 -96 LINE"
);
}
);
width = 590;
}
);
unicode = 00A6;
},
{
glyphname = dagger;
lastChange = "2016-07-01 10:56:26 +0000";
layers = (
{
layerId = "849A9C4C-BF7C-40C5-8614-1FD725A2A379";
paths = (
{
closed = 1;
nodes = (
"504 192 LINE",
"504 960 LINE",
"708 960 LINE",
"720 1152 LINE",
"504 1152 LINE",
"504 1440 LINE",
"264 1428 LINE",
"264 1152 LINE",
"60 1152 LINE",
"48 960 LINE",
"264 960 LINE",
"264 180 LINE"
);
}
);
width = 768;
}
);
unicode = 2020;
},
{
glyphname = daggerdbl;
lastChange = "2016-07-01 10:56:26 +0000";
layers = (
{
layerId = "849A9C4C-BF7C-40C5-8614-1FD725A2A379";
paths = (
{
closed = 1;
nodes = (
"532 192 LINE",
"532 480 LINE",
"736 480 LINE",
"748 672 LINE",
"532 672 LINE",
"532 960 LINE",
"736 960 LINE",
"748 1152 LINE",
"532 1152 LINE",
"532 1440 LINE",
"292 1428 LINE",
"292 1152 LINE",
"88 1152 LINE",
"76 960 LINE",
"292 960 LINE",
"292 672 LINE",
"88 672 LINE",
"76 480 LINE",
"292 480 LINE",
"292 180 LINE"
);
}
);
width = 822;
}
);
unicode = 2021;
},
{
glyphname = asciicircum;
lastChange = "2016-07-29 09:16:56 +0000";
layers = (
{
layerId = "849A9C4C-BF7C-40C5-8614-1FD725A2A379";
paths = (
{
closed = 1;
nodes = (
"341 829 LINE",
"461 1119 LINE",
"565 829 LINE",
"873 829 LINE",
"605 1440 LINE",
"340 1440 LINE",
"65 829 LINE"
);
}
);
width = 938;
}
);
unicode = 005E;
},
{
glyphname = dotaccentcomb;
lastChange = "2016-07-01 10:56:26 +0000";
layers = (
{
anchors = (
{
name = _top;
position = "{190, 1152}";
},
{
name = top;
position = "{190, 1536}";
}
);
layerId = "849A9C4C-BF7C-40C5-8614-1FD725A2A379";
paths = (
{
closed = 1;
nodes = (
"334 1248 LINE",
"334 1536 LINE",
"46 1536 LINE",
"46 1248 LINE"
);
}
);
width = 380;
}
);
unicode = 0307;
userData = {
com.fontlab.hintData = {
hhints = (
{
position = 1248;
width = 288;
}
);
vhints = (
{
position = 46;
width = 288;
}
);
};
};
},
{
glyphname = gravecomb;
lastChange = "2016-07-01 10:58:26 +0000";
layers = (
{
anchors = (
{
name = _top;
position = "{273, 1152}";
},
{
name = top;
position = "{273, 1789}";
}
);
background = {
paths = (
{
closed = 1;
nodes = (
"557 1342 LINE",
"260 1789 LINE",
"33 1587 LINE",
"443 1241 LINE"
);
}
);
};
components = (
{
name = grave;
}
);
layerId = "849A9C4C-BF7C-40C5-8614-1FD725A2A379";
width = 613;
}
);
unicode = 0300;
},
{
glyphname = acutecomb;
lastChange = "2016-07-01 10:56:26 +0000";
layers = (
{
anchors = (
{
name = _top;
position = "{296, 1152}";
},
{
name = top;
position = "{296, 1793}";
}
);
background = {
anchors = (
{
name = _top;
position = "{296, 1152}";
},
{
name = top;
position = "{296, 1793}";
}
);
paths = (
{
closed = 1;
nodes = (
"557 1591 LINE",
"330 1793 LINE",
"33 1346 LINE",
"146 1245 LINE"
);
}
);
};
layerId = "849A9C4C-BF7C-40C5-8614-1FD725A2A379";
paths = (
{
closed = 1;
nodes = (
"557 1591 LINE",
"330 1793 LINE",
"33 1346 LINE",
"146 1245 LINE"
);
}
);
width = 591;
}
);
unicode = 0301;
},
{
glyphname = circumflexcomb;
lastChange = "2016-07-08 21:45:49 +0000";
layers = (
{
anchors = (
{
name = _top;
position = "{368, 1152}";
},
{
name = top;
position = "{368, 1728}";
}
);
background = {
anchors = (
{
name = _top;
position = "{368, 1152}";
},
{
name = top;
position = "{368, 1728}";
}
);
paths = (
{
closed = 1;
nodes = (
"242 1248 LINE",
"358 1538 LINE",
"454 1248 LINE",
"704 1248 LINE",
"474 1728 LINE",
"272 1728 LINE",
"32 1248 LINE"
);
}
);
};
components = (
{
name = circumflex;
}
);
layerId = "849A9C4C-BF7C-40C5-8614-1FD725A2A379";
width = 739;
}
);
unicode = 0302;
},
{
glyphname = brevecomb;
lastChange = "2016-07-01 10:56:26 +0000";
layers = (
{
anchors = (
{
name = _top;
position = "{509, 1152}";
},
{
name = top;
position = "{509, 1728}";
}
);
background = {
paths = (
{
closed = 1;
nodes = (
"808 1248 OFFCURVE",
"904 1546 OFFCURVE",
"904 1728 CURVE",
"664 1728 LINE",
"664 1632 OFFCURVE",
"664 1488 OFFCURVE",
"472 1488 CURVE SMOOTH",
"280 1488 OFFCURVE",
"280 1632 OFFCURVE",
"280 1728 CURVE",
"40 1728 LINE",
"40 1546 OFFCURVE",
"136 1248 OFFCURVE",
"472 1248 CURVE SMOOTH"
);
}
);
};
components = (
{
name = breve;
}
);
layerId = "849A9C4C-BF7C-40C5-8614-1FD725A2A379";
width = 1018;
}
);
unicode = 0306;
userData = {
com.fontlab.hintData = {
hhints = (
{
position = 1248;
width = 240;
}
);
vhints = (
{
position = 40;
width = 240;
},
{
position = 664;
width = 240;
}
);
};
};
},
{
glyphname = dblgravecomb;
lastChange = "2016-07-01 10:56:26 +0000";
layers = (
{
anchors = (
{
name = _top;
position = "{450, 1152}";
},
{
name = top;
position = "{450, 1847}";
}
);
background = {
paths = (
{
closed = 1;
nodes = (
"503 1346 LINE",
"234 1826 LINE",
"0 1632 LINE",
"384 1248 LINE"
);
},
{
closed = 1;
nodes = (
"899 1320 LINE",
"739 1847 LINE",
"469 1708 LINE",
"762 1250 LINE"
);
}
);
};
layerId = "849A9C4C-BF7C-40C5-8614-1FD725A2A379";
paths = (
{
closed = 1;
nodes = (
"503 1346 LINE",
"234 1826 LINE",
"0 1632 LINE",
"384 1248 LINE"
);
},
{
closed = 1;
nodes = (
"899 1320 LINE",
"739 1847 LINE",
"469 1708 LINE",
"762 1250 LINE"
);
}
);
width = 1102;
}
);
unicode = 030F;
},
{
glyphname = breveinvertedcomb;
lastChange = "2016-07-01 10:56:26 +0000";
layers = (
{
anchors = (
{
name = _top;
position = "{509, 1152}";
},
{
name = top;
position = "{509, 1728}";
}
);
layerId = "849A9C4C-BF7C-40C5-8614-1FD725A2A379";
paths = (
{
closed = 1;
nodes = (
"317 1248 LINE",
"317 1344 OFFCURVE",
"317 1488 OFFCURVE",
"509 1488 CURVE SMOOTH",
"701 1488 OFFCURVE",
"701 1344 OFFCURVE",
"701 1248 CURVE",
"941 1248 LINE",
"941 1430 OFFCURVE",
"845 1728 OFFCURVE",
"509 1728 CURVE SMOOTH",
"173 1728 OFFCURVE",
"77 1430 OFFCURVE",
"77 1248 CURVE"
);
}
);
width = 1018;
}
);
unicode = 0311;
},
{
glyphname = commaaccentcomb;
lastChange = "2016-07-01 10:56:26 +0000";
layers = (
{
layerId = "849A9C4C-BF7C-40C5-8614-1FD725A2A379";
paths = (
{
closed = 1;
nodes = (
"269 104 OFFCURVE",
"390 180 OFFCURVE",
"390 384 CURVE SMOOTH",
"390 672 LINE",
"102 672 LINE",
"102 384 LINE",
"246 384 LINE",
"243 338 OFFCURVE",
"219 288 OFFCURVE",
"150 288 CURVE",
"150 96 LINE"
);
}
);
width = 481;
}
);
unicode = 0326;
},
{
glyphname = acute;
lastChange = "2016-07-01 10:56:26 +0000";
layers = (
{
anchors = (
{
name = _top;
position = "{296, 1152}";
},
{
name = top;
position = "{296, 1793}";
}
);
layerId = "849A9C4C-BF7C-40C5-8614-1FD725A2A379";
paths = (
{
closed = 1;
nodes = (
"557 1591 LINE",
"330 1793 LINE",
"33 1346 LINE",
"146 1245 LINE"
);
}
);
width = 600;
}
);
unicode = 00B4;
},
{
glyphname = breve;
lastChange = "2016-07-01 10:56:26 +0000";
layers = (
{
layerId = "849A9C4C-BF7C-40C5-8614-1FD725A2A379";
paths = (
{
closed = 1;
nodes = (
"845 1248 OFFCURVE",
"941 1546 OFFCURVE",
"941 1728 CURVE",
"701 1728 LINE",
"701 1632 OFFCURVE",
"701 1488 OFFCURVE",
"509 1488 CURVE SMOOTH",
"317 1488 OFFCURVE",
"317 1632 OFFCURVE",
"317 1728 CURVE",
"77 1728 LINE",
"77 1546 OFFCURVE",
"173 1248 OFFCURVE",
"509 1248 CURVE SMOOTH"
);
}
);
width = 1018;
}
);
unicode = 02D8;
},
{
glyphname = caron;
lastChange = "2016-07-01 10:56:26 +0000";
layers = (
{
anchors = (
{
name = _top;
position = "{368, 1152}";
},
{
name = top;
position = "{368, 1728}";
}
);
layerId = "849A9C4C-BF7C-40C5-8614-1FD725A2A379";
paths = (
{
closed = 1;
nodes = (
"474 1248 LINE",
"704 1728 LINE",
"454 1728 LINE",
"358 1438 LINE",
"242 1728 LINE",
"32 1728 LINE",
"272 1248 LINE"
);
}
);
width = 768;
}
);
unicode = 02C7;
},
{
glyphname = cedilla;
lastChange = "2016-07-08 21:47:40 +0000";
layers = (
{
anchors = (
{
name = _bottom;
position = "{299, 0}";
}
);
layerId = "849A9C4C-BF7C-40C5-8614-1FD725A2A379";
paths = (
{
closed = 1;
nodes = (
"418 -556 OFFCURVE",
"522 -498 OFFCURVE",
"522 -339 CURVE SMOOTH",
"522 -330 OFFCURVE",
"529 -144 OFFCURVE",
"286 -76 CURVE",
"316 48 LINE",
"164 48 LINE",
"124 -171 LINE",
"259 -171 OFFCURVE",
"316 -236 OFFCURVE",
"316 -289 CURVE SMOOTH",
"316 -329 OFFCURVE",
"289 -363 OFFCURVE",
"220 -363 CURVE SMOOTH",
"181 -363 OFFCURVE",
"135 -354 OFFCURVE",
"76 -327 CURVE",
"76 -492 LINE",
"132 -531 OFFCURVE",
"219 -556 OFFCURVE",
"306 -556 CURVE SMOOTH"
);
}
);
width = 551;
}
);
unicode = 00B8;
},
{
glyphname = circumflex;
lastChange = "2016-07-01 10:56:26 +0000";
layers = (
{
layerId = "849A9C4C-BF7C-40C5-8614-1FD725A2A379";
paths = (
{
closed = 1;
nodes = (
"242 1248 LINE",
"358 1538 LINE",
"454 1248 LINE",
"704 1248 LINE",
"474 1728 LINE",
"272 1728 LINE",
"32 1248 LINE"
);
}
);
width = 739;
}
);
unicode = 02C6;
},
{
glyphname = dieresis;
lastChange = "2016-07-01 11:03:22 +0000";
layers = (
{
anchors = (
{
name = _top;
position = "{546, 1152}";
},
{
name = top;
position = "{546, 1536}";
}
);
layerId = "849A9C4C-BF7C-40C5-8614-1FD725A2A379";
paths = (
{
closed = 1;
nodes = (
"930 1248 LINE",
"930 1536 LINE",
"642 1536 LINE",
"642 1248 LINE"
);
},
{
closed = 1;
nodes = (
"450 1248 LINE",
"450 1536 LINE",
"162 1536 LINE",
"162 1248 LINE"
);
}
);
width = 1091;
}
);
unicode = 00A8;
},
{
glyphname = dotaccent;
lastChange = "2016-07-01 11:00:31 +0000";
layers = (
{
anchors = (
{
name = _top;
position = "{190, 1152}";
},
{
name = top;
position = "{190, 1536}";
}
);
layerId = "849A9C4C-BF7C-40C5-8614-1FD725A2A379";
paths = (
{
closed = 1;
nodes = (
"334 1248 LINE",
"334 1536 LINE",
"46 1536 LINE",
"46 1248 LINE"
);
}
);
width = 380;
}
);
unicode = 02D9;
},
{
glyphname = grave;
lastChange = "2016-07-01 10:56:26 +0000";
layers = (
{
layerId = "849A9C4C-BF7C-40C5-8614-1FD725A2A379";
paths = (
{
closed = 1;
nodes = (
"535 1342 LINE",
"238 1789 LINE",
"11 1587 LINE",
"421 1241 LINE"
);
}
);
width = 613;
}
);
unicode = 0060;
},
{
glyphname = hungarumlaut;
lastChange = "2016-07-01 10:56:26 +0000";
layers = (
{
layerId = "849A9C4C-BF7C-40C5-8614-1FD725A2A379";
paths = (
{
closed = 1;
nodes = (
"1067 1534 LINE",
"833 1728 LINE",
"564 1248 LINE",
"683 1150 LINE"
);
},
{
closed = 1;
nodes = (
"564 1534 LINE",
"330 1728 LINE",
"61 1248 LINE",
"180 1150 LINE"
);
}
);
width = 1102;
}
);
unicode = 02DD;
},
{
glyphname = macron;
lastChange = "2016-07-01 10:58:47 +0000";
layers = (
{
anchors = (
{
name = _top;
position = "{450, 1152}";
},
{
name = top;
position = "{450, 1440}";
}
);
layerId = "849A9C4C-BF7C-40C5-8614-1FD725A2A379";
paths = (
{
closed = 1;
nodes = (
"738 1248 LINE",
"738 1440 LINE",
"162 1440 LINE",
"162 1248 LINE"
);
}
);
width = 898;
}
);
unicode = 00AF;
},
{
glyphname = ogonek;
lastChange = "2016-07-08 21:48:18 +0000";
layers = (
{
anchors = (
{
name = _ogonek;
position = "{544, 10}";
}
);
background = {
anchors = (
{
name = _ogonek;
position = "{237, 10}";
}
);
};
layerId = "849A9C4C-BF7C-40C5-8614-1FD725A2A379";
paths = (
{
closed = 1;
nodes = (
"399 -385 OFFCURVE",
"478 -362 OFFCURVE",
"517 -321 CURVE",
"517 -156 LINE",
"488 -169 OFFCURVE",
"422 -191 OFFCURVE",
"368 -191 CURVE SMOOTH",
"324 -191 OFFCURVE",
"289 -176 OFFCURVE",
"289 -132 CURVE SMOOTH",
"289 -122 OFFCURVE",
"291 -113 OFFCURVE",
"294 -101 CURVE SMOOTH",
"324 20 LINE",
"162 20 LINE",
"100 -148 LINE SMOOTH",
"89 -177 OFFCURVE",
"83 -193 OFFCURVE",
"83 -219 CURVE SMOOTH",
"83 -334 OFFCURVE",
"202 -385 OFFCURVE",
"320 -385 CURVE SMOOTH"
);
}
);
width = 544;
}
);
unicode = 02DB;
},
{
glyphname = ring;
lastChange = "2016-07-01 10:56:26 +0000";
layers = (
{
anchors = (
{
name = _top;
position = "{395, 1152}";
},
{
name = top;
position = "{395, 1792}";
}
);
layerId = "849A9C4C-BF7C-40C5-8614-1FD725A2A379";
paths = (
{
closed = 1;
nodes = (
"549 1248 OFFCURVE",
"707 1337 OFFCURVE",
"707 1520 CURVE SMOOTH",
"707 1703 OFFCURVE",
"550 1792 OFFCURVE",
"395 1792 CURVE SMOOTH",
"238 1792 OFFCURVE",
"82 1702 OFFCURVE",
"82 1520 CURVE SMOOTH",
"82 1338 OFFCURVE",
"239 1248 OFFCURVE",
"395 1248 CURVE SMOOTH"
);
},
{
closed = 1;
nodes = (
"333 1407 OFFCURVE",
"271 1446 OFFCURVE",
"271 1519 CURVE SMOOTH",
"271 1591 OFFCURVE",
"332 1631 OFFCURVE",
"394 1631 CURVE SMOOTH",
"455 1631 OFFCURVE",
"518 1592 OFFCURVE",
"518 1519 CURVE SMOOTH",
"518 1446 OFFCURVE",
"455 1407 OFFCURVE",
"394 1407 CURVE SMOOTH"
);
}
);
width = 789;
}
);
unicode = 02DA;
},
{
glyphname = tilde;
lastChange = "2016-07-01 10:57:53 +0000";
layers = (
{
anchors = (
{
name = _top;
position = "{437, 1152}";
},
{
name = top;
position = "{437, 1537}";
}
);
layerId = "849A9C4C-BF7C-40C5-8614-1FD725A2A379";
paths = (
{
closed = 1;
nodes = (
"682 1230 OFFCURVE",
"755 1371 OFFCURVE",
"755 1375 CURVE",
"711 1537 LINE",
"688 1500 OFFCURVE",
"633 1457 OFFCURVE",
"567 1457 CURVE SMOOTH",
"476 1457 OFFCURVE",
"409 1537 OFFCURVE",
"319 1537 CURVE SMOOTH",
"238 1537 OFFCURVE",
"170 1471 OFFCURVE",
"118 1415 CURVE",
"133 1231 LINE",
"173 1274 OFFCURVE",
"232 1331 OFFCURVE",
"307 1331 CURVE SMOOTH",
"407 1331 OFFCURVE",
"469 1230 OFFCURVE",
"567 1230 CURVE SMOOTH"
);
}
);
width = 860;
}
);
unicode = 02DC;
},
